<?xml version="1.0" encoding="UTF-8"?>
<svg width="120px" height="35px" viewBox="0 0 120 35" version="1.1" xmlns="http://www.w3.org/2000/svg" xmlns:xlink="http://www.w3.org/1999/xlink">
    <title>map</title>
    <g id="map" stroke="none" stroke-width="1" fill="none" fill-rule="evenodd">
        <g id="Group" transform="translate(4.000000, 3.000000)">
            <g id="Group-53" stroke="#979797" stroke-width="2">
                <path d="M11.9253478,2.39155311 C11.8473177,2.12666461 11.6693074,1.91848104 11.4445825,1.79602713 C11.2198576,1.67357321 10.9484182,1.63684894 10.6835297,1.71487905 L1.71742797,4.35608824 C1.50473818,4.4187418 1.32538119,4.54769033 1.19919664,4.71640696 C1.0730121,4.88512359 1,5.09360833 1,5.31533432 L1.05137121,26.5300449 C1.13874024,26.7920015 1.32401694,26.9937454 1.55294054,27.1081579 C1.78186414,27.2225704 2.05443464,27.2496515 2.31639124,27.1622824 L11.2824929,24.171865 C11.4866222,24.1037829 11.6575244,23.9742174 11.7773943,23.8078766 C11.8972641,23.6415358 11.9661017,23.4384197 11.9661017,23.2232362 L11.9253478,2.39155311 Z" id="Rectangle"></path>
                <path d="M22.6033139,2.39155311 C22.5252838,2.12666461 22.3472735,1.91848104 22.1225486,1.79602713 C21.8978237,1.67357321 21.6263843,1.63684894 21.3614958,1.71487905 L12.3953941,4.35608824 C12.1827043,4.4187418 12.0033473,4.54769033 11.8771627,4.71640696 C11.7509782,4.88512359 11.6779661,5.09360833 11.6779661,5.31533432 L11.7293373,26.5300449 C11.8167063,26.7920015 12.001983,26.9937454 12.2309066,27.1081579 C12.4598302,27.2225704 12.7324007,27.2496515 12.9943573,27.1622824 L21.960459,24.171865 C22.1645883,24.1037829 22.3354905,23.9742174 22.4553604,23.8078766 C22.5752302,23.6415358 22.6440678,23.4384197 22.6440678,23.2232362 L22.6033139,2.39155311 Z" id="Rectangle" transform="translate(17.161017, 14.494505) scale(-1, 1) translate(-17.161017, -14.494505) "></path>
                <path d="M33.28128,2.39155311 C33.2032499,2.12666461 33.0252396,1.91848104 32.8005147,1.79602713 C32.5757898,1.67357321 32.3043504,1.63684894 32.0394619,1.71487905 L23.0733602,4.35608824 C22.8606704,4.4187418 22.6813134,4.54769033 22.5551288,4.71640696 C22.4289443,4.88512359 22.3559322,5.09360833 22.3559322,5.31533432 L22.4073034,26.5300449 C22.4946724,26.7920015 22.6799491,26.9937454 22.9088727,27.1081579 C23.1377963,27.2225704 23.4103668,27.2496515 23.6723234,27.1622824 L32.6384251,24.171865 C32.8425544,24.1037829 33.0134566,23.9742174 33.1333265,23.8078766 C33.2531963,23.6415358 33.3220339,23.4384197 33.3220339,23.2232362 L33.28128,2.39155311 Z" id="Rectangle"></path>
                <path d="M43.9592461,2.39155311 C43.881216,2.12666461 43.7032057,1.91848104 43.4784808,1.79602713 C43.2537559,1.67357321 42.9823165,1.63684894 42.717428,1.71487905 L33.7513263,4.35608824 C33.5386365,4.4187418 33.3592795,4.54769033 33.2330949,4.71640696 C33.1069104,4.88512359 33.0338983,5.09360833 33.0338983,5.31533432 L33.0852695,26.5300449 C33.1726385,26.7920015 33.3579152,26.9937454 33.5868388,27.1081579 C33.8157624,27.2225704 34.0883329,27.2496515 34.3502895,27.1622824 L43.3163912,24.171865 C43.5205205,24.1037829 43.6914227,23.9742174 43.8112926,23.8078766 C43.9311624,23.6415358 44,23.4384197 44,23.2232362 L43.9592461,2.39155311 Z" id="Rectangle" transform="translate(38.516949, 14.494505) scale(-1, 1) translate(-38.516949, -14.494505) "></path>
            </g>
            <rect id="Rectangle" stroke="#CCCCCC" x="73.5" y="1.5" width="39" height="26" rx="3"></rect>
            <line x1="59" y1="5" x2="59" y2="25.6894531" id="Line" stroke="#BBBBBB" stroke-linecap="square"></line>
        </g>
    </g>
</svg>