<?xml version="1.0" encoding="UTF-8"?>
<svg width="580px" height="920px" viewBox="0 0 580 920" version="1.1" xmlns="http://www.w3.org/2000/svg" xmlns:xlink="http://www.w3.org/1999/xlink">
    <title>kandalaksha</title>
    <g id="kandalaksha" stroke="none" stroke-width="1" fill="none" fill-rule="evenodd">
        <rect id="Rectangle" fill="#DFF1E1" x="60" y="0" width="520" height="920" rx="20"></rect>
        <path d="M20,-2.27373675e-13 L209.75238,-2.27373675e-13 L209.75238,-2.27373675e-13 L222.992813,30.3680344 L254.265228,74.6660633 L292.652863,157.777555 L303.173729,216.930817 L274.645477,308.476585 L254.265228,369.984802 L270.77063,524.463654 L292.652863,592.725525 L318.917191,714.477661 L353.093933,785.151978 L382.506004,822.230942 L467.422318,857.713562 L490.4422,877.342865 C492.922731,879.738476 495.864372,881.124075 499.26712,881.499664 C504.371243,882.063048 503.824041,879.441241 512.807358,879.901886 C521.790674,880.362531 523.235625,883.427443 528.60257,883.003922 C533.969514,882.5804 534.618942,882.232861 542.019196,877.342865 C549.419449,872.452869 551.539182,867.428816 556.239105,864.742043 C560.939029,862.05527 564.533415,863.043542 569.712708,861.511505 C573.165569,860.490148 576.594667,859.224166 580,857.713562 L580,900 C580,911.045695 571.045695,920 560,920 L20,920 C8.954305,920 1.3527075e-15,911.045695 0,900 L0,20 C-1.3527075e-15,8.954305 8.954305,-2.25344614e-13 20,-2.27373675e-13 Z" id="Path-149" fill="#D8E8F7"></path>
        <path d="M380.362976,276.328133 L380.362976,299.844734 L398.157516,305.510014 L406.774841,335.575684 L420.698387,341.662201 L440.970337,386.644524 L445.535065,400.152802 L429.967636,408.175507 L434.411896,416.484436 L418.406143,424.041214 L426.36026,445.892258 L428.168625,524.203903 L416.622986,526.075195 L410.025101,559.39819 L408.212097,595.083725 L410.025101,640.441284 L413.617859,669.663132 L417.338294,688.158788 C417.592305,689.421572 418.087888,690.62339 418.797801,691.698178 L426.65355,703.591571 C427.645207,705.092912 429.023563,706.298887 430.64331,707.082359 L442.05523,712.602306 C442.856548,712.989904 443.706031,713.268777 444.581161,713.431532 L528.298203,729.001095 L528.298203,729.001095 L542.019196,734.390701 L534.770569,757.415192 L537.023652,766.772292 C537.482739,768.678886 537.371094,770.678385 536.702609,772.52202 L502.236775,867.576321 C501.361137,869.991266 499.379102,871.838835 496.908689,872.542936 L496.287431,872.720003 C493.804518,873.427667 491.702888,875.089798 490.4422,877.342865 L490.4422,877.342865 L490.4422,877.342865 L485.741302,884.338936 L418.406143,846.102982 L420.698387,841.288368 C419.400521,840.784111 418.042054,840.531982 416.622986,840.531982 C414.494384,840.531982 413.864401,841.288368 412.365608,841.288368 C411.366413,841.288368 409.981909,841.03624 408.212097,840.531982 C405.292962,838.978332 403.011457,838.12078 401.367584,837.959328 C399.723711,837.797875 397.101183,838.173778 393.5,839.087036 C390.397933,839.517758 388.139157,839.517758 386.723671,839.087036 C385.308185,838.656314 383.708118,837.482097 381.92347,835.564384 C379.322714,831.508627 377.269951,828.616379 375.765182,826.887642 C374.260414,825.158904 372.851516,824.074261 371.53849,823.633713 C366.448472,821.442307 363.202236,819.901353 361.799782,819.010849 C359.696101,817.675093 360.862924,817.720034 357.631416,814.803261 C354.399909,811.886488 352.753791,811.43771 351.154724,809.402573 C350.08868,808.045814 349.183203,805.946004 348.438293,803.103142 C346.537431,795.361174 344.959525,789.912411 343.704575,786.756851 C342.449624,783.601292 340.436283,780.019901 337.664551,776.01268 L333.379959,777.921684 L330.841888,773.435204 L335.130684,771.061485 C334.407924,769.657895 333.824349,768.633473 333.379959,767.98822 C332.935569,767.342967 332.381004,766.714811 331.716263,766.103752 C330.275182,765.266561 329.242427,764.520505 328.617996,763.865585 C327.681351,762.883205 327.762416,762.862021 327.33094,761.504303 C326.899464,760.146585 326.984736,758.792379 326.568092,757.415192 C326.151448,756.038004 326.69893,756.646057 324.984039,753.746788 C323.269148,750.847519 322.345998,750.580796 321.519913,748.88052 C320.693827,747.180244 320.673507,745.274878 320.477615,742.847534 C320.281724,740.42019 321.045452,738.83095 320.477615,735.965141 C320.099058,734.054602 319.077278,731.733254 317.412277,729.001095 C312.270321,720.557364 308.838095,714.752894 307.115601,711.587685 C305.393106,708.422476 304.068989,705.073828 303.14325,701.541742 C302.667425,699.936422 302.429512,698.485669 302.429512,697.189482 C302.429512,695.245201 301.50294,692.14082 300.261002,689.113953 C299.019063,686.087085 298.698227,686.70771 297.572403,683.617561 C296.821854,681.557462 295.147433,675.048503 292.549141,664.090683 C291.356073,659.433014 290.607133,656.012629 290.302322,653.829529 C289.997511,651.646429 289.997511,649.7028 290.302322,647.998642 C290.916686,645.47443 291.180353,643.563187 291.093323,642.264912 C291.006293,640.966636 290.484884,639.033018 289.529099,636.464058 C287.876492,632.139649 286.946543,629.140568 286.73925,627.466812 C286.428312,624.956179 286.926759,624.210589 286.73925,618.299614 C286.664372,615.939184 286.220061,613.697446 286.019852,611.591194 C285.718697,608.422982 285.616473,605.643284 285.336456,603.880968 C285.025674,601.925024 284.697101,600.544568 284.350739,599.739601 C282.814712,596.684935 281.658974,593.857141 280.883522,591.256218 C279.720345,587.354834 279.991669,586.545525 279.991669,584.008133 C279.991669,581.470741 278.719646,575.561481 278.068695,572.048218 C277.634728,569.706042 277.147317,567.602547 276.606461,565.737732 C274.683828,560.171495 273.418727,556.056794 272.811157,553.393631 C272.203587,550.730468 271.756027,547.338052 271.468475,543.216385 L262.528717,544.483704 L240.101761,366.431259 L293.195663,210.720955 L286.73925,207.459351 L288.210701,203.631538 L291.913742,205.067352 C291.715458,201.867683 291.178318,198.960236 290.302322,196.345009 C289.426327,193.729782 287.771038,190.091878 285.336456,185.431297 C283.671949,182.079772 282.650561,179.529375 282.272293,177.780106 C281.894025,176.030836 281.894025,172.365969 282.272293,166.785503 C282.272293,163.973331 282.272293,161.674205 282.272293,159.888123 C282.272293,158.102041 276.024434,145.28375 263.528717,121.43325 L258.190079,124.163544 L255.781494,119.327835 L260.986771,116.607864 C250.479206,88.9464276 242.827112,69.6719474 238.030487,58.7844238 C234.830862,51.5218184 232.628427,50.5300384 228.470856,42.629776 C227.087435,40.0009853 225.261421,35.913738 222.992813,30.3680344 L242.17775,21.4941521 L254.449249,21.4941521 L263.528717,42.629776 L285.336456,32.061964 L298.698227,52.7080994 L307.115601,48.2750092 L309.429367,52.7080994 L317.412277,60.9262848 L317.412277,65.283989 L348.438293,133.778183 L365.85318,187.589615 L380.362976,244.356506" id="Path-126" stroke="#B09898" fill="#FFFFFF"></path>
        <g id="areas" transform="translate(229.992813, 23.494152)">
            <path d="M142.947754,641.793866 L145.510326,641.582344 C146.032681,641.539227 146.499698,641.906744 146.580604,642.424594 L148.368215,653.866559 C148.453466,654.412224 148.080226,654.923683 147.534561,655.008934 C147.526316,655.010222 147.518055,655.011407 147.50978,655.012488 L144.751907,655.372891 C144.206824,655.444123 143.706448,655.062023 143.631632,654.51742 L142.039322,642.926575 C141.964157,642.379429 142.346774,641.874947 142.893919,641.799782 C142.911808,641.797324 142.929759,641.795352 142.947754,641.793866 Z" id="Path-134" stroke="#DCDCDC" fill="#E9E9E9"></path>
            <path d="M221.300254,742.651544 L230.419545,722.481596 C230.874597,721.475117 232.059403,721.028097 233.065882,721.483149 C233.116071,721.50584 233.165301,721.530596 233.213447,721.557351 L260.972631,736.98377 C261.93813,737.52032 263.155781,737.172588 263.692331,736.207089 C263.705128,736.184061 263.717469,736.160782 263.729347,736.137266 L271.430797,720.889529 C271.923246,719.914551 273.106843,719.514996 274.089457,719.992027 L294.206274,729.758163 C295.169471,730.225768 295.593555,731.368995 295.168333,732.351639 L276.991017,774.35749 C276.552344,775.371216 275.374943,775.837389 274.361217,775.398716 C274.290305,775.36803 274.221232,775.333261 274.154343,775.294583 L222.121485,745.206869 C221.231975,744.692515 220.876945,743.587813 221.300254,742.651544 Z" id="Path-127" stroke="#A6B493" fill="#D1E1BA"></path>
            <path d="M190.081535,759.05528 L269.37712,792.695464 C270.360901,793.112821 270.842778,794.229834 270.471309,795.231843 L263.615619,813.724547 C263.231665,814.760237 262.080815,815.288572 261.045126,814.904617 C260.98987,814.884132 260.935547,814.861215 260.882315,814.835933 L181.775512,777.265074 C180.787656,776.795903 180.359815,775.620277 180.815057,774.625926 L187.481965,760.063896 C187.932654,759.079491 189.084847,758.632448 190.081535,759.05528 Z" id="Path-128" stroke="#A6B493" fill="#D1E1BA"></path>
            <path d="M179.925739,779.266612 L259.383082,817.258153 C260.333035,817.712361 260.768119,818.825322 260.378072,819.80337 L253.915207,836.009078 C253.506041,837.035068 252.342616,837.535103 251.316625,837.125936 C251.268413,837.106709 251.220967,837.085612 251.174396,837.062693 L203.10566,813.407297 C202.839874,813.276499 202.586237,813.122341 202.347743,812.94664 L172.47635,790.940149 C171.621967,790.310718 171.407931,789.123572 171.988697,788.235392 L177.389098,779.976425 C177.93746,779.137803 179.021765,778.834388 179.925739,779.266612 Z" id="Path-129" stroke="#A6B493" fill="#D1E1BA"></path>
            <path d="M242.972711,762.158153 L264.225518,774.111977 C264.690879,774.373724 264.868531,774.954883 264.629057,775.432088 L261.229722,782.205996 C260.982011,782.699613 260.381046,782.89896 259.887429,782.651249 C259.876604,782.645817 259.865879,782.640189 259.855259,782.634367 L238.298137,770.817277 C237.817081,770.553574 237.638288,769.951545 237.897428,769.468015 L241.601078,762.557371 C241.861962,762.070588 242.468066,761.88746 242.954849,762.148344 C242.960837,762.151553 242.966791,762.154822 242.972711,762.158153 Z" id="Path-130" stroke="#F0D9E1" fill="#F7E3EA"></path>
            <path d="M206.379357,757.455183 L215.416401,745.651507 C215.74746,745.219097 215.671642,744.601279 215.245852,744.261748 L211.846146,741.550777 L211.846146,741.550777 L201.307327,754.485767 L204.933145,757.605324 C205.351802,757.965525 205.983191,757.918137 206.343393,757.49948 C206.3558,757.48506 206.367793,757.470288 206.379357,757.455183 Z" id="Path-131" stroke="#F0D9E1" fill="#F7E3EA"></path>
            <path d="M196.473794,749.162116 L206.33954,736.622843 C206.668932,736.204189 207.26869,736.117241 207.703408,736.425121 L212.197405,739.607894 C212.648105,739.927092 212.754708,740.551218 212.43551,741.001919 C212.42127,741.022025 212.406292,741.041598 212.390606,741.060598 L201.307327,754.485767 L201.307327,754.485767 L196.616576,750.546218 C196.203179,750.199025 196.139981,749.586389 196.473794,749.162116 Z" id="Path-132" stroke="#F0D9E1" fill="#F7E3EA"></path>
            <path d="M190.725771,731.219545 L187.016524,735.923735 C186.679463,736.351208 186.746253,736.969765 187.166797,737.315434 L198.496101,746.627625 L198.496101,746.627625 L203.710648,740.099464 L192.126619,731.050653 C191.692783,730.711764 191.066631,730.787255 190.725771,731.219545 Z" id="Path-133" stroke="#F0D9E1" fill="#F7E3EA"></path>
            <path d="M158.470955,753.428008 L163.941871,752.524861 C164.486781,752.434906 165.00144,752.80372 165.091395,753.34863 C165.091863,753.351467 165.092319,753.354306 165.092763,753.357147 L166.871675,764.743427 C166.956926,765.289092 166.583686,765.800551 166.03802,765.885802 C166.037053,765.885953 166.036085,765.886103 166.035117,765.886251 L160.386267,766.751794 C159.840354,766.835442 159.329994,766.460701 159.246346,765.914787 C159.245746,765.910868 159.245169,765.906945 159.244615,765.903019 L157.643636,754.554343 C157.567765,754.016523 157.935062,753.516474 158.470955,753.428008 Z" id="Path-134" stroke="#DCDCDC" fill="#E9E9E9"></path>
            <path d="M155.970955,737.573283 L161.441871,736.670136 C161.986781,736.580182 162.50144,736.948996 162.591395,737.493905 C162.591863,737.496742 162.592319,737.499581 162.592763,737.502422 L164.371675,748.888702 C164.456926,749.434367 164.083686,749.945826 163.53802,750.031077 C163.537053,750.031228 163.536085,750.031378 163.535117,750.031526 L157.886267,750.897069 C157.340354,750.980717 156.829994,750.605976 156.746346,750.060062 C156.745746,750.056143 156.745169,750.05222 156.744615,750.048294 L155.143636,738.699618 C155.067765,738.161798 155.435062,737.661749 155.970955,737.573283 Z" id="Path-134" stroke="#F0D9E1" fill="#F7E3EA"></path>
            <path d="M153.945698,712.159205 L155.535847,711.841641 C156.077437,711.733482 156.604163,712.084847 156.712323,712.626437 C156.715792,712.643806 156.718798,712.661265 156.72134,712.678794 L159.631957,732.754301 C159.70776,733.277141 159.363785,733.768746 158.846623,733.876689 L157.593921,734.138154 C157.053287,734.250996 156.52354,733.904202 156.410698,733.363568 C156.407638,733.348909 156.404908,733.334183 156.40251,733.319401 L153.154446,713.299993 C153.068256,712.768766 153.417946,712.264601 153.945698,712.159205 Z" id="Path" stroke="#F0D9E1" fill="#F7E3EA"></path>
            <path d="M134.798094,661.30592 L141.729599,701.98266 C141.821614,702.522636 142.330919,702.888094 142.871926,702.802349 L162.276615,699.726876 C162.822091,699.640423 163.194203,699.128143 163.10775,698.582667 C163.107615,698.581818 163.10748,698.580969 163.107343,698.58012 L156.542158,657.837114 C156.454433,657.292701 155.942558,656.922049 155.397956,657.00859 L135.626947,660.150328 C135.081505,660.237002 134.709601,660.749433 134.796275,661.294874 C134.796861,661.29856 134.797467,661.302242 134.798094,661.30592 Z" id="Path-2" stroke="#F0D9E1" fill="#F7E3EA"></path>
            <path d="M89.2777891,650.063403 L103.589993,647.437145 C104.676423,647.237787 105.71876,647.956902 105.918117,649.043332 C105.921448,649.061482 105.924527,649.079677 105.927354,649.097913 L112.172397,689.382302 C112.34161,690.473833 111.593924,691.495868 110.502393,691.665082 C110.499794,691.665485 110.497195,691.665882 110.494595,691.666275 L96.1584501,693.830851 C95.0702058,693.995162 94.0536988,693.249351 93.8838267,692.161961 L87.6627248,652.339254 C87.4954241,651.268324 88.2116703,650.259033 89.2777891,650.063403 Z" id="Path-3" stroke="#A6B493" fill="#D1E1BA"></path>
            <path d="M78.6812149,651.410784 L83.5285231,650.700647 C84.6102017,650.54218 85.6186963,651.281603 85.7928813,652.360862 L91.9729397,690.652828 C92.1484341,691.740201 91.4117162,692.764802 90.3250548,692.944649 L85.1731813,693.797304 C84.0834358,693.977661 83.0538143,693.240456 82.8734572,692.150711 C82.872116,692.142607 82.8708247,692.134495 82.8695834,692.126375 L76.9940902,653.69189 C76.8271734,652.600005 77.5770081,651.579545 78.668893,651.412628 C78.6729984,651.412001 78.6771057,651.411386 78.6812149,651.410784 Z" id="Path-4" stroke="#74A3A9" fill="#AADBE2"></path>
            <path d="M62.8521152,549.129371 L77.4892108,546.846085 C78.5797129,546.675974 79.6018839,547.421394 79.7732222,548.511704 L94.944378,645.053251 C95.1158528,646.144429 94.3702857,647.168012 93.2791073,647.339487 C93.2668757,647.341409 93.2546266,647.343217 93.2423614,647.344912 L78.6333198,649.363422 C77.5540313,649.512546 76.5539516,648.770334 76.3840498,647.694121 L61.1848399,551.41735 C61.0125948,550.326293 61.757439,549.302184 62.848496,549.129939 C62.8497023,549.129748 62.8509087,549.129559 62.8521152,549.129371 Z" id="Path-5" stroke="#A6B493" fill="#D1E1BA"></path>
            <path d="M91.4091049,546.231625 L103.903382,544.281547 C104.992408,544.111575 106.013677,544.854726 106.186939,545.943233 L110.772409,574.751118 C110.946324,575.84191 110.202784,576.866966 109.111947,577.040599 C109.111853,577.040614 109.111759,577.040629 109.11162,577.040362 L96.3599135,579.068235 C95.2690517,579.241712 94.2441025,578.498025 94.0706253,577.407163 C94.0696861,577.401257 94.0687734,577.395347 94.0678872,577.389433 L89.7396082,548.504079 C89.5766278,547.416408 90.3224464,546.401229 91.4091049,546.231625 Z" id="Path-6" stroke="#D4BA7B" fill="#FFD486"></path>
            <path d="M53.064379,460.336627 L82.7535396,455.580054 C83.842593,455.405574 84.867332,456.145676 85.0440817,457.234363 L97.4604738,533.71297 C97.6374844,534.803264 96.8971218,535.830618 95.8068278,536.007628 C95.8029634,536.008256 95.7990973,536.008872 95.7952293,536.009476 L66.1106854,540.650051 C65.0241302,540.819912 64.0042853,540.080634 63.827722,538.995148 L51.4067131,462.632539 C51.2293764,461.542298 51.9694316,460.514724 53.0596726,460.337387 C53.0612411,460.337132 53.0628099,460.336879 53.064379,460.336627 Z" id="Path-7" stroke="#74A3A9" fill="#AADBE2"></path>
            <path d="M38.2439116,461.907787 L42.4354868,461.146453 C43.5222747,460.949055 44.563313,461.670048 44.760711,462.756836 C44.7634798,462.77208 44.7660715,462.787356 44.7684853,462.802661 L52.6586737,512.827911 C52.8307636,513.918993 52.0857737,514.942995 50.9946922,515.115085 C50.9938418,515.115219 50.9929914,515.115353 50.9921409,515.115486 L46.4367731,515.82795 C45.3454703,515.998631 44.3224304,515.252319 44.1517495,514.161017 C44.1511656,514.157283 44.1505922,514.153548 44.1500295,514.149811 L36.6236337,464.17343 C36.4626433,463.10443 37.1802596,462.100983 38.2439116,461.907787 Z" id="Path-8" stroke="#A6B493" fill="#D1E1BA"></path>
            <path d="M142.776559,448.036453 L157.216637,550.274899 C157.371112,551.368614 158.38297,552.130017 159.476684,551.975542 C159.501797,551.971995 159.52684,551.967971 159.551799,551.963472 L173.481325,549.452419 C174.315485,549.302047 174.964268,548.642191 175.100504,547.805606 L185.669249,482.906084 C185.700504,482.714156 185.720536,482.520568 185.729243,482.326307 L188.00687,431.509137 C188.056327,430.405676 187.201888,429.47105 186.098426,429.421593 C185.816413,429.408953 185.534919,429.456158 185.272457,429.560101 L144.020485,445.897265 C143.161533,446.237439 142.647356,447.121673 142.776559,448.036453 Z" id="Path-9" stroke="#A6B493" fill="#D1E1BA"></path>
            <path d="M142.351672,317.143246 C153.482567,318.709509 161.148932,321.578784 165.350769,325.751072 C172.157684,332.510118 174.378752,335.592646 175.998657,350.797104 C177.618563,366.001562 174.616662,374.607258 170.910507,385.446461 C168.574944,392.277164 160.047562,410.911144 157.507187,409.803097 C155.662044,409.803097 154.074556,397.652375 149.997429,374.270847 C148.403184,365.128164 145.105884,346.865551 140.105528,319.483008 L140.105536,319.483007 C139.907112,318.39641 140.627117,317.354695 141.713713,317.156271 C141.924299,317.117816 142.139693,317.113418 142.351672,317.143246 Z" id="Path-10" stroke="#A6B493" fill="#D1E1BA"></path>
            <path d="M144.717864,426.314456 L149.038878,424.977119 C150.471656,424.533679 151.356797,423.100238 151.111506,421.620601 L135.806908,329.300732 L135.806908,329.300732 C135.615181,327.947522 135.240061,327.270918 134.681549,327.270918 C134.123037,327.270918 133.737789,327.607925 133.525806,328.28194 L124.656258,369.730177 C124.102582,372.317557 124.067818,374.989085 124.553979,377.589996 L131.1964,413.126229 C131.442035,414.440347 132.013077,415.671957 132.857347,416.708515 L139.362781,424.695606 C140.650647,426.276793 142.769732,426.917396 144.717864,426.314456 Z" id="Path-11" stroke="#A6B493" fill="#D1E1BA"></path>
            <path d="M181.63052,343.976633 L186.472269,342.360799 C186.986656,342.189133 187.270487,341.638769 187.112095,341.120141 L184.158908,331.450407 C183.997903,330.922111 183.43894,330.624692 182.910739,330.786007 C182.910636,330.786039 182.910533,330.78607 182.910524,330.786411 L178.124454,332.249796 C177.600001,332.410152 177.30255,332.962988 177.457705,333.489004 L180.354808,343.310974 C180.511056,343.840696 181.067144,344.143456 181.596865,343.987209 C181.608145,343.983882 181.619365,343.980356 181.63052,343.976633 Z" id="Path-12" stroke="#DCDCDC" fill="#E9E9E9"></path>
            <path d="M205.63028,365.092589 L217.260102,360.505063 C217.77386,360.302404 218.026057,359.721634 217.823398,359.207875 C217.821406,359.202824 217.819373,359.19779 217.817299,359.192773 L209.179898,338.29957 C208.972792,337.798596 208.404231,337.553866 207.898011,337.747798 L206.979037,338.099855 C206.476031,338.292556 205.910774,338.052214 205.700575,337.556266 L194.830052,311.908167 C194.615432,311.401788 194.032176,311.163765 193.52454,311.375396 L191.103772,312.384603 C190.60235,312.593644 190.025754,312.364133 189.805144,311.867692 L189.009827,310.077979 C188.78555,309.573283 188.1946,309.345959 187.689904,309.570237 C187.68289,309.573354 187.675912,309.576552 187.668971,309.579829 L185.671269,310.523235 C185.17187,310.759073 184.575843,310.545416 184.340005,310.046018 C184.326486,310.01739 184.314334,309.988137 184.30359,309.958357 L183.456078,307.6092 C183.268653,307.08969 182.695569,306.820482 182.176059,307.007907 C182.154705,307.015611 182.13362,307.02404 182.112839,307.033179 L180.006786,307.959416 C179.527436,308.170233 178.966627,307.975546 178.721018,307.513056 L177.612908,305.426453 C177.367414,304.964181 176.806986,304.769425 176.327727,304.979835 L169.098734,308.153591 C168.838248,308.267952 168.541383,308.265955 168.282459,308.148099 L144.823886,297.470287 C144.331283,297.246066 143.749691,297.454454 143.51158,297.940496 L140.692152,303.695632 C140.449179,304.191599 140.654271,304.790627 141.150238,305.0336 C141.15456,305.035718 141.158898,305.037804 141.163251,305.039859 L164.374648,315.998319 C164.594861,316.102284 164.769568,316.283033 164.865991,316.506651 L166.851828,321.112085 C167.067521,321.612306 167.643909,321.847865 168.14821,321.641892 L173.237744,319.563156 C173.749027,319.354331 174.33279,319.599521 174.541616,320.110805 C174.549002,320.128889 174.555856,320.147185 174.562171,320.165671 L175.238128,322.144564 C175.416651,322.6672 175.985053,322.946158 176.507688,322.767634 C176.5211,322.763053 176.534412,322.758187 176.547617,322.75304 L184.832194,319.52381 C185.345188,319.323851 185.923313,319.57619 186.125501,320.088309 L194.191602,340.518842 C194.334785,340.881508 194.185931,341.294065 193.844173,341.48176 C193.503249,341.668998 193.356534,342.081845 193.502848,342.442234 L195.034024,346.213718 C195.214739,346.658842 195.722081,346.873188 196.167205,346.692473 C196.172114,346.69048 196.177005,346.688442 196.181877,346.686359 C196.622607,346.497976 197.132605,346.702544 197.320988,347.143274 C197.323328,347.148748 197.325611,347.154246 197.327838,347.159767 L204.335918,364.536378 C204.541377,365.045815 205.119291,365.294155 205.63028,365.092589 Z" id="Path-13" stroke="#979797" fill="#E9E9E9"></path>
            <polygon id="Path-15" stroke="#A6B493" fill="#D1E1BA" points="24.2724152 346.49065 57.3172455 349.500881 57.3172455 327.270918 78.5954437 257.887318 56.02005 251.101921"></polygon>
            <path d="M39.748662,452.818553 L66.8031269,448.663913 C67.8803942,448.498481 68.6268693,447.500967 68.4817444,446.420776 L57.3172455,363.321431 L57.3172455,363.321431 L57.3172455,349.500881 L24.2724152,346.49065 L37.4607988,451.09191 C37.5989717,452.187804 38.59938,452.964189 39.6952733,452.826016 C39.7131022,452.823768 39.7309001,452.82128 39.748662,452.818553 Z" id="Path-14" stroke="#656565" fill="#B3B3B3"></path>
            <g id="coal" transform="translate(38.007187, 390.505848)" fill="#4C4C4C">
                <path d="M3,3.21533203 C3,3.21533203 3.62792969,2.14355469 4.88378906,0 L6.4309082,4.3125 L4.88378906,5 C3.62792969,3.81022135 3,3.21533203 3,3.21533203 Z" id="Path-180"></path>
                <path d="M0,7.20263672 C0,7.20263672 0.582356771,6.13509115 1.74707031,4 L4.296875,6 L2.1484375,8.21777344 C0.716145833,7.54101563 0,7.20263672 0,7.20263672 Z" id="Path-180"></path>
                <path d="M3.7800293,8.63671875 C3.7800293,8.63671875 4.93277995,7.45825195 7.23828125,5.10131836 L9.00146484,7.63671875 L6.74707031,8.63671875 C4.76904297,8.63671875 3.7800293,8.63671875 3.7800293,8.63671875 Z" id="Path-180"></path>
                <path d="M9.39111328,5.20263672 C9.39111328,5.20263672 10.1368001,4.80175781 11.6281738,4 L13.9404297,5.20263672 L13.2617188,7.25048828 L11.390625,8.20263672 C10.0576172,6.20263672 9.39111328,5.20263672 9.39111328,5.20263672 Z" id="Path-180"></path>
                <path d="M7,3 C7,3 7.18969727,2 7.5690918,0 L10.8850098,2.5 L8.72192383,4 C7.57397461,3.33333333 7,3 7,3 Z" id="Path-180"></path>
            </g>
            <rect id="Rectangle" stroke="#FFFFFF" fill-opacity="0.4" fill="#FFFFFF" opacity="0.804645357" x="47.5071869" y="290.005848" width="11" height="11" rx="3"></rect>
            <path d="M56.02005,251.101921 L69.0849382,212.646386 C69.4402585,211.600527 70.5761389,211.040734 71.621998,211.396055 C71.6363391,211.400927 71.6506244,211.405962 71.6648512,211.411159 L88.5766154,217.588739 C89.5687621,217.951153 90.1080369,219.02261 89.8080328,220.035377 L78.5954437,257.887318 L78.5954437,257.887318 L56.02005,251.101921 Z" id="Path-16" stroke="#A6B493" fill="#D1E1BA"></path>
            <path d="M86.2475004,443.81769 L80.5304681,384.236913 C80.4272773,383.161497 80.4405706,382.07808 80.5701168,381.005519 L90.5102539,298.707443 L90.5102539,298.707443 L76.5247955,297.067602 L69.0359172,326.134353 C68.8409955,326.890907 68.7054781,327.661533 68.630602,328.439197 L65.6994006,358.882722 C65.5844195,360.076918 65.6131217,361.280596 65.7848918,362.467954 L77.7276599,445.022133 C77.885807,446.115323 78.9002158,446.873324 79.9934053,446.715177 C80.0031698,446.713765 80.0129236,446.71228 80.0226661,446.710723 L84.5722561,445.983661 C85.6148541,445.817046 86.3483484,444.86869 86.2475004,443.81769 Z" id="Path-17" stroke="#A6B493" fill="#D1E1BA"></path>
            <path d="M76.5247955,297.067602 L90.5102539,298.707443 L97.3342354,249.949031 C97.4756368,248.938697 96.8339328,247.983864 95.8450368,247.733156 L92.4087674,246.861982 C91.3538815,246.594544 90.2787675,247.219632 89.9893129,248.26869 L76.5247955,297.067602 L76.5247955,297.067602 Z" id="Path-18" stroke="#A6B493" fill="#D1E1BA"></path>
            <path d="M143.020905,205.581135 L149.873657,203.602268 L155.721968,223.349807 C155.878796,223.879357 155.576646,224.435777 155.047096,224.592605 C154.954912,224.619906 154.859274,224.63377 154.763133,224.63377 L150.904451,224.63377 C150.352166,224.63377 149.904451,225.081485 149.904451,225.63377 C149.904451,225.643878 149.904604,225.653986 149.90491,225.66409 L150.542432,246.681171 C150.559177,247.233202 150.125242,247.694286 149.573211,247.711031 C149.563107,247.711337 149.553,247.711491 149.542891,247.711491 L144.020905,247.711491 C143.46862,247.711491 143.020905,247.263775 143.020905,246.711491 L143.020905,223.418217 C143.020905,222.865932 143.46862,222.418217 144.020905,222.418217 L145.681508,222.418217 C146.233793,222.418217 146.681508,221.970501 146.681508,221.418217 C146.681508,221.341882 146.672768,221.265798 146.655458,221.191452 L143.020905,205.581135 L143.020905,205.581135 Z" id="Path-19" stroke="#F0D9E1" fill="#F7E3EA"></path>
            <path d="M126.161032,162.100582 L136.451897,158.798735 L136.451897,158.798735 L149.873657,203.602268 L139.79124,206.667007 C139.263367,206.827463 138.705275,206.530083 138.544057,206.002443 L125.51019,163.344981 C125.350394,162.822 125.640328,162.267651 126.161032,162.100582 Z" id="Path-20" stroke="#DCDCDC" fill="#E9E9E9"></path>
            <path d="M142.133158,285.905289 L156.474461,289.598025 C157.0093,289.735741 157.554513,289.413808 157.692229,288.878969 C157.69757,288.858225 157.702243,288.837316 157.706242,288.816272 L158.395373,285.189222 C158.493857,284.670878 158.172687,284.165201 157.661648,284.033983 L143.363359,280.362646 C142.828427,280.225292 142.283432,280.547594 142.146079,281.082526 C142.14185,281.098995 142.138042,281.115569 142.134658,281.132232 L141.402513,284.737883 C141.296607,285.259447 141.617762,285.77258 142.133158,285.905289 Z" id="Path-21" stroke="#DCDCDC" fill="#E9E9E9"></path>
            <path d="M148.140366,265.6763 L150.668304,265.6763 C151.220589,265.6763 151.668304,266.124015 151.668304,266.6763 L151.668304,272.820866 C151.668304,273.37315 151.220589,273.820866 150.668304,273.820866 L148.140366,273.820866 C147.588081,273.820866 147.140366,273.37315 147.140366,272.820866 L147.140366,266.6763 C147.140366,266.124015 147.588081,265.6763 148.140366,265.6763 Z" id="Path-22" stroke="#DCDCDC" fill="#E9E9E9"></path>
            <path d="M129.101368,230.842815 L131.876171,230.842815 C132.428456,230.842815 132.876171,231.290531 132.876171,231.842815 L132.876171,247.373325 C132.876171,247.92561 132.428456,248.373325 131.876171,248.373325 L129.101368,248.373325 C128.549083,248.373325 128.101368,247.92561 128.101368,247.373325 L128.101368,231.842815 C128.101368,231.290531 128.549083,230.842815 129.101368,230.842815 Z" id="Path-23" stroke="#C5AAE6" fill="#D9BDFA"></path>
            <polygon id="Path-135" stroke="#DCDCDC" fill="#E9E9E9" points="136.451897 158.798735 128.945518 134.283403 122.253616 136.473059 129.352757 160.872284"></polygon>
            <path d="M115.144501,125.419605 L125.222023,122.424206 L128.945518,134.283403 L119.826802,137.141358 C119.299795,137.30653 118.738672,137.013205 118.5735,136.486198 C118.573176,136.485165 118.572853,136.48413 118.572533,136.483096 L115.144501,125.419605 L115.144501,125.419605 Z" id="Path-136" stroke="#DCDCDC" fill="#E9E9E9"></path>
            <polygon id="Path-137" stroke="#DCDCDC" fill="#E9E9E9" points="115.144501 125.419605 110.223862 112.088387 119.759949 107.54863 125.222023 122.424206"></polygon>
            <polygon id="Path-138" stroke="#DCDCDC" fill="#E9E9E9" points="110.223862 112.088387 119.759949 107.54863 104.946014 75.3081551 95.0812149 79.6537819"></polygon>
            <path d="M95.0812149,79.6537819 L104.946014,75.3081551 L93.780014,51.1719112 L84.8357268,55.1731363 C84.3315877,55.3986628 84.1057275,55.9901736 84.3312541,56.4943127 C84.3331505,56.4985519 84.3350764,56.5027779 84.3370316,56.5069902 L95.0812149,79.6537819 L95.0812149,79.6537819 Z" id="Path-139" stroke="#DCDCDC" fill="#E9E9E9"></path>
            <path d="M93.780014,51.1719112 L87.4194641,37.4321327 L81.6388462,39.865805 C81.1298325,40.0801027 80.8909179,40.6664624 81.1052155,41.1754761 C81.11046,41.1879332 81.1159565,41.2002827 81.1217017,41.212517 L87.2295303,54.2190971 L87.2295303,54.2190971 L93.780014,51.1719112 Z" id="Path-140" stroke="#DCDCDC" fill="#E9E9E9"></path>
            <path d="M32.1288197,23.1512323 L49.515362,15.035304 C50.5162555,14.5680932 51.7063892,15.0007285 52.1736,16.0016221 C52.1753404,16.0053504 52.1770692,16.009084 52.1787865,16.012823 L56.7559415,25.9783532 C57.2169662,26.9821111 56.776994,28.1695521 55.773236,28.6305768 C55.7725902,28.6308734 55.7719442,28.6311697 55.7712981,28.6314656 L38.3655076,36.6034642 C37.3648066,37.0617937 36.1818448,36.6254085 35.7185188,35.627011 L31.160612,25.8054105 C30.6963794,24.8050593 31.1295104,23.6177036 32.1288197,23.1512323 Z" id="Path-141" stroke="#A6B493" fill="#D1E1BA"></path>
            <path d="M8.81441736,8.63979859 L15.8594875,23.960274 C16.3209663,24.9638233 17.5086062,25.4032582 18.5121554,24.9417794 C18.5223222,24.9371042 18.5324496,24.9323438 18.5425365,24.9274986 L27.6783132,20.5392066 C28.6687183,20.063474 29.0898958,18.8778669 28.6215775,17.8839344 L21.5079362,2.78634095 C21.040333,1.79392604 19.8605647,1.36342968 18.8636953,1.82145992 L9.79618338,5.98769775 C8.79222962,6.44829629 8.3524241,7.63579899 8.8135897,8.63949221 C8.81367657,8.63968126 8.81376346,8.63987029 8.81441736,8.63979859 Z" id="Path-142" stroke="#A6B493" fill="#D1E1BA"></path>
            <path d="M1.0411997,8.57886468 L4.43300831,6.99768832 C4.93357371,6.76433725 5.52853057,6.98095727 5.76188164,7.48152267 C5.76271276,7.48330553 5.76353863,7.48509083 5.76435921,7.48687857 L12.05612,21.1940904 C12.2851702,21.6930987 12.0690371,22.2834541 11.5719353,22.5166132 L8.20200255,24.0972357 C7.70198651,24.3317616 7.1065226,24.1165394 6.87199667,23.6165234 C6.8710176,23.614436 6.87004576,23.6123452 6.86908116,23.6102511 L0.555444564,9.90359299 C0.325128783,9.40358644 0.542250544,8.8114623 1.0411997,8.57886468 Z" id="Path-143" stroke="#DCDCDC" fill="#E9E9E9"></path>
            <path d="M37.1188804,39.0962916 L57.4093773,29.8010572 C57.9081183,29.5725801 58.4978158,29.7885582 58.7310135,30.2851095 L67.0119187,47.9177646 C67.2466895,48.4176657 67.031759,49.013235 66.5318579,49.2480058 C66.5304136,49.2486841 66.5289676,49.249359 66.52752,49.2500304 L46.0294848,58.7571156 C45.5284655,58.9894907 44.933932,58.7717116 44.7015569,58.2706923 C44.7002382,58.2678491 44.6989328,58.2649996 44.6976409,58.262144 L36.624274,40.4176381 C36.3973769,39.916129 36.6184442,39.3255453 37.1188804,39.0962916 Z" id="Path-144" stroke="#DCDCDC" fill="#E9E9E9"></path>
            <path d="M20.7213324,55.9314864 L24.1732664,54.5664304 C24.6662528,54.3714805 25.2257066,54.5951255 25.4484509,55.0761931 L37.0328607,80.0953908 C37.264324,80.595289 37.047898,81.1882361 36.5488335,81.4214913 L33.3106123,82.9349868 C32.8106842,83.1686456 32.2159761,82.9531704 31.9817447,82.4535104 L20.1836221,57.2858733 C19.9492008,56.7858081 20.1645477,56.1903893 20.6646128,55.955968 C20.6832627,55.9472253 20.7021783,55.9390609 20.7213324,55.9314864 Z" id="Path-145" stroke="#DCDCDC" fill="#E9E9E9"></path>
            <path d="M53.5608303,71.9317356 L67.2833598,65.8104219 C67.7790686,65.5892973 68.3606658,65.8039903 68.5938031,66.294164 L79.2882273,88.7793005 C79.5247438,89.2765788 79.3147282,89.8714941 78.8184389,90.110079 L64.9730767,96.7660663 C64.4753225,97.0053554 63.8778309,96.7958282 63.6385418,96.2980741 C63.6359986,96.2927839 63.6335021,96.2874715 63.6310524,96.2821374 L53.059461,73.2623274 C52.8289735,72.7604371 53.0489889,72.1667275 53.5508792,71.9362399 C53.554188,71.9347204 53.5575051,71.9332189 53.5608303,71.9317356 Z" id="Path-146" stroke="#DCDCDC" fill="#E9E9E9"></path>
            <path d="M38.441475,98.7635501 L50.9131857,91.4353397 C51.8645329,90.8740769 53.090183,91.1924686 53.649763,92.1448047 C53.6500928,92.145366 53.6504223,92.1459274 53.6490676,92.1474762 L76.808387,131.650041 C77.2232195,132.357616 77.4105051,133.175613 77.3448671,133.993194 L74.8258747,165.369514 C74.7919294,165.792333 74.7043176,166.209114 74.5651503,166.609815 L71.8430624,174.447443 C71.5243545,175.36509 70.5923467,175.921029 69.6334686,175.765458 L64.4163129,174.91901 C63.7555672,174.811809 63.1922611,174.381161 62.9155264,173.771657 L59.8407438,166.999498 C59.4145073,166.060719 59.7717586,164.951756 60.6658274,164.438312 L63.4213906,162.855853 C64.3710216,162.310501 64.7054907,161.102855 64.1717266,160.146662 L56.452144,146.317696 C55.9531264,145.423749 55.6911545,144.416981 55.6911545,143.393184 L55.6911545,136.752658 C55.6911545,135.769665 55.4496391,134.801728 54.9878455,133.933959 L37.6891205,101.427474 C37.1856285,100.481349 37.5174318,99.3065056 38.441475,98.7635501 Z" id="Path-147" stroke="#A6B493" fill="#D1E1BA"></path>
            <path d="M110.633653,153.43365 L112.158139,153.092623 C112.697103,152.972058 113.231758,153.311236 113.352324,153.8502 C113.353835,153.856957 113.355277,153.863729 113.356647,153.870515 L114.308289,158.581906 C114.417635,159.123258 114.067425,159.650753 113.526073,159.760099 C113.519132,159.761501 113.512177,159.762829 113.505208,159.764083 L111.952025,160.043609 C111.415331,160.140197 110.900203,159.788991 110.794036,159.25411 L109.871092,154.60422 C109.765398,154.071726 110.103864,153.552163 110.633653,153.43365 Z" id="Path-148" stroke="#DCDCDC" fill="#E9E9E9"></path>
            <g id="Group" transform="translate(52.970673, 468.578007)" stroke="#74A3A9" stroke-dasharray="1,1" stroke-width="0.5">
                <line x1="0" y1="5.46365356" x2="33.9171906" y2="0" id="Path-24"></line>
                <line x1="2.32243347" y1="18.8029175" x2="35.9537048" y2="13.4278412" id="Path-24"></line>
                <line x1="4.03651428" y1="32.3914948" x2="37.9537048" y2="26.9278412" id="Path-24"></line>
                <line x1="7.03651428" y1="45.3914948" x2="40.9537048" y2="39.9278412" id="Path-24"></line>
                <line x1="10.0365143" y1="58.3914948" x2="43" y2="53.1473236" id="Path-24"></line>
            </g>
        </g>
        <g id="ships" transform="translate(182.305260, 239.271850)" fill="#FFFFFF" fill-opacity="0.25" stroke="#979797" stroke-dasharray="1,1" stroke-width="0.5">
            <path d="M276.574972,597.479991 C276.758412,599.149486 276.758412,601.407429 276.574972,604.253817 C276.391531,607.100206 275.94462,609.637416 275.234237,611.865447 C273.041512,618.678537 270.455765,626.446298 267.476995,635.168729 C265.169352,641.925967 258.737358,660.545254 258.737358,660.545254 C256.723167,665.181 254.488748,668.565053 252.034102,670.697414 C251.767952,670.928588 251.399746,671.002566 251.064968,670.892107 L246.414351,669.357645 C246.015189,669.225895 245.740996,668.858607 245.728193,668.438459 C245.573321,663.356102 245.956182,659.283103 246.876778,656.219461 C247.839312,653.016252 253.134674,636.817604 262.762865,607.623517 C263.883259,604.639173 264.987905,602.340784 266.076802,600.728351 C267.165699,599.115918 268.58262,597.425848 270.327566,595.65814 C271.832632,594.048804 273.199153,593.445935 274.42713,593.849535 C275.655107,594.253134 276.371054,595.463286 276.574972,597.479991 Z" id="Path-150" transform="translate(261.203646, 632.397080) rotate(-80.000000) translate(-261.203646, -632.397080) "></path>
            <path d="M79.7649175,155.878589 C80.0783608,158.857601 80.0783608,162.886624 79.7649175,167.965659 C79.4514742,173.044693 78.6878382,177.572035 77.4740095,181.547685 C73.7273109,193.704815 69.3090558,207.56544 64.2192441,223.129557 C60.2761844,235.187026 49.2858654,268.410878 49.2858654,268.410878 C45.7592795,276.886969 41.8375875,283.017952 37.5207896,286.803828 C37.2509624,287.040499 36.8749916,287.114395 36.5356556,286.997472 L27.7483631,283.969702 C27.3563612,283.83465 27.0883673,283.4717 27.0746601,283.057313 C26.7660051,273.726277 27.4143663,266.271182 29.0197436,260.692026 C30.6644215,254.97629 39.7125839,226.071774 56.1642308,173.978478 C58.0786443,168.653278 59.9661477,164.552083 61.8267409,161.674892 C63.6873341,158.797702 66.1084213,155.781977 69.0900027,152.627719 C71.6617018,149.756053 73.9966707,148.680307 76.0949095,149.400482 C78.1931482,150.120656 79.4164842,152.280026 79.7649175,155.878589 Z" id="Path-150" transform="translate(53.500000, 218.183886) rotate(-25.000000) translate(-53.500000, -218.183886) "></path>
            <path d="M90.4360879,5.5662049 C90.7082384,8.04305686 90.7082384,11.3929244 90.4360879,15.6158074 C90.1639374,19.8386904 89.5009023,23.6028773 88.4469827,26.908368 C85.1938719,37.0162219 81.357675,48.5404185 76.938392,61.4809579 C73.5147886,71.5059493 63.9723275,99.1293954 63.9723275,99.1293954 C60.9240546,106.145123 57.5357947,111.228486 53.8075479,114.379484 C53.5419983,114.603956 53.1789054,114.674348 52.8487022,114.565398 L45.3690311,112.097495 C44.9708867,111.96611 44.6969605,111.600319 44.6829405,111.181291 C44.425329,103.481846 44.9896996,97.3253086 46.3760522,92.7116784 C47.8040612,87.9594201 55.6602242,63.9272177 69.9445412,20.6150712 C71.6067511,16.1875178 73.2455959,12.7776439 74.8610757,10.3854493 C76.4765555,7.99325468 78.5786902,5.48587833 81.1674798,2.86332022 C83.4003849,0.475719008 85.4277464,-0.418692715 87.2495644,0.180085056 C89.0713825,0.778862827 90.133557,2.57423611 90.4360879,5.5662049 Z" id="Path-150"></path>
        </g>
        <g id="rails" transform="translate(245.380127, 0.000000)">
            <path d="M25.0985335,539.632904 C12.1953895,432.363791 5.61108974,377.571133 5.34563429,375.254929 C4.94745112,371.780622 4.94745112,369.984802 5.34563429,368.259178 C5.61108974,367.108762 5.9359341,365.871638 6.32016737,364.547806 C40.77072,262.821673 58.8518612,208.892324 60.5635908,202.759758 C62.2753205,196.627192 63.5303381,181.281432 64.3286436,156.722477 C66.5434888,134.813398 67.5036633,118.18993 67.2091673,106.852074 C66.9146713,95.5142171 65.1977473,83.0034482 62.0583952,69.319767 L45.3882139,2.27373675e-13" id="Path-151" stroke="#919191" stroke-width="2"></path>
            <path d="M20.9473417,539.632904 L1.24139006,378.601669 C0.919536647,374.006839 0.919536647,370.620741 1.24139006,368.443375 C1.56324347,366.266008 2.41245739,363.143185 3.78903181,359.074905 C39.3931799,255.001063 57.8337214,200.99922 59.1106566,197.069374 C60.3875917,193.139529 61.7534161,187.462343 63.2081297,180.037818" id="Path-152" stroke="#919191" stroke-width="2"></path>
            <path d="M67.2610103,120.701187 C68.3971519,137.721396 69.8656268,151.66867 71.6664351,162.543007 C73.4672434,173.417344 76.1430653,185.745899 79.6939009,199.528671 C82.454413,207.172316 83.2882423,214.169102 82.1953886,220.519028 C81.102535,226.868954 78.3555613,237.681423 73.9544676,252.956436 C56.7344036,310.490965 47.4153016,342.354003 45.9971617,348.545547 C43.8699518,357.832865 44.3619536,375.45349 44.3619536,383.721115 C44.3619536,389.232864 47.3598936,411.573746 53.3557738,450.743759" id="Path-153" stroke="#919191" stroke-width="2"></path>
            <path d="M79.0902403,234.203323 C77.7093097,246.347069 75.9547423,256.434491 73.8265379,264.465591 C71.6983336,272.496691 67.4686481,287.622251 61.1374815,309.84227 C54.1177621,333.512719 50.2213158,347.139886 49.4481428,350.72377 C48.2883833,356.099596 48.1084974,376.816924 48.1084974,383.721115 C48.1084974,388.323908 51.0865629,410.423731 57.0426939,450.020584" id="Path-154" stroke="#919191" stroke-width="2"></path>
            <path d="M69.3469694,145.918358 C71.382073,154.319514 73.1397075,160.983078 74.6198729,165.90905 C76.8401209,173.298008 78.3469694,176.602715 82.6603052,190.52829 C86.9736479,204.453865 88.5324052,210.760174 89.4632109,222.43531 C90.083748,230.218735 89.3469977,243.774372 87.25296,263.102222 L72.5811728,386.815583 C70.9489954,399.34783 70.2493481,409.332229 70.482231,416.76878 C70.7151138,424.205331 72.0943278,435.921252 74.6198729,451.916544 L97.8834913,590.186417" id="Path-155" stroke="#919191" stroke-width="2"></path>
            <path d="M64.3286436,81.052887 C66.2248711,89.7133185 67.622917,95.6297919 68.5227812,98.8023071 C69.8725776,103.56108 71.2259138,105.716194 73.2437285,110.711143 C75.2615431,115.706093 76.2268315,118.215591 79.6939009,131.042782 C83.1609703,143.869973 83.8365832,147.320395 89.5587004,171.071996 C93.3734452,186.906396 97.1478592,202.879392 100.881943,218.990982" id="Path-156" stroke="#919191" stroke-width="2"></path>
            <path d="M71.5005491,395.543473 C71.5300643,402.842696 71.7797921,409.083282 72.2497328,414.265232 C72.9546438,422.038157 73.6459158,428.606377 78.5370634,451.916544 C81.7978285,467.456656 89.2831165,510.771136 100.992927,581.859985 C101.844061,587.713301 102.091698,592.668122 101.73584,596.724449 C101.379981,600.780776 100.396061,606.536303 98.7840803,613.991028 C97.6564813,622.744965 97.0926817,628.890868 97.0926817,632.428738 C97.0926817,635.966607 97.0926817,642.912048 97.0926817,653.26506 C97.1163399,672.554429 97.6801395,687.271987 98.7840803,697.417732 C100.439992,712.636351 102.601242,728.093376 106.853287,742.969696 C111.105331,757.846016 112.892334,765.248833 118.498268,775.854725 C122.235557,782.92532 129.734836,792.343931 140.996105,804.110558 C151.61853,815.603497 162.769675,825.337073 174.449539,833.311287 C186.129403,841.285501 206.160091,853.132216 234.541603,868.851433" id="Path-157" stroke="#919191" stroke-width="2"></path>
            <path d="M236.826752,865.292793 C216.690196,855.530668 201.437905,847.952536 191.069877,842.558395 C180.70185,837.164255 174.468935,833.564348 172.371132,831.758675" id="Path-158" stroke="#919191" stroke-width="2"></path>
            <path d="M71.8422163,107.39513 C74.08451,116.507241 75.682535,123.529258 76.6362913,128.461182 C78.0669258,135.859067 78.3927,139.97827 79.6939009,145.918358 C80.5613681,149.878417 82.3304747,157.073363 85.0012205,167.503197 L90.4892805,195.33493 C92.8393845,206.637004 94.1075348,216.145793 94.2937315,223.861298 C94.4799282,231.576802 93.7264403,243.394277 92.0332678,259.313721 C84.2600719,331.126789 79.9457294,371.117257 79.0902403,379.285126 C77.8070067,391.536929 76.6362913,398.266548 76.6362913,406.317917 C76.6362913,411.685496 78.9626044,425.053253 83.6152304,446.421188 L107.769424,572.195633 C109.356101,578.751091 110.677721,588.978988 111.734283,602.879326 C112.790846,616.779664 113.903501,638.577558 115.07225,668.27301" id="Path-159" stroke="#919191" stroke-width="2"></path>
            <path d="M76.9276579,400.785726 C77.1837236,405.121744 77.9045844,409.506167 79.0902403,413.938995 C80.2758962,418.371823 82.7518891,424.840363 86.5182188,433.344614 C88.2645981,437.474427 89.7211868,442.319557 90.8879851,447.880005 C92.0547833,453.440452 93.5221524,462.52962 95.2900923,475.147507 L111.092193,562.430069 C113.095833,576.987689 114.422519,586.840172 115.07225,591.987518 C115.721981,597.134865 118.259665,620.270958 122.685303,661.395798" id="Path-160" stroke="#919191" stroke-width="2"></path>
            <path d="M86.2202757,313.358093 C86.2202757,317.715246 86.2202757,323.898893 86.2202757,331.909035 C86.2202757,339.919177 88.6325949,370.384394 93.4572333,423.304687 C94.328697,431.61937 95.144451,438.182525 95.9044951,442.994152 C96.6645392,447.805779 97.9652009,455.494054 99.8064802,466.058975 L135.224365,661.395798" id="Path-161" stroke="#919191" stroke-width="2"></path>
            <g id="Group-2" transform="translate(0.969873, 0.000000)" stroke="#EAEAEA" stroke-dasharray="3,5" stroke-linecap="round">
                <path d="M24.0985335,539.632904 C11.1953895,432.363791 4.61108974,377.571133 4.34563429,375.254929 C3.94745112,371.780622 3.94745112,369.984802 4.34563429,368.259178 C4.61108974,367.108762 4.9359341,365.871638 5.32016737,364.547806 C39.77072,262.821673 57.8518612,208.892324 59.5635908,202.759758 C61.2753205,196.627192 62.5303381,181.281432 63.3286436,156.722477 C65.5434888,134.813398 66.5036633,118.18993 66.2091673,106.852074 C65.9146713,95.5142171 64.1977473,83.0034482 61.0583952,69.319767 L44.3882139,2.27373675e-13" id="Path-151"></path>
                <path d="M19.9473417,539.632904 L0.241390058,378.601669 C-0.0804633526,374.006839 -0.0804633526,370.620741 0.241390058,368.443375 C0.563243468,366.266008 1.41245739,363.143185 2.78903181,359.074905 C38.3931799,255.001063 56.8337214,200.99922 58.1106566,197.069374 C59.3875917,193.139529 60.7534161,187.462343 62.2081297,180.037818" id="Path-152"></path>
                <path d="M66.2610103,120.701187 C67.3971519,137.721396 68.8656268,151.66867 70.6664351,162.543007 C72.4672434,173.417344 75.1430653,185.745899 78.6939009,199.528671 C81.454413,207.172316 82.2882423,214.169102 81.1953886,220.519028 C80.102535,226.868954 77.3555613,237.681423 72.9544676,252.956436 C55.7344036,310.490965 46.4153016,342.354003 44.9971617,348.545547 C42.8699518,357.832865 43.3619536,375.45349 43.3619536,383.721115 C43.3619536,389.232864 46.3598936,411.573746 52.3557738,450.743759" id="Path-153"></path>
                <path d="M78.0902403,234.203323 C76.7093097,246.347069 74.9547423,256.434491 72.8265379,264.465591 C70.6983336,272.496691 66.4686481,287.622251 60.1374815,309.84227 C53.1177621,333.512719 49.2213158,347.139886 48.4481428,350.72377 C47.2883833,356.099596 47.1084974,376.816924 47.1084974,383.721115 C47.1084974,388.323908 50.0865629,410.423731 56.0426939,450.020584" id="Path-154"></path>
                <path d="M68.3469694,145.918358 C70.382073,154.319514 72.1397075,160.983078 73.6198729,165.90905 C75.8401209,173.298008 77.3469694,176.602715 81.6603052,190.52829 C85.9736479,204.453865 87.5324052,210.760174 88.4632109,222.43531 C89.083748,230.218735 88.3469977,243.774372 86.25296,263.102222 L71.5811728,386.815583 C69.9489954,399.34783 69.2493481,409.332229 69.482231,416.76878 C69.7151138,424.205331 71.0943278,435.921252 73.6198729,451.916544 L96.8834913,590.186417" id="Path-155"></path>
                <path d="M63.3286436,81.052887 C65.2248711,89.7133185 66.622917,95.6297919 67.5227812,98.8023071 C68.8725776,103.56108 70.2259138,105.716194 72.2437285,110.711143 C74.2615431,115.706093 75.2268315,118.215591 78.6939009,131.042782 C82.1609703,143.869973 82.8365832,147.320395 88.5587004,171.071996 C92.3734452,186.906396 96.1478592,202.879392 99.8819426,218.990982" id="Path-156"></path>
                <path d="M70.5005491,395.543473 C70.5300643,402.842696 70.7797921,409.083282 71.2497328,414.265232 C71.9546438,422.038157 72.6459158,428.606377 77.5370634,451.916544 C80.7978285,467.456656 88.2831165,510.771136 99.9929274,581.859985 C100.844061,587.713301 101.091698,592.668122 100.73584,596.724449 C100.379981,600.780776 99.3960614,606.536303 97.7840803,613.991028 C96.6564813,622.744965 96.0926817,628.890868 96.0926817,632.428738 C96.0926817,635.966607 96.0926817,642.912048 96.0926817,653.26506 C96.1163399,672.554429 96.6801395,687.271987 97.7840803,697.417732 C99.4399917,712.636351 101.601242,728.093376 105.853287,742.969696 C110.105331,757.846016 111.892334,765.248833 117.498268,775.854725 C121.235557,782.92532 128.734836,792.343931 139.996105,804.110558 C150.61853,815.603497 161.769675,825.337073 173.449539,833.311287 C185.129403,841.285501 205.160091,853.132216 233.541603,868.851433" id="Path-157"></path>
                <path d="M235.826752,865.292793 C215.690196,855.530668 200.437905,847.952536 190.069877,842.558395 C179.70185,837.164255 173.468935,833.564348 171.371132,831.758675" id="Path-158"></path>
                <path d="M70.8422163,107.39513 C73.08451,116.507241 74.682535,123.529258 75.6362913,128.461182 C77.0669258,135.859067 77.3927,139.97827 78.6939009,145.918358 C79.5613681,149.878417 81.3304747,157.073363 84.0012205,167.503197 L89.4892805,195.33493 C91.8393845,206.637004 93.1075348,216.145793 93.2937315,223.861298 C93.4799282,231.576802 92.7264403,243.394277 91.0332678,259.313721 C83.2600719,331.126789 78.9457294,371.117257 78.0902403,379.285126 C76.8070067,391.536929 75.6362913,398.266548 75.6362913,406.317917 C75.6362913,411.685496 77.9626044,425.053253 82.6152304,446.421188 L106.769424,572.195633 C108.356101,578.751091 109.677721,588.978988 110.734283,602.879326 C111.790846,616.779664 112.903501,638.577558 114.07225,668.27301" id="Path-159"></path>
                <path d="M75.9276579,400.785726 C76.1837236,405.121744 76.9045844,409.506167 78.0902403,413.938995 C79.2758962,418.371823 81.7518891,424.840363 85.5182188,433.344614 C87.2645981,437.474427 88.7211868,442.319557 89.8879851,447.880005 C91.0547833,453.440452 92.5221524,462.52962 94.2900923,475.147507 L110.092193,562.430069 C112.095833,576.987689 113.422519,586.840172 114.07225,591.987518 C114.721981,597.134865 117.259665,620.270958 121.685303,661.395798" id="Path-160"></path>
                <path d="M85.2202757,313.358093 C85.2202757,317.715246 85.2202757,323.898893 85.2202757,331.909035 C85.2202757,339.919177 87.6325949,370.384394 92.4572333,423.304687 C93.328697,431.61937 94.144451,438.182525 94.9044951,442.994152 C95.6645392,447.805779 96.9652009,455.494054 98.8064802,466.058975 L134.224365,661.395798" id="Path-161"></path>
            </g>
        </g>
        <text id="-" font-family="AvenirNext-DemiBold, Avenir Next" font-size="24" font-weight="500" fill="#7D7D7D">
            <tspan x="315.212" y="33"> </tspan>
        </text>
        <g id="info_button" transform="translate(150.000000, 444.000000)">
            <circle id="Oval" stroke="#56A7E8" stroke-width="3" fill="#FFFFFF" cx="16" cy="16" r="14.5"></circle>
            <rect id="Rectangle" fill="#56A7E8" x="13" y="14" width="6" height="12" rx="3"></rect>
            <circle id="Oval" fill="#56A7E8" cx="16" cy="9" r="3"></circle>
        </g>
        <g id="close_button" opacity="0.750255766" transform="translate(533.000000, 13.000000)" stroke="#B6B6B6" stroke-width="3">
            <line x1="24" y1="8" x2="8" y2="24" id="Path-14"></line>
            <line x1="8.05599869" y1="8.12187357" x2="23.7483064" y2="23.8141813" id="Path-14"></line>
            <rect id="Rectangle" fill-opacity="0.35" fill="#D8D8D8" x="1.5" y="1.5" width="29" height="29" rx="5"></rect>
        </g>
        <g id="legend" transform="translate(16.000000, 61.000000)">
            <rect id="Rectangle" stroke="#B7B7B7" fill="#FFFFFF" opacity="0.461260114" x="0.5" y="0.5" width="199" height="248" rx="10"></rect>
            <rect id="Rectangle" stroke="#C5AAE6" fill="#D9BDFA" x="22" y="224" width="20" height="6" rx="1"></rect>
            <text id="" font-family="AvenirNext-Regular, Avenir Next" font-size="10" font-weight="normal" fill="#727273">
                <tspan x="58" y="229"> </tspan>
            </text>
            <rect id="Rectangle" stroke="#D4BA7B" fill="#FFD486" x="14" y="193" width="36" height="16" rx="4"></rect>
            <text id="-" font-family="AvenirNext-Regular, Avenir Next" font-size="10" font-weight="normal" fill="#727273">
                <tspan x="58" y="203">  </tspan>
            </text>
            <rect id="Rectangle" stroke="#F0D9E1" fill="#F7E3EA" x="14" y="167" width="36" height="16" rx="4"></rect>
            <text id="-" font-family="AvenirNext-Regular, Avenir Next" font-size="10" font-weight="normal" fill="#727273">
                <tspan x="58" y="177">  </tspan>
            </text>
            <rect id="Rectangle" stroke="#A6B493" fill="#D1E1BA" x="14" y="11" width="36" height="16" rx="4"></rect>
            <text id="-" font-family="AvenirNext-Regular, Avenir Next" font-size="10" font-weight="normal" fill="#727273">
                <tspan x="58" y="22"> </tspan>
            </text>
            <rect id="Rectangle" stroke="#656565" fill="#B3B3B3" x="14" y="89" width="36" height="16" rx="4"></rect>
            <g id="coal" transform="translate(25.000000, 93.000000)" fill="#4C4C4C">
                <path d="M3,3.21533203 C3,3.21533203 3.62792969,2.14355469 4.88378906,0 L6.4309082,4.3125 L4.88378906,5 C3.62792969,3.81022135 3,3.21533203 3,3.21533203 Z" id="Path-180"></path>
                <path d="M0,7.20263672 C0,7.20263672 0.582356771,6.13509115 1.74707031,4 L4.296875,6 L2.1484375,8.21777344 C0.716145833,7.54101563 0,7.20263672 0,7.20263672 Z" id="Path-180"></path>
                <path d="M3.7800293,8.63671875 C3.7800293,8.63671875 4.93277995,7.45825195 7.23828125,5.10131836 L9.00146484,7.63671875 L6.74707031,8.63671875 C4.76904297,8.63671875 3.7800293,8.63671875 3.7800293,8.63671875 Z" id="Path-180"></path>
                <path d="M9.39111328,5.20263672 C9.39111328,5.20263672 10.1368001,4.80175781 11.6281738,4 L13.9404297,5.20263672 L13.2617188,7.25048828 L11.390625,8.20263672 C10.0576172,6.20263672 9.39111328,5.20263672 9.39111328,5.20263672 Z" id="Path-180"></path>
                <path d="M7,3 C7,3 7.18969727,2 7.5690918,0 L10.8850098,2.5 L8.72192383,4 C7.57397461,3.33333333 7,3 7,3 Z" id="Path-180"></path>
            </g>
            <text id="" font-family="AvenirNext-Regular, Avenir Next" font-size="10" font-weight="normal" fill="#727273">
                <tspan x="58" y="99"></tspan>
            </text>
            <rect id="Rectangle" stroke="#A6B493" fill="#D1E1BA" x="14" y="63" width="36" height="16" rx="4"></rect>
            <rect id="Rectangle" stroke="#FFFFFF" fill-opacity="0.4" fill="#FFFFFF" opacity="0.802121117" x="26.5" y="65.5" width="11" height="11" rx="3"></rect>
            <text id="-" font-family="AvenirNext-Regular, Avenir Next" font-size="10" font-weight="normal" fill="#727273">
                <tspan x="58" y="73"> </tspan>
            </text>
            <rect id="Rectangle" stroke="#74A3A9" fill="#AADBE2" x="14" y="37" width="36" height="16" rx="4"></rect>
            <text id="-" font-family="AvenirNext-Regular, Avenir Next" font-size="10" font-weight="normal" fill="#727273">
                <tspan x="58" y="49"> </tspan>
            </text>
            <rect id="Rectangle" stroke="#979797" fill="#E9E9E9" x="14" y="115" width="36" height="16" rx="4"></rect>
            <text id="-" font-family="AvenirNext-Regular, Avenir Next" font-size="10" font-weight="normal" fill="#727273">
                <tspan x="58" y="125"> </tspan>
            </text>
            <rect id="Rectangle" stroke="#DCDCDC" fill="#E9E9E9" x="14" y="141" width="36" height="16" rx="4"></rect>
            <text id="" font-family="AvenirNext-Regular, Avenir Next" font-size="10" font-weight="normal" fill="#727273">
                <tspan x="58" y="151"> </tspan>
            </text>
        </g>
        <text id="-" opacity="0.965244112" font-family="AvenirNext-MediumItalic, Avenir Next" font-size="21" font-style="italic" font-weight="400" fill="#FFFFFF">
            <tspan x="37.436" y="711"> </tspan>
        </text>
    </g>
</svg>