<?xml version="1.0" encoding="UTF-8"?>
<svg width="320px" height="370px" viewBox="0 0 320 370" version="1.1" xmlns="http://www.w3.org/2000/svg" xmlns:xlink="http://www.w3.org/1999/xlink">
    <title>murm_legend</title>
    <g id="murm_legend" stroke="none" stroke-width="1" fill="none" fill-rule="evenodd">
        <rect id="Rectangle" stroke="#B3BDC7" stroke-width="3" fill="#FFFFFF" x="1.5" y="1.5" width="317" height="367" rx="8"></rect>
        <g id="Group-6" transform="translate(24.000000, 337.000000)">
            <text id="Электрификация-перем" font-family="AvenirNext-Regular, Avenir Next" font-size="12" font-weight="normal" fill="#6D7C8A">
                <tspan x="41.104" y="12">Электрификация переменным током</tspan>
            </text>
            <line x1="6.39488462e-13" y1="8" x2="35" y2="8" id="Path-7" stroke="#FF8787" stroke-width="4" stroke-dasharray="6,5"></line>
        </g>
        <g id="Group-5" transform="translate(23.000000, 310.000000)">
            <text id="Двухпутный-участок-п" font-family="AvenirNext-Regular, Avenir Next" font-size="16" font-weight="normal" fill="#6D7C8A">
                <tspan x="43.92" y="16">Двухпутный участок пути</tspan>
            </text>
            <g id="Group" transform="translate(0.000000, 4.000000)">
                <line x1="36" y1="6" x2="0" y2="5.75" id="Path-5" stroke="#B0DCFF" stroke-width="12"></line>
                <line x1="36" y1="1" x2="1.13686838e-13" y2="1" id="Path-13" stroke="#52738D" stroke-width="3"></line>
            </g>
        </g>
        <g id="Group-3" transform="translate(23.000000, 288.000000)">
            <text id="Однопутный-участок-п" font-family="AvenirNext-Regular, Avenir Next" font-size="16" font-weight="normal" fill="#6D7C8A">
                <tspan x="42.692" y="16">Однопутный участок пути</tspan>
            </text>
            <line x1="36" y1="11" x2="0" y2="11" id="Path-5" stroke="#B0DCFF" stroke-width="12"></line>
        </g>
        <g id="Group-4" transform="translate(23.000000, 45.000000)">
            <g id="st_" transform="translate(1.000000, 33.000000)">
                <text id="Станция-1-класса" font-family="AvenirNext-Regular, Avenir Next" font-size="24" font-weight="normal" fill="#6D7C8A">
                    <tspan x="33.116" y="24">Станция 1 класса</tspan>
                </text>
                <g id="st" transform="translate(0.000000, 5.000000)" fill="#FFFDFD" stroke="#6EA8F0" stroke-width="4">
                    <circle id="Oval" cx="12" cy="12" r="10"></circle>
                </g>
            </g>
            <g id="st_" transform="translate(3.000000, 66.000000)">
                <g id="st" transform="translate(0.000000, 4.000000)" fill="#FFFDFD" stroke="#6EA8F0" stroke-width="2">
                    <circle id="Oval" cx="9" cy="9" r="8"></circle>
                </g>
                <text id="Станция-2-класса" font-family="AvenirNext-Regular, Avenir Next" font-size="18" font-weight="normal" fill="#6D7C8A">
                    <tspan x="32.087" y="18">Станция 2 класса</tspan>
                </text>
            </g>
            <g id="st_" transform="translate(6.000000, 91.000000)">
                <g id="st" transform="translate(0.000000, 4.000000)" fill="#FFFDFD" stroke="#A3A3A3" stroke-width="2">
                    <circle id="Oval" cx="6.5" cy="6.5" r="5.5"></circle>
                </g>
                <text id="Станция-3-класса" font-family="AvenirNext-Regular, Avenir Next" font-size="16" font-weight="normal" fill="#6D7C8A">
                    <tspan x="30.244" y="16">Станция 3 класса</tspan>
                </text>
            </g>
            <g id="st_" transform="translate(8.000000, 113.000000)">
                <g id="st" transform="translate(0.000000, 3.000000)" fill="#FFFFFF" stroke="#C3C1C1">
                    <circle id="Oval" transform="translate(5.000000, 5.000000) scale(-1, 1) translate(-5.000000, -5.000000) " cx="5" cy="5" r="4.5"></circle>
                </g>
                <text id="Станция-4-класса" font-family="AvenirNext-Regular, Avenir Next" font-size="12" font-weight="normal" fill="#6D7C8A">
                    <tspan x="29.058" y="12">Станция 4 класса</tspan>
                </text>
            </g>
            <g id="st_" opacity="0.5023484" transform="translate(8.000000, 129.000000)">
                <g id="st" transform="translate(0.000000, 3.000000)" fill="#FFFFFF" stroke="#C3C1C1">
                    <circle id="Oval" transform="translate(5.000000, 5.000000) scale(-1, 1) translate(-5.000000, -5.000000) " cx="5" cy="5" r="4.5"></circle>
                </g>
                <text id="Станция-5-класса" font-family="AvenirNext-Regular, Avenir Next" font-size="12" font-weight="normal" fill="#6D7C8A">
                    <tspan x="29.058" y="12">Станция 5 класса</tspan>
                </text>
            </g>
            <g id="st_">
                <text id="Внеклассная-станция" font-family="AvenirNext-Regular, Avenir Next" font-size="24" font-weight="normal" fill="#6D7C8A">
                    <tspan x="34.452" y="24">Внеклассная станция</tspan>
                </text>
                <g id="st" transform="translate(0.000000, 4.000000)">
                    <circle id="Oval" stroke="#6EA8F0" stroke-width="2" fill="#FFFDFD" cx="13" cy="13" r="12"></circle>
                    <circle id="Oval" fill="#6EA8F0" cx="13" cy="13" r="8"></circle>
                </g>
            </g>
            <g id="Group-2" transform="translate(5.000000, 145.000000)">
                <rect id="Rectangle" stroke="#5AC237" fill="#93FA6F" transform="translate(9.000000, 11.000000) rotate(-45.000000) translate(-9.000000, -11.000000) " x="3.5" y="5.5" width="11" height="11" rx="2"></rect>
                <text id="Пассажирская-станция" font-family="AvenirNext-Regular, Avenir Next" font-size="16" font-weight="normal" fill="#6D7C8A">
                    <tspan x="31.052" y="16">Пассажирская станция</tspan>
                </text>
            </g>
            <g id="port" transform="translate(2.000000, 172.000000)">
                <circle id="Oval" stroke="#87B6E0" stroke-width="2" fill="#FFFFFF" cx="12" cy="12" r="11"></circle>
                <path d="M11.9991786,2.82352941 C13.0090301,2.82352941 13.8276766,3.61049819 13.8276766,4.58127338 C13.8276766,5.27172782 13.4135538,5.86920144 12.8110554,6.15668246 L12.8495016,7.32132844 L15.7788839,7.32132844 L15.7788839,8.63579134 L12.9559259,8.63579134 L13.0665643,14.3222991 C13.1265381,14.9274161 13.2042969,15.3680766 13.2998406,15.6442804 C13.3953844,15.9204843 13.5248197,16.1644513 13.6881465,16.3761817 C13.935827,16.6499595 14.1970427,16.8179751 14.4717935,16.8802285 C14.7465444,16.9424819 15.0989469,16.8896466 15.5290011,16.7217226 C15.9392031,16.4615294 16.2346793,16.2378176 16.4154297,16.0505871 C16.5961801,15.8633566 16.8042194,15.5655014 17.0395475,15.1570215 L17.0395475,15.1570215 L16.1646541,15.1570215 C16.5755433,14.6006355 16.8671744,14.151152 17.0395475,13.8085709 C17.2119206,13.4659898 17.4050081,12.9521244 17.61881,12.2669745 C18.1947091,13.1273796 18.5648133,13.7734421 18.7291225,14.2051619 C18.8934317,14.6368817 19.003332,15.2520234 19.0588235,16.0505871 L19.0588235,16.0505871 L18.1999295,15.5383695 C17.9252738,16.3095568 17.5384799,16.9750963 17.0395475,17.5349881 C16.5406152,18.0948799 15.7221005,18.6214249 14.5840033,19.1146232 C13.8617096,19.3637768 13.3558966,19.6037501 13.0665643,19.8345429 C12.777232,20.0653358 12.4214367,20.512645 11.9991786,21.1764706 L11.9991786,21.1764706 L11.9991765,21.1715294 L11.8625303,20.9611203 C11.5003182,20.4138218 11.19062,20.037598 10.9334357,19.8324487 C10.6441034,19.6016559 10.1382904,19.3616826 9.41599668,19.112529 C8.27789955,18.6193308 7.45938482,18.0927857 6.96045248,17.5328939 C6.46152015,16.9730021 6.07472616,16.3074626 5.80007053,15.5362753 L4.94117647,16.0484929 C4.99666796,15.2499292 5.1065683,14.6347875 5.27087751,14.2030677 C5.43518672,13.7713479 5.80529089,13.1252855 6.38119004,12.2648803 C6.59499192,12.9500302 6.7880794,13.4638956 6.96045248,13.8064767 C7.13282556,14.1490578 7.4244567,14.5985413 7.8353459,15.1549273 L6.96045248,15.1549273 C7.1957806,15.5634072 7.40381986,15.8612624 7.58457026,16.0484929 C7.76532067,16.2357234 8.06079689,16.4594352 8.47099893,16.7196284 C8.90105308,16.8875524 9.25345559,16.9403877 9.52820646,16.8781343 C9.80295732,16.8158809 10.064173,16.6478653 10.3118535,16.3740875 C10.4751803,16.1623572 10.6046156,15.9183901 10.7001594,15.6421863 C10.7957031,15.3659824 10.8734619,14.925322 10.9334357,14.3202049 L11.0440741,8.63369716 L8.22111612,8.63369716 L8.22111612,7.31923425 L11.1504984,7.31923425 L11.1892725,6.15762135 C10.5857066,5.87050373 10.1706806,5.27248036 10.1706806,4.58127338 C10.1706806,3.61049819 10.9893271,2.82352941 11.9991786,2.82352941 Z" id="Combined-Shape" fill="#87B6E0" transform="translate(12.000000, 12.000000) scale(-1, 1) translate(-12.000000, -12.000000) "></path>
            </g>
            <text id="Порт" font-family="AvenirNext-Regular, Avenir Next" font-size="16" font-weight="normal" fill="#6D7C8A">
                <tspan x="36" y="188">Порт</tspan>
            </text>
            <g id="zd_vkz" transform="translate(4.000000, 198.000000)" fill="#404040">
                <path d="M10.6798057,0.264315457 L12.3766671,1.82656854 C12.7879889,2.20526108 13.0220184,2.73883689 13.0220184,3.29793764 L13.0220184,14.9933461 L7,14.9933461 L7,3.29359496 C7,2.73703051 7.23191819,2.20563783 7.63999729,1.82717325 L9.32248006,0.266789152 C9.70500601,-0.0879766825 10.2959892,-0.0890537361 10.6798057,0.264315457 Z M10,3.98481839 C8.8954305,3.98481839 8,4.88024889 8,5.98481839 C8,7.08938789 8.8954305,7.98481839 10,7.98481839 C11.1045695,7.98481839 12,7.08938789 12,5.98481839 C12,4.88024889 11.1045695,3.98481839 10,3.98481839 Z" id="Combined-Shape"></path>
                <path d="M16.3562457,8.99334606 C16.739333,8.99334606 17.1143609,9.10336797 17.4367323,9.31032831 L19.0804866,10.365608 C19.6535218,10.7334929 20,11.3676641 20,12.0486257 L20,20.9933461 L0,20.9933461 L0,12.0353069 C-3.04544406e-16,11.3616449 0.339140459,10.7332447 0.90225965,10.3634917 L2.48912491,9.32153085 C2.81520297,9.10742283 3.19677663,8.99334606 3.58686526,8.99334606 L16.3562457,8.99334606 Z M2.33879185,15.9848184 C1.44626395,15.9848184 1,16.5029077 1,17.5390864 L1,17.5390864 L1,19.9848184 L3.67758369,19.9848184 L3.67758369,17.5390864 C3.67758369,16.5029077 3.23131974,15.9848184 2.33879185,15.9848184 Z M17.6587918,15.9848184 C16.7662639,15.9848184 16.32,16.5029077 16.32,17.5390864 L16.32,17.5390864 L16.32,19.9848184 L18.9975837,19.9848184 L18.9975837,17.5390864 C18.9975837,16.5029077 18.5513197,15.9848184 17.6587918,15.9848184 Z M6.16879185,15.9848184 C5.27626395,15.9848184 4.83,16.5029077 4.83,17.5390864 L4.83,17.5390864 L4.83,19.9848184 L7.50758369,19.9848184 L7.50758369,17.5390864 C7.50758369,16.5029077 7.06131974,15.9848184 6.16879185,15.9848184 Z M13.8287918,15.9848184 C12.9362639,15.9848184 12.49,16.5029077 12.49,17.5390864 L12.49,17.5390864 L12.49,19.9848184 L15.1675837,19.9848184 L15.1675837,17.5390864 C15.1675837,16.5029077 14.7213197,15.9848184 13.8287918,15.9848184 Z M9.99879185,15.9848184 C9.10626395,15.9848184 8.66,16.5029077 8.66,17.5390864 L8.66,17.5390864 L8.66,19.9848184 L11.3375837,19.9848184 L11.3375837,17.5390864 C11.3375837,16.5029077 10.8913197,15.9848184 9.99879185,15.9848184 Z" id="Combined-Shape"></path>
            </g>
            <text id="Вокзал" font-family="AvenirNext-Regular, Avenir Next" font-size="16" font-weight="normal" fill="#6D7C8A">
                <tspan x="36.228" y="215">Вокзал</tspan>
            </text>
        </g>
        <text id="Обозначения" font-family="AvenirNext-DemiBold, Avenir Next" font-size="22" font-weight="500" fill="#6D7C8A">
            <tspan x="86.894" y="36">Обозначения</tspan>
        </text>
        <line x1="233.445312" y1="275" x2="71" y2="275" id="Path-140" stroke="#D9D7D7"></line>
    </g>
</svg>