<?xml version="1.0" encoding="UTF-8"?>
<svg width="550px" height="900px" viewBox="0 0 550 900" version="1.1" xmlns="http://www.w3.org/2000/svg" xmlns:xlink="http://www.w3.org/1999/xlink">
    <title>ust-luga</title>
    <defs>
        <linearGradient x1="50%" y1="0%" x2="50%" y2="100%" id="linearGradient-1">
            <stop stop-color="#76A0FF" offset="0%"></stop>
            <stop stop-color="#0DAB3D" offset="100%"></stop>
        </linearGradient>
    </defs>
    <g id="ust-luga" stroke="none" stroke-width="1" fill="none" fill-rule="evenodd">
        <g id="sea" transform="translate(0.000000, -1.000000)">
            <path d="M-166.977778,188.022247 L693.022222,188.977802 C704.059233,188.990066 713,197.940772 713,208.97779 L713,694 C713,705.045695 704.045695,714 693,714 L-167,714 C-178.045695,714 -187,705.045695 -187,694 L-187,208.022235 C-187,196.97654 -178.045695,188.022235 -167,188.022235 C-166.992593,188.022235 -166.985185,188.022239 -166.977778,188.022247 Z" id="Rectangle" fill="#D8E8F7" transform="translate(263.000000, 451.000000) rotate(-90.000000) translate(-263.000000, -451.000000) "></path>
            <path d="M0.5,590.178917 C21.1490086,601.326765 38.5115676,605.133437 52.587677,601.598931 C73.7018411,596.297172 85.5802392,564.702551 101.817032,558.411309 C118.053824,552.120066 151.5,589.098931 166.348816,579.862618 C181.197632,570.626305 173.284791,556.180558 179.498169,550.598931 C183.640421,546.877846 194.033813,546.877846 210.678345,550.598931 C197.256836,492.001206 202.182475,453.86901 225.455261,436.202343 C244.444225,421.787581 249.222295,397.716623 253.887329,368.697441 C254.588936,364.333046 257.626493,358.19948 263,350.296746 L346.5,170.598931 L382.633545,0.598930692 L20.5,0.598930692 C9.454305,0.598930692 0.5,9.5532357 0.5,20.5989307 L0.5,590.178917 L0.5,590.178917 Z" id="Path-30" fill="#D0E4FA"></path>
            <path d="M0.5,436.202343 C34.6479094,400.709691 61.3145761,374.664885 80.5,358.067925 C109.278136,333.172485 109.278136,329.098931 134.650085,308.530388 C160.022035,287.961846 188.038542,268.223333 209.358887,239.598931 C223.57245,220.515996 241.452821,190.580245 263,149.79168 L327.240021,1.13686838e-13 L199.071167,1.13686838e-13 L20.4396762,0.538788607 C9.41758196,0.572033466 0.5,9.51655321 0.5,20.5386976 L0.5,436.202343 L0.5,436.202343 Z" id="Path-29" fill="#CDE1F5"></path>
            <path d="M269.595,0.598 L269.545261,0.627377051 C266.748313,2.31073082 264.566559,7.38161674 263,15.8400348 C259.495854,34.7601805 259.173817,40.5425342 263,48.5461353 C266.826183,56.5497364 286.5,72.5989307 299.5,75.6441043 C308.166667,77.67422 325.333333,78.8491722 351,79.1689609 L358.5,454.598931 L346.5,631.614434 L94.6387482,687.598931 L91,631.614434 C98.9616877,613.287904 109.147514,603.663697 121.557478,602.741814 C140.172424,601.35899 138.583368,608.49619 160.5,601.598931 C182.416632,594.701671 189.201346,594.409386 194.258083,579.862618 C199.314819,565.31585 194.258083,542.449623 194.258083,497.743706 C194.258083,453.037789 123.935593,240.598931 112.876312,239.598931 C101.817032,238.598931 91.4158351,274.98393 69.2469482,291.598931 C54.4676903,302.675598 31.5520409,314.665262 0.5,327.567925 L0.499071116,239.105447 C14.0722157,214.853748 26.1195529,199.651933 36.6410828,193.5 C52.6165449,184.159156 93.1548216,188.534099 107.678375,181 C117.360744,175.977267 121.509579,165.708184 120.124878,150.192749 C117.729055,138.456242 117.729055,129.825443 120.124878,124.300354 C122.520701,118.775265 128.980682,112.50848 139.504822,105.5 C147.168274,97.1666667 151,88.8283273 151,80.484982 C151,72.1416367 136.559458,66.3133093 107.678375,63 C96.8927917,61.6666667 91.5,54.3325958 91.5,40.9977875 L91.5,1 L0.499071116,1 L0.5,0.598930692 L269.595,0.598 Z M232.454834,72.5989307 C214.834055,107.48631 200.833791,133.217227 190.454041,149.79168 C174.884415,174.653359 145.330261,201.800988 145.330261,225.635155 C145.330261,237.109805 163.352373,299.198645 179.5,358.067925 C196.892852,421.476913 212.977667,481.561805 227.23584,482.598931 C245.566203,483.932264 260.949443,473.432264 273.385559,451.098931 C274.866004,287.670993 274.866004,192.504327 273.385559,165.598931 C271.164892,125.240837 257.638386,107.542261 255.5,100.598931 C249.881516,82.3557326 248.064527,59.9428311 243.774048,53.6432117 C240.913729,49.4434654 237.140657,55.7620384 232.454834,72.5989307 Z M273.859179,0.482232782 L274.112427,0.598930692 L269.595,0.598 L269.693036,0.5419074 C270.957863,-0.160164248 272.346577,-0.180055787 273.859179,0.482232782 Z" id="Combined-Shape" fill="#CBDDEF"></path>
        </g>
        <path d="M-155,175 L0.264221191,175 L0.264221191,175 C-9.45277913,185.077148 -15.1797485,191.642466 -16.916687,194.695953 C-19.5220947,199.276184 -22.2328966,207.026548 -24.7087708,208.753357 C-29.0322978,211.768819 -30.5871684,206.14326 -29.3733826,191.876678 C-28.8614807,184.060801 -30.8019002,180.152863 -35.1946411,180.152863 C-37.5705863,180.152863 -44.0423425,180.24759 -44.632782,187.535675 C-44.8716419,190.484041 -38.8842012,197.684284 -39.4309082,201.767029 C-39.8311894,204.756283 -41.5651473,209.832078 -44.632782,216.994415 C-38.3406881,218.108612 -35.1946411,219.945592 -35.1946411,222.505356 C-35.1946411,225.065119 -35.1946411,242.053665 -35.1946411,273.470993 L74.088562,262.191216 L106.205902,501.740021 L113.84967,501.740021 L120.734528,495.019653 L147.453857,483.494293 L162,460.576935 L237,460.576935 L237,478.038177 L494.198456,478.038177 L494.198456,505 L516.569885,509 L656.59436,509 L656.59436,534.890259 L725,541.486145 L725,705 C725,716.045695 716.045695,725 705,725 L-155,725 C-166.045695,725 -175,716.045695 -175,705 L-175,195 C-175,183.954305 -166.045695,175 -155,175 Z" id="Path" fill="#DFF1E1" transform="translate(275.000000, 450.000000) rotate(-90.000000) translate(-275.000000, -450.000000) "></path>
        <path d="M537.830273,601.749905 C536.558069,605.468653 535.703114,608.218135 535.265408,609.998348 C534.608847,612.668669 534.613842,617.701939 532.270947,620.183605 C531.719826,620.767369 528.992276,622.623569 527.249264,626.070011 C526.481289,627.588521 524.19232,630.925164 523.764751,636.503231 C523.444599,640.679948 525.204715,646.865896 523.764751,650.374752 C522.448891,653.581197 518.538824,656.27727 512.03455,658.462971 L472.404415,680.596775 C461.92359,684.364674 453.737708,686.248623 447.846767,686.248623 C439.010357,686.248623 441.967242,685.756544 429.192806,680.596775 C416.418371,675.437007 416.418371,675.437007 406.293056,674.319248 C396.167742,673.20149 382.207853,674.200262 375.815212,675.645115 C369.422571,677.089968 366.73907,680.885622 362.474483,684.223042 C358.209897,687.560461 354.155831,687.160119 352.288021,690.001747 C350.420211,692.843375 352.646858,704.801283 350.984097,708.877911 C349.321335,712.954538 345.421711,713.950993 343.162045,718.193501 C340.902378,722.436008 338.59959,727.810001 338.59959,733.724209 C338.59959,739.638416 339.807954,743.106373 343.162045,750.809139 C346.516135,758.511905 350.900719,760.585043 352.288021,765.160084 C353.212889,768.210111 353.212889,772.62664 352.288021,778.409672 C351.262039,783.96759 351.262039,787.930084 352.288021,790.297153 C353.314003,792.664223 355.816536,796.005186 359.79562,800.320042 C362.875602,804.240399 364.737427,807.641074 365.381096,810.522068 C366.024765,813.403062 366.024765,818.335719 365.381096,825.320042" id="Path-16" stroke="#A7C4E2" stroke-width="4" transform="translate(438.214931, 713.534973) rotate(-90.000000) translate(-438.214931, -713.534973) "></path>
        <g id="areas" transform="translate(282.000000, 447.500000) rotate(-90.000000) translate(-282.000000, -447.500000) translate(-144.500000, 247.500000)">
            <path d="M586,322 L600,322 C601.656854,322 603,323.343146 603,325 L603,366 C603,367.656854 601.656854,369 600,369 L586,369 C584.343146,369 583,367.656854 583,366 L583,325 C583,323.343146 584.343146,322 586,322 Z" id="Rectangle" fill="#79D8FF"></path>
            <path d="M671.812815,335.5 L608,335.5 C607.309644,335.5 606.684644,335.779822 606.232233,336.232233 C605.779822,336.684644 605.5,337.309644 605.5,338 L605.5,366 C605.5,366.690356 605.779822,367.315356 606.232233,367.767767 C606.684644,368.220178 607.309644,368.5 608,368.5 L701,368.5 C701.690356,368.5 702.315356,368.220178 702.767767,367.767767 C703.220178,367.315356 703.5,366.690356 703.5,366 L703.5,361.502235 C703.5,360.74556 703.157291,360.029601 702.567933,359.555035 L673.380748,336.0528 C672.936472,335.695058 672.383219,335.5 671.812815,335.5 Z" id="Rectangle" stroke="#B3B3B3" fill="#D4D2D2"></path>
            <text id="Al" transform="translate(661.000000, 352.000000) rotate(90.000000) translate(-661.000000, -352.000000) " font-family="AvenirNext-DemiBold, Avenir Next" font-size="12" font-weight="500" fill="#FFFFFF">
                <tspan x="655.156" y="356">Al</tspan>
            </text>
            <path d="M739,248 L809,248 C810.656854,248 812,249.343146 812,251 L812,297.133545 C812,298.790399 810.656854,300.133545 809,300.133545 L788.219849,300.133545 C786.562994,300.133545 785.219849,298.790399 785.219849,297.133545 L785.219849,293 C785.219849,291.343146 783.876703,290 782.219849,290 L739,290 C737.343146,290 736,288.656854 736,287 L736,251 C736,249.343146 737.343146,248 739,248 Z" id="Rectangle" fill="#B08C2E"></path>
            <path d="M712,218 L731,218 C732.656854,218 734,219.343146 734,221 L734,287 C734,288.656854 732.656854,290 731,290 L712,290 C710.343146,290 709,288.656854 709,287 L709,221 C709,219.343146 710.343146,218 712,218 Z" id="Rectangle" fill="url(#linearGradient-1)"></path>
            <g id="Group-27" transform="translate(723.000000, 221.000000)" stroke="#FFFFFF">
                <path d="M1.4890213,0 C0.496340434,0.547286987 -1.33226763e-15,1.35206095 -1.33226763e-15,2.4143219 C-1.33226763e-15,3.47658285 0.496340434,4.28135681 1.4890213,4.8286438" id="Path-40"></path>
                <path d="M1.4890213,5 C0.496340434,5.54728699 4.53415083e-13,6.35206095 4.53415083e-13,7.4143219 C4.53415083e-13,8.47658285 0.496340434,9.28135681 1.4890213,9.8286438" id="Path-40"></path>
                <path d="M1.4890213,10 C0.496340434,10.547287 1.1235457e-13,11.352061 1.1235457e-13,12.4143219 C1.1235457e-13,13.4765828 0.496340434,14.2813568 1.4890213,14.8286438" id="Path-40"></path>
            </g>
            <path d="M705.963776,251 L705.963776,283.660384 C705.963776,285.317238 704.62063,286.660384 702.963776,286.660384 C702.601729,286.660384 702.242672,286.59485 701.90397,286.46695 L654.940194,268.73265 C653.772646,268.291764 653,267.174102 653,265.926084 L653,251 C653,249.343146 654.343146,248 656,248 L702.963776,248 C704.62063,248 705.963776,249.343146 705.963776,251 Z" id="Path-2" fill="#769972"></path>
            <rect id="Rectangle" stroke="#FFFFFF" stroke-width="2" fill-opacity="0.4" fill="#FFFFFF" x="688" y="259" width="10" height="10" rx="3"></rect>
            <path d="M586,218 L645.963776,218 C647.62063,218 648.963776,219.343146 648.963776,221 L648.963776,250 C648.963776,251.656854 647.62063,253 645.963776,253 L632.667912,253 C631.562596,253 630.488433,253.366255 629.613355,254.041505 L607.858547,270.82852 C607.312405,271.249949 606.63771,271.470286 605.948105,271.452417 L585.922292,270.933524 C584.296253,270.891391 583,269.561115 583,267.93453 L583,221 C583,219.343146 584.343146,218 586,218 Z" id="Path-3" stroke="#B6B6B6" fill="#D4D2D2"></path>
            <text id="Al" transform="translate(624.000000, 239.000000) rotate(90.000000) translate(-624.000000, -239.000000) " font-family="AvenirNext-DemiBold, Avenir Next" font-size="12" font-weight="500" fill="#FFFFFF">
                <tspan x="618.156" y="243">Al</tspan>
            </text>
            <rect id="Rectangle" fill="#B08C2E" transform="translate(798.954826, 387.046781) rotate(7.000000) translate(-798.954826, -387.046781) " x="745.954826" y="381.046781" width="106" height="12" rx="3"></rect>
            <path d="M520.531006,218 L575.531006,218 C577.18786,218 578.531006,219.343146 578.531006,221 L578.531006,268.480042 C578.531006,270.136896 577.18786,271.480042 575.531006,271.480042 L547.548405,271.480042 C545.891551,271.480042 544.548405,270.136896 544.548405,268.480042 L544.548405,264.056351 C544.548405,262.399496 543.205259,261.056351 541.548405,261.056351 L520.531006,261.056351 C518.874152,261.056351 517.531006,259.713205 517.531006,258.056351 L517.531006,221 C517.531006,219.343146 518.874152,218 520.531006,218 Z" id="Path-4" fill="#82DAFE"></path>
            <path d="M561.363635,267 C559.121212,265.87168 558,264.17699 558,261.915931 C558,258.524343 561.15504,256.248556 561.898464,254.291662 C562.39408,252.987066 562.215804,251.223179 561.363635,249 C566.413838,252.527775 569.250669,255.877196 569.874128,259.048263 C570.497587,262.21933 568.80499,264.869909 564.796336,267 C566.478336,265.440228 567.319336,263.745538 567.319336,261.915931 C567.319336,260.086325 566.478336,258.198983 564.796336,256.253906 C564.975359,257.671798 564.975359,258.744259 564.796336,259.471289 C564.617313,260.198319 564.20763,260.789628 563.567285,261.245215 C563.638323,260.846618 563.638323,260.519079 563.567285,260.262598 C563.496247,260.006117 563.293415,259.601339 562.958789,259.048263 C562.85551,260.244808 562.323792,261.441969 561.363635,262.639746 C560.403479,263.837524 560.403479,265.290942 561.363635,267 Z" id="Path-178" fill="#FFFFFF" opacity="0.702945528" transform="translate(564.000000, 258.000000) rotate(90.000000) translate(-564.000000, -258.000000) "></path>
            <path d="M590.30303,340.5 C588.434343,339.559733 587.5,338.147492 587.5,336.263276 C587.5,333.436953 590.1292,331.540463 590.74872,329.909718 C591.161733,328.822555 591.01317,327.352649 590.30303,325.5 C594.511532,328.439812 596.875558,331.230996 597.395107,333.873553 C597.914656,336.516109 596.504158,338.724924 593.163613,340.5 C594.56528,339.20019 595.266113,337.787948 595.266113,336.263276 C595.266113,334.738604 594.56528,333.165819 593.163613,331.544922 C593.312799,332.726498 593.312799,333.620216 593.163613,334.226074 C593.014428,334.831933 592.673025,335.32469 592.139404,335.704346 C592.198603,335.372181 592.198603,335.099232 592.139404,334.885498 C592.080206,334.671764 591.911179,334.334449 591.632324,333.873553 C591.546258,334.870673 591.10316,335.868307 590.30303,336.866455 C589.502899,337.864603 589.502899,339.075785 590.30303,340.5 Z" id="Path-178" fill="#FFFFFF" opacity="0.703178769" transform="translate(592.500000, 333.000000) rotate(90.000000) translate(-592.500000, -333.000000) "></path>
            <path d="M513.531006,221 L513.531006,273 C513.531006,274.656854 512.18786,276 510.531006,276 L412.406067,276 C410.749213,276 409.406067,274.656854 409.406067,273 L409.406067,264.338102 C409.406067,262.681248 410.749213,261.338102 412.406067,261.338102 L427,261.338102 C428.656854,261.338102 430,259.994956 430,258.338102 L430,221 C430,219.343146 431.343146,218 433,218 L510.531006,218 C512.18786,218 513.531006,219.343146 513.531006,221 Z" id="Path-5" fill="#5D99C4"></path>
            <path d="M496.442532,235.891921 C494.662638,239.292719 493.658243,241.317662 493.429348,241.966751 C493.086006,242.940384 491.810452,246.992386 496.442532,246.992386 C501.074612,246.992386 499.840684,242.941116 499.43948,241.966751 C499.172011,241.317174 498.173028,239.292231 496.442532,235.891921 Z" id="Path-181" stroke="#FFFFFF" stroke-width="1.5" opacity="0.557101295" transform="translate(496.449768, 241.442153) rotate(90.000000) translate(-496.449768, -241.442153) "></path>
            <path d="M490.136317,242.585706 C488.356423,245.986504 487.352028,248.011447 487.123133,248.660536 C486.779791,249.634168 485.504237,253.686171 490.136317,253.686171 C494.768397,253.686171 493.534469,249.634901 493.133265,248.660536 C492.865796,248.010959 491.866813,245.986016 490.136317,242.585706 Z" id="Path-181" stroke="#FFFFFF" stroke-width="1.5" opacity="0.557101295" transform="translate(490.143553, 248.135938) rotate(90.000000) translate(-490.143553, -248.135938) "></path>
            <path d="M396,218 L424,218 C425.656854,218 427,219.343146 427,221 L427,250 C427,251.656854 425.656854,253 424,253 L396,253 C394.343146,253 393,251.656854 393,250 L393,221 C393,219.343146 394.343146,218 396,218 Z" id="Rectangle" fill="#C9D100"></path>
            <path d="M373,200.494293 L387,200.494293 C388.656854,200.494293 390,201.837439 390,203.494293 L390,248.198096 C390,249.85495 388.656854,251.198096 387,251.198096 C386.647452,251.198096 386.297664,251.135954 385.966689,251.014524 L371.966689,245.878106 C370.785322,245.444678 370,244.320045 370,243.061678 L370,203.494293 C370,201.837439 371.343146,200.494293 373,200.494293 Z" id="Path-6" fill="#8F8F8F"></path>
            <path d="M363.453857,200.494293 L330.114501,200.494293 C329.141559,200.494293 328.229036,200.966125 327.666586,201.760018 L302.80795,236.847787 C301.850136,238.199733 302.169644,240.072164 303.52159,241.029977 C304.028565,241.389154 304.634552,241.582062 305.255865,241.582062 L363.453857,241.582062 C365.110712,241.582062 366.453857,240.238916 366.453857,238.582062 L366.453857,203.494293 C366.453857,201.837439 365.110712,200.494293 363.453857,200.494293 Z" id="Path-7" fill="#8F8F8F"></path>
            <path d="M317.352782,200.494293 L312.270283,200.494293 C311.356928,200.494293 310.49332,200.910378 309.924112,201.624673 L295.354636,219.907797 C294.785427,220.622093 293.921819,221.038177 293.008464,221.038177 L283.729943,221.038177 C282.802185,221.038177 281.926625,221.467423 281.358418,222.200824 L270.090452,236.744708 C269.07571,238.054465 269.314866,239.938844 270.624623,240.953587 C271.150462,241.360983 271.796787,241.582062 272.461977,241.582062 L292.678455,241.582062 C293.655111,241.582062 294.570636,241.106642 295.132435,240.307744 L319.806762,205.219975 C320.75983,203.864679 320.43376,201.99338 319.078463,201.040312 C318.57317,200.684981 317.970505,200.494293 317.352782,200.494293 Z" id="Path-8" stroke="#007FD1" stroke-width="2" fill="#007FD1"></path>
            <path d="M284.420013,297.340928 L284.420013,292.747803 C284.420013,291.090948 285.763159,289.747803 287.420013,289.747803 L373.855225,289.747803 C375.512079,289.747803 376.855225,291.090948 376.855225,292.747803 L376.855225,307.163049 C376.855218,307.825439 376.635994,308.469206 376.23174,308.993934 C370.823374,316.014071 361.982761,319.524139 349.7099,319.524139 C337.204154,319.524139 316.042392,313.046916 286.224612,300.092469 C285.128862,299.616434 284.420013,298.535616 284.420013,297.340928 Z" id="Path-9" fill="#95CD33"></path>
            <path d="M170.061508,319.524139 L177.088379,319.524139 C178.745233,319.524139 180.088379,318.180994 180.088379,316.524139 L180.088379,307.635971 C180.088379,305.979117 181.431525,304.635971 183.088379,304.635971 L202.552612,304.635971 C204.209467,304.635971 205.552612,303.292825 205.552612,301.635971 L205.552612,288.219208 C205.552612,286.562354 204.209467,285.219208 202.552612,285.219208 L177.061508,285.219208 C171.538661,285.219208 167.061508,289.69636 167.061508,295.219208 L167.061508,316.524139 C167.061508,318.180994 168.404654,319.524139 170.061508,319.524139 Z" id="Path-10" fill="#484848"></path>
            <rect id="Rectangle" fill="#ACACAC" x="380" y="296" width="12" height="12" rx="3"></rect>
            <path d="M255.78374,245.445679 L184.144276,245.445679 C182.676783,245.445679 181.42468,244.384063 181.184671,242.93633 L173.400983,195.985146 C173.130004,194.350602 174.235392,192.80587 175.869937,192.534891 C175.878414,192.533485 175.886897,192.532116 175.895386,192.530784 L246.442836,181.457242 C248.079648,181.200318 249.614825,182.31894 249.871749,183.955752 C249.872355,183.959613 249.872953,183.963475 249.873544,183.967338 L258.749247,241.992062 C258.999773,243.629867 257.875161,245.16066 256.237357,245.411186 C256.087242,245.434148 255.935601,245.445679 255.78374,245.445679 Z" id="Path-11" fill="#4BD7BE"></path>
            <path d="M248.945442,174.036068 L245.773811,154.215271 C245.51202,152.57923 243.973522,151.465181 242.337481,151.726972 C242.307697,151.731738 242.277987,151.736953 242.24836,151.742615 L158.319796,167.782147 C156.702925,168.091147 155.637051,169.645307 155.931226,171.26494 L159.100525,188.71408 C159.392804,190.323274 160.920162,191.401832 162.53442,191.138955 L246.465316,177.471079 C248.097439,177.205293 249.206723,175.668918 248.945442,174.036068 Z" id="Path-12" fill="#EBA552"></path>
            <path d="M242.616387,144.402669 L225.887458,21.4001479 C225.664174,19.7584079 224.152273,18.6085226 222.510533,18.831807 C222.47438,18.836724 222.43832,18.8423 222.402371,18.8485324 L169.975005,27.9376626 C168.359159,28.2177955 167.267701,29.7435308 167.524455,31.3632559 L185.865231,147.065785 C186.113493,148.631943 185.100045,150.120829 183.55197,150.464264 L164.660514,154.65527 C163.2874,154.95989 162.310257,156.177566 162.310257,157.584064 L162.310257,158.922175 C162.310257,160.579029 163.653403,161.922175 165.310257,161.922175 C165.498051,161.922175 165.68543,161.904542 165.869927,161.869508 L240.203424,147.754294 C241.771109,147.456606 242.83143,145.983811 242.616387,144.402669 Z" id="Path-13" fill="#DF7474"></path>
            <path d="M95.8473701,16.2017768 L239.022655,0.328370332 C240.661632,0.146661992 242.140009,1.32185373 242.332683,2.95957761 L242.629759,5.48472284 C242.823347,7.13022864 241.646336,8.62110948 240.000831,8.81469839 C239.98896,8.8160949 239.977082,8.81742046 239.965195,8.81867499 L96.6076532,23.9494801 C94.9599512,24.1233883 93.4832443,22.9286424 93.309336,21.2809404 C93.30505,21.2403321 93.3015935,21.1996405 93.2989687,21.158891 L93.1841497,19.3763472 C93.0811023,17.7765542 94.2540241,16.3784262 95.8473701,16.2017768 Z" id="Path-14" fill="#ACACAC"></path>
            <path d="M108.491352,45.4309904 L155.948338,31.4873327 C157.537996,31.0202644 159.205302,31.9303034 159.67237,33.5199617 C159.708082,33.6415039 159.736058,33.765186 159.756133,33.8902651 L174.614258,126.467682 L174.614258,126.467682 C175.347941,137.112335 170.215312,143.931656 159.21637,146.925644 C148.217428,149.919632 140.092834,145.664449 134.84259,134.160095 L106.491516,49.2595394 C105.966725,47.6879923 106.815288,45.9885744 108.386836,45.4637834 C108.421472,45.4522172 108.456317,45.4412844 108.491352,45.4309904 Z" id="Path-15" fill="#8AC071"></path>
            <rect id="Rectangle" fill="#ACACAC" transform="translate(44.000000, 21.000000) rotate(-26.000000) translate(-44.000000, -21.000000) " x="29" y="6" width="30" height="30" rx="3"></rect>
            <rect id="Rectangle" fill="#C27A58" transform="translate(68.780869, 233.248965) rotate(-24.000000) translate(-68.780869, -233.248965) " x="61.2808695" y="203.748965" width="15" height="59" rx="3"></rect>
            <path d="M74.304418,167.659955 L83.304418,167.659955 C84.9612722,167.659955 86.304418,169.0031 86.304418,170.659955 L86.304418,253.659955 C86.304418,255.316809 84.9612722,256.659955 83.304418,256.659955 L74.304418,256.659955 C72.6475637,256.659955 71.304418,255.316809 71.304418,253.659955 L71.304418,170.659955 C71.304418,169.0031 72.6475637,167.659955 74.304418,167.659955 Z" id="Rectangle" fill="#C27A58" transform="translate(78.804418, 212.159955) rotate(-24.000000) translate(-78.804418, -212.159955) "></path>
            <g id="Group-20" opacity="0.762889317" transform="translate(87.000000, 232.000000) rotate(113.000000) translate(-87.000000, -232.000000) translate(79.000000, 224.000000)" fill="#FFFEFE">
                <path d="M11,0 C11.5010531,0 11.9848924,0.0737009761 12.4412684,0.210853476 L9.07692308,3.8316306 L9.70870754,6.36991883 L12.3989067,6.92307692 L15.7389343,3.40122183 C15.9082312,3.90322028 16,4.44089326 16,5 C16,7.76142375 13.7614237,10 11,10 C8.23857625,10 6,7.76142375 6,5 C6,2.23857625 8.23857625,0 11,0 Z" id="Combined-Shape"></path>
                <polygon id="Rectangle" transform="translate(5.500000, 10.625001) rotate(45.000000) translate(-5.500000, -10.625001) " points="4 5 7 5 7 16.250001 4 16.250001"></polygon>
            </g>
            <rect id="Rectangle" fill="#C27A58" transform="translate(103.059580, 212.518727) rotate(-24.000000) translate(-103.059580, -212.518727) " x="95.5595801" y="177.518727" width="15" height="70" rx="3"></rect>
            <rect id="Rectangle" fill="#82DAFE" transform="translate(30.500000, 75.000000) rotate(-24.000000) translate(-30.500000, -75.000000) " x="12" y="43" width="37" height="64" rx="3"></rect>
            <path d="M24.3636354,77 C22.1212118,75.87168 21,74.1769905 21,71.9159315 C21,68.524343 24.1550398,66.2485559 24.8984637,64.2916621 C25.3940796,62.9870662 25.2158035,61.2231789 24.3636354,59 C29.4138383,62.5277747 32.2506693,65.8771957 32.8741283,69.048263 C33.4975874,72.2193303 31.80499,74.8699093 27.7963361,77 C29.478336,75.4402275 30.3193359,73.745538 30.3193359,71.9159315 C30.3193359,70.086325 29.478336,68.1989832 27.7963361,66.2539062 C27.9753586,67.6717981 27.9753586,68.7442591 27.7963361,69.4712891 C27.6173135,70.1983191 27.2076299,70.7896277 26.5672852,71.2452148 C26.6383234,70.8466176 26.6383234,70.5190785 26.5672852,70.2625977 C26.4962469,70.0061168 26.2934149,69.6013385 25.9587891,69.048263 C25.8555096,70.2448076 25.3237917,71.4419687 24.3636354,72.6397461 C23.4034792,73.8375235 23.4034792,75.2909415 24.3636354,77 Z" id="Path-178" fill="#FFFFFF" opacity="0.697556995" transform="translate(27.000000, 68.000000) rotate(90.000000) translate(-27.000000, -68.000000) "></path>
            <g id="Group-25" transform="translate(795.538712, 254.461288)" fill="#FFFFFF">
                <path d="M1.71102799,1.73016437 L9.19400917,9.29683629 C9.57930519,9.68644151 9.57930519,10.3135585 9.19400917,10.7031637 L1.71102799,18.2698356 C1.3226814,18.6625255 0.68952621,18.6660465 0.296836294,18.2776999 C0.106889429,18.0898539 4.99610312e-14,17.8338159 4.94842262e-14,17.5666719 L4.94842262e-14,2.43332808 C4.98606801e-14,1.88104333 0.44771525,1.43332808 1,1.43332808 C1.267144,1.43332808 1.52318202,1.54021751 1.71102799,1.73016437 Z" id="Path-39" opacity="0.398914156"></path>
                <path d="M1.71102799,10.3015929 L9.19400917,17.8682649 C9.57930519,18.2578701 9.57930519,18.8849871 9.19400917,19.2745923 L1.71102799,26.8412642 C1.3226814,27.2339541 0.68952621,27.2374751 0.296836294,26.8491285 C0.106889429,26.6612825 4.99610312e-14,26.4052445 4.94842262e-14,26.1381005 L4.94842262e-14,11.0047567 C4.98606801e-14,10.4524719 0.44771525,10.0047567 1,10.0047567 C1.267144,10.0047567 1.52318202,10.1116461 1.71102799,10.3015929 Z" id="Path-39" opacity="0.602426438"></path>
                <path d="M1.71102799,17.4444501 L9.19400917,25.011122 C9.57930519,25.4007272 9.57930519,26.0278442 9.19400917,26.4174494 L1.71102799,33.9841213 C1.3226814,34.3768113 0.68952621,34.3803322 0.296836294,33.9919856 C0.106889429,33.8041397 4.99610312e-14,33.5481016 4.94842262e-14,33.2809576 L4.94842262e-14,18.1476138 C4.98606801e-14,17.595329 0.44771525,17.1476138 1,17.1476138 C1.267144,17.1476138 1.52318202,17.2545032 1.71102799,17.4444501 Z" id="Path-39" opacity="0.904126122"></path>
            </g>
            <g id="Group-27" transform="translate(726.841167, 221.330189)" stroke="#FFFFFF">
                <path d="M1.4890213,0 C0.496340434,0.547286987 -1.33226763e-15,1.35206095 -1.33226763e-15,2.4143219 C-1.33226763e-15,3.47658285 0.496340434,4.28135681 1.4890213,4.8286438" id="Path-40"></path>
                <path d="M1.4890213,5 C0.496340434,5.54728699 4.53415083e-13,6.35206095 4.53415083e-13,7.4143219 C4.53415083e-13,8.47658285 0.496340434,9.28135681 1.4890213,9.8286438" id="Path-40"></path>
                <path d="M1.4890213,10 C0.496340434,10.547287 1.1235457e-13,11.352061 1.1235457e-13,12.4143219 C1.1235457e-13,13.4765828 0.496340434,14.2813568 1.4890213,14.8286438" id="Path-40"></path>
            </g>
            <line x1="725" y1="268" x2="725" y2="285.188446" id="Path-42" stroke="#FFFFFF" stroke-width="2"></line>
        </g>
        <g id="digits" transform="translate(161.000000, 67.000000)" fill="#FFFFFF" font-family="AvenirNext-Bold, Avenir Next" font-size="16" font-weight="bold">
            <text id="7" opacity="0.702638899">
                <tspan x="211.832" y="627">7</tspan>
            </text>
            <text id="1" opacity="0.702638899">
                <tspan x="0.832" y="779">1</tspan>
            </text>
            <text id="3" opacity="0.702638899">
                <tspan x="128.832" y="734">3</tspan>
            </text>
            <text id="2" opacity="0.702638899">
                <tspan x="10.832" y="669">2</tspan>
            </text>
            <text id="4" opacity="0.702638899">
                <tspan x="4.832" y="606">4</tspan>
            </text>
            <text id="5" opacity="0.702638899">
                <tspan x="88.832" y="613">5</tspan>
            </text>
            <text id="6" opacity="0.702638899">
                <tspan x="132.832" y="601">6</tspan>
            </text>
            <text id="8" opacity="0.702638899">
                <tspan x="147.832" y="526">8</tspan>
            </text>
            <text id="9" opacity="0.702638899">
                <tspan x="138.832" y="476">9</tspan>
            </text>
            <text id="10" opacity="0.702638899">
                <tspan x="214.664" y="467">10</tspan>
            </text>
            <text id="11" opacity="0.702638899">
                <tspan x="135.664" y="433">11</tspan>
            </text>
            <text id="12" opacity="0.702638899">
                <tspan x="145.664" y="407">12</tspan>
            </text>
            <text id="13" opacity="0.702638899">
                <tspan x="157.664" y="349">13</tspan>
            </text>
            <text id="14" opacity="0.702638899">
                <tspan x="150.664" y="267">14</tspan>
            </text>
            <text id="14" opacity="0.702638899">
                <tspan x="263.664" y="220">14</tspan>
            </text>
            <text id="15" opacity="0.702638899">
                <tspan x="151.664" y="207">15</tspan>
            </text>
            <text id="16" opacity="0.702638899">
                <tspan x="171.664" y="139">16</tspan>
            </text>
            <text id="17" opacity="0.702638899">
                <tspan x="162.664" y="92">17</tspan>
            </text>
            <text id="18" opacity="0.702638899">
                <tspan x="179.664" y="43">18</tspan>
            </text>
            <text id="18" opacity="0.975650606" transform="translate(308.000000, 12.000000) rotate(-84.000000) translate(-308.000000, -12.000000) ">
                <tspan x="297.664" y="17">18</tspan>
            </text>
            <text id="15" opacity="0.702638899">
                <tspan x="261.664" y="173">15</tspan>
            </text>
        </g>
        <g id="legend" transform="translate(10.000000, 43.000000)">
            <rect id="Rectangle" fill="#FFFFFF" opacity="0.648256574" x="0" y="0" width="265" height="266" rx="10"></rect>
            <text id="1.-Комплекс-сжиженно" font-family="AvenirNext-Regular, Avenir Next" font-size="10" font-weight="normal" fill="#727273">
                <tspan x="8.16" y="17">1.  Комплекс сжиженного газа</tspan>
            </text>
            <text id="2.-Складской-логисти" font-family="AvenirNext-Regular, Avenir Next" font-size="10" font-weight="normal" fill="#727273">
                <tspan x="8.305" y="31">2.  Складской логистический центр</tspan>
            </text>
            <text id="3.-Ремонтно-строител" font-family="AvenirNext-Regular, Avenir Next" font-size="10" font-weight="normal" fill="#727273">
                <tspan x="8.53" y="45">3.  Ремонтно-строительная база</tspan>
            </text>
            <text id="4.-Комплекс-перегруз" font-family="AvenirNext-Regular, Avenir Next" font-size="10" font-weight="normal" fill="#727273">
                <tspan x="8.935" y="59">4.  Комплекс перегрузки контейнеров</tspan>
            </text>
            <text id="5.-Автомобильно-желе" font-family="AvenirNext-Regular, Avenir Next" font-size="10" font-weight="normal" fill="#727273">
                <tspan x="9.335" y="72">5.  Автомобильно-железнодор. паромный комплекс</tspan>
            </text>
            <text id="6.-Комплекс-многопро" font-family="AvenirNext-Regular, Avenir Next" font-size="10" font-weight="normal" fill="#727273">
                <tspan x="8.92" y="86">6.  Комплекс многопрофильный «ЮГ-2»</tspan>
            </text>
            <text id="7.-Административно-д" font-family="AvenirNext-Regular, Avenir Next" font-size="10" font-weight="normal" fill="#727273">
                <tspan x="8.96" y="100">7.  Административно-деловой центр</tspan>
            </text>
            <text id="8.-База-портфлота" font-family="AvenirNext-Regular, Avenir Next" font-size="10" font-weight="normal" fill="#727273">
                <tspan x="8.58" y="114">8.  База портфлота</tspan>
            </text>
            <text id="11.-Комплекс-универс" font-family="AvenirNext-Regular, Avenir Next" font-size="10" font-weight="normal" fill="#727273">
                <tspan x="8.75" y="156">11.  Комплекс универсальный погрузочный</tspan>
            </text>
            <text id="9.-Комплекс-перегруз" font-family="AvenirNext-Regular, Avenir Next" font-size="10" font-weight="normal" fill="#727273">
                <tspan x="8.7" y="128">9.  Комплекс перегрузки угля</tspan>
            </text>
            <text id="10.-Комплекс-бункеро" font-family="AvenirNext-Regular, Avenir Next" font-size="10" font-weight="normal" fill="#727273">
                <tspan x="8.83" y="142">10.  Комплекс бункеровочный</tspan>
            </text>
            <text id="12.-Комплекс-перегру" font-family="AvenirNext-Regular, Avenir Next" font-size="10" font-weight="normal" fill="#727273">
                <tspan x="8.8" y="170">12.  Комплекс перегрузки технической серы</tspan>
            </text>
            <text id="13.-Комплекс-наливны" font-family="AvenirNext-Regular, Avenir Next" font-size="10" font-weight="normal" fill="#727273">
                <tspan x="8.75" y="184">13.  Комплекс наливных грузов</tspan>
            </text>
            <text id="14.-Компл.-перевалки" font-family="AvenirNext-Regular, Avenir Next" font-size="10" font-weight="normal" fill="#727273">
                <tspan x="9.385" y="198">14.  Компл. перевалки стабильного газ. концентрата</tspan>
            </text>
            <text id="15.-Комплекс-перевал" font-family="AvenirNext-Regular, Avenir Next" font-size="10" font-weight="normal" fill="#727273">
                <tspan x="8.98" y="212">15.  Комплекс перевалки алюминия и глинозема</tspan>
            </text>
            <text id="16.-Комплексы-генера" font-family="AvenirNext-Regular, Avenir Next" font-size="10" font-weight="normal" fill="#727273">
                <tspan x="9.3" y="226">16.  Комплексы генеральных грузов</tspan>
            </text>
            <text id="17.-Комплекс-интермо" font-family="AvenirNext-Regular, Avenir Next" font-size="10" font-weight="normal" fill="#727273">
                <tspan x="9.15" y="240">17.  Комплекс интермодальный перегрузочный</tspan>
            </text>
            <text id="18.-Комплексы-перегр" font-family="AvenirNext-Regular, Avenir Next" font-size="10" font-weight="normal" fill="#727273">
                <tspan x="9.115" y="254">18.  Комплексы перегрузки навалочных грузов</tspan>
            </text>
        </g>
        <text id="Лужская-губа" opacity="0.965244112" font-family="AvenirNext-MediumItalic, Avenir Next" font-size="21" font-style="italic" font-weight="400" fill="#FFFFFF">
            <tspan x="23.46" y="457">Лужская губа</tspan>
        </text>
        <g id="Group-16" transform="translate(112.000000, 373.000000)">
            <g id="Group-19" opacity="0.649144491" transform="translate(159.000000, 254.000000)" stroke="#FFFFFF" stroke-width="1.5">
                <rect id="Rectangle" x="0.75" y="4.75" width="6.5" height="6.5" rx="2"></rect>
                <circle id="Oval" cx="12" cy="14" r="3.25"></circle>
                <path d="M10.8382719,6.50973876 L13.6284245,1.54946762 C13.8991883,1.06810974 14.5089034,0.897389518 14.9902612,1.16815332 C15.1498857,1.2579421 15.2817868,1.38984313 15.3715755,1.54946762 L18.1617281,6.50973876 C18.4324919,6.99109664 18.2617716,7.60081173 17.7804138,7.87157554 C17.6307321,7.95577146 17.4618894,8 17.2901525,8 L11.7098475,8 C11.1575627,8 10.7098475,7.55228475 10.7098475,7 C10.7098475,6.82826314 10.754076,6.6594204 10.8382719,6.50973876 Z" id="Path-31"></path>
            </g>
            <g id="Group-21" opacity="0.698933919" transform="translate(18.000000, 344.000000)" stroke-width="1.5">
                <rect id="Rectangle" stroke="#FFFDFD" x="0.75" y="0.75" width="19.5" height="12.5" rx="2"></rect>
                <line x1="7.2366333" y1="0.600006104" x2="7.2366333" y2="13" id="Path-33" stroke="#FFFFFF"></line>
                <line x1="14" y1="1" x2="14" y2="12.6857605" id="Path-33" stroke="#FFFFFF"></line>
                <line x1="-1.42039158e-14" y1="7" x2="21" y2="7" id="Path-32" stroke="#FFFFFF"></line>
            </g>
            <g id="Group-26" opacity="0.697108677" transform="translate(132.000000, 275.000000)" fill="#FFFFFF">
                <rect id="Rectangle" x="1" y="0" width="14" height="7"></rect>
                <circle id="Oval" cx="1" cy="9" r="1"></circle>
                <circle id="Oval" cx="4" cy="9" r="1"></circle>
                <circle id="Oval" cx="12" cy="9" r="1"></circle>
                <circle id="Oval" cx="15" cy="9" r="1"></circle>
            </g>
            <g id="Group-22" opacity="0.599429176" transform="translate(0.000000, 281.000000)" stroke="#FFFFFF">
                <rect id="Rectangle" stroke-width="1.5" x="0.75" y="0.75" width="30.5" height="12.5" rx="2"></rect>
                <line x1="7" y1="3" x2="7" y2="11" id="Path-34" stroke-width="2"></line>
                <line x1="13" y1="3" x2="13" y2="11" id="Path-34" stroke-width="2"></line>
                <line x1="19" y1="3" x2="19" y2="11" id="Path-34" stroke-width="2"></line>
                <line x1="25" y1="3" x2="25" y2="11" id="Path-34" stroke-width="2"></line>
            </g>
            <g id="bunker" opacity="0.696720668" transform="translate(264.000000, 172.000000)" fill="#FFFFFF">
                <path d="M12.5,4.94209606 C11.0587688,5.7644025 9.06382115,6.19230769 6.5,6.19230769 C3.94406582,6.19230769 1.9535105,5.76703114 0.513316505,4.94967374 L0.627821101,13.1456623 C1.31077298,13.9863117 3.74330632,14.5 6.5,14.5 C9.27877977,14.5 11.6919434,13.9627435 12.5,13.1237665 L12.5,4.94209606 Z" id="Combined-Shape" stroke="#FFFFFF"></path>
                <ellipse id="Oval" cx="6.5" cy="2.5" rx="6.5" ry="2"></ellipse>
            </g>
            <g id="Group-24" opacity="0.753726051" transform="translate(204.000000, 78.000000)" fill="#FFFFFF">
                <circle id="Oval" cx="6" cy="1" r="1"></circle>
                <circle id="Oval" cx="9" cy="1" r="1"></circle>
                <circle id="Oval" cx="10.5" cy="3" r="1"></circle>
                <circle id="Oval" cx="7.5" cy="3" r="1"></circle>
                <circle id="Oval" cx="4.5" cy="3" r="1"></circle>
                <circle id="Oval" cx="9" cy="5" r="1"></circle>
                <circle id="Oval" cx="7.5" cy="7" r="1"></circle>
                <circle id="Oval" cx="10.5" cy="7" r="1"></circle>
                <circle id="Oval" cx="4.5" cy="7" r="1"></circle>
                <circle id="Oval" cx="1.5" cy="7" r="1"></circle>
                <circle id="Oval" cx="13.5" cy="7" r="1"></circle>
                <circle id="Oval" cx="6" cy="5" r="1"></circle>
                <circle id="Oval" cx="3" cy="5" r="1"></circle>
                <circle id="Oval" cx="12" cy="5" r="1"></circle>
            </g>
            <text id="S" opacity="0.701208205" font-family="AvenirNext-DemiBold, Avenir Next" font-size="12" font-weight="500" fill="#FFFFFF">
                <tspan x="196.556" y="86">S</tspan>
            </text>
            <g id="Group-23" transform="translate(189.000000, 196.000000)" opacity="0.695257278" stroke="#FFFFFF">
                <circle id="Oval" cx="3.48321025" cy="1.33333333" r="1"></circle>
                <line x1="3.46442668" y1="2.50625038" x2="3.5" y2="8.16133881" id="Path-35"></line>
                <path d="M1.40138245,6.2667834 L-3.43428989e-14,5.63594309 C0.363342285,7.60830265 1.52441237,8.59448242 3.48321025,8.59448242 C5.44200812,8.59448242 6.59055583,7.60830265 6.92885335,5.63594309 L5.50368754,6.2667834" id="Path-36"></path>
            </g>
            <g id="coal" transform="translate(185.000000, 144.000000)" fill="#4C4C4C">
                <path d="M3,3.21533203 C3,3.21533203 3.62792969,2.14355469 4.88378906,0 L6.4309082,4.3125 L4.88378906,5 C3.62792969,3.81022135 3,3.21533203 3,3.21533203 Z" id="Path-180"></path>
                <path d="M0,7.20263672 C0,7.20263672 0.582356771,6.13509115 1.74707031,4 L4.296875,6 L2.1484375,8.21777344 C0.716145833,7.54101563 0,7.20263672 0,7.20263672 Z" id="Path-180"></path>
                <path d="M3.7800293,8.63671875 C3.7800293,8.63671875 4.93277995,7.45825195 7.23828125,5.10131836 L9.00146484,7.63671875 L6.74707031,8.63671875 C4.76904297,8.63671875 3.7800293,8.63671875 3.7800293,8.63671875 Z" id="Path-180"></path>
                <path d="M9.39111328,5.20263672 C9.39111328,5.20263672 10.1368001,4.80175781 11.6281738,4 L13.9404297,5.20263672 L13.2617188,7.25048828 L11.390625,8.20263672 C10.0576172,6.20263672 9.39111328,5.20263672 9.39111328,5.20263672 Z" id="Path-180"></path>
                <path d="M7,3 C7,3 7.18969727,2 7.5690918,0 L10.8850098,2.5 L8.72192383,4 C7.57397461,3.33333333 7,3 7,3 Z" id="Path-180"></path>
            </g>
            <path d="M139.705872,261 C141.035191,261 142.205998,261.874804 142.582817,263.149597 L142.582817,263.149597 L143.794909,267.250149 C143.930928,267.710306 144,268.187648 144,268.667487 L144,268.667487 L144,271.454545 C144,272.00683 143.552285,272.454545 143,272.454545 L143,272.454545 L142.538528,272.454545 C141.986244,272.454545 141.538528,272.00683 141.538528,271.454545 L141.538528,271.454545 L141.538528,270.441711 L132.626233,270.441711 L132.626233,271.454545 C132.626233,272.00683 132.178518,272.454545 131.626233,272.454545 L131.626233,272.454545 L131,272.454545 C130.447715,272.454545 130,272.00683 130,271.454545 L130,271.454545 L130,268.231744 C130,268.040884 130.02732,267.851006 130.081129,267.667889 L130.081129,267.667889 L131.407458,263.154217 C131.782733,261.877111 132.954663,261 134.285765,261 L134.285765,261 Z M139.356998,261.819861 L134.594258,261.819861 C133.733362,261.819861 132.969062,262.370764 132.696862,263.187494 L132.696862,263.187494 L132.092233,265.001661 C132.058254,265.103614 132.040931,265.210378 132.040931,265.317845 C132.040931,265.870129 132.488646,266.317845 133.040931,266.317845 L133.040931,266.317845 L140.907772,266.317845 C141.014813,266.317845 141.12116,266.300659 141.222753,266.266943 C141.746925,266.092984 142.030829,265.527036 141.85687,265.002864 L141.85687,265.002864 L141.255194,263.189899 C140.983735,262.37194 140.218826,261.819861 139.356998,261.819861 L139.356998,261.819861 Z M131.590909,269.420239 C132.11809,269.420239 132.545455,268.992874 132.545455,268.465693 C132.545455,267.938512 132.11809,267.511148 131.590909,267.511148 C131.063728,267.511148 130.636364,267.938512 130.636364,268.465693 C130.636364,268.992874 131.063728,269.420239 131.590909,269.420239 Z M142.409091,267.511148 C142.936272,267.511148 143.363636,267.938512 143.363636,268.465693 C143.363636,268.992874 142.936272,269.420239 142.409091,269.420239 C141.88191,269.420239 141.454545,268.992874 141.454545,268.465693 C141.454545,267.938512 141.88191,267.511148 142.409091,267.511148 Z M140.181818,267.82933 L140.181818,269.102057 L133.818182,269.102057 L133.818182,267.82933 L140.181818,267.82933 Z" id="Combined-Shape" fill="#FFFFFF" opacity="0.700003488"></path>
        </g>
        <g id="close_button" opacity="0.750255766" transform="translate(509.000000, 11.000000)" stroke="#B6B6B6" stroke-width="3">
            <line x1="24" y1="8" x2="8" y2="24" id="Path-14"></line>
            <line x1="8.05599869" y1="8.12187357" x2="23.7483064" y2="23.8141813" id="Path-14"></line>
            <rect id="Rectangle" fill-opacity="0.35" fill="#D8D8D8" x="1.5" y="1.5" width="29" height="29" rx="5"></rect>
        </g>
        <g id="info_button" transform="translate(235.000000, 441.000000)">
            <circle id="Oval" stroke="#56A7E8" stroke-width="3" fill="#FFFFFF" cx="16" cy="16" r="14.5"></circle>
            <rect id="Rectangle" fill="#56A7E8" x="13" y="14" width="6" height="12" rx="3"></rect>
            <circle id="Oval" fill="#56A7E8" cx="16" cy="9" r="3"></circle>
        </g>
        <g id="rails_2" transform="translate(49.277496, 0.000000)">
            <path d="M57,900 C100.24128,875.405672 128.671039,859.405672 142.289276,852 C162.716632,840.891492 165.08844,833.092377 188.25351,830 C211.418579,826.907623 213.722504,832.607727 231.222504,830 C252.479347,826.832455 294.243929,812.287813 300.699799,797.335236 C306.699371,783.439498 300.699799,768.24421 295.971584,744.880371 C291.24337,721.516532 291.172988,719.29238 285.722504,668.447388 C284.05453,652.887647 298.084191,619.319474 301.722504,583.731804 C305.285827,548.877633 299.167082,507 304.222504,494 C309.958355,479.250278 319.689514,476 322.470306,463 C324.756471,452.312347 320.494805,330.506878 328.722504,269 C330.502623,255.692562 340.522102,232.946855 342.923386,228.144287 C351.101383,211.788293 387.500137,170.451981 403.918259,151.269943 C420.33638,132.087906 424.094467,135 430.222504,99.3095703" id="Path-162" stroke="#949494" stroke-width="4"></path>
            <path d="M293.22702,731 C289.557343,714.958995 280.055837,706.938492 264.722504,706.938492 C241.722504,706.938492 235.110077,720 221.722504,729.68576 C212.797455,736.142934 141.015208,765.629999 6.37576294,818.146954" id="Path-163" stroke="#949494" stroke-width="4"></path>
            <path d="M39.4610901,804.920765 C26.3560689,813.738224 16.7485758,822.097969 10.6386108,830 C1.47366333,841.853046 -4.57536124,861.478061 6.37576294,881.759552 C17.3268871,902.041043 50.7767639,901.299072 63.2496338,895.829224 C71.5648804,892.182658 78.8160706,883.209401 85.0032043,868.909454" id="Path-43" stroke="#949494" stroke-width="4"></path>
            <path d="M161.99675,756.423859 C178.625137,744.019908 185.921132,730.878621 183.884735,717 C181.848338,703.121379 175.326691,694.627502 164.319794,691.518372" id="Path-44" stroke="#949494" stroke-width="4"></path>
            <path d="M167.769547,753.900116 C179.265895,749.482727 186.680735,743.92276 190.014069,737.220215 C193.347402,730.51767 194.250214,722.007512 192.722504,711.689743" id="Path-45" stroke="#949494" stroke-width="4"></path>
            <path d="M190.862442,744.177887 C199.435816,740.987966 204.722504,737.193647 206.722504,732.79493 C208.722504,728.396212 209.055837,723.131236 207.722504,717" id="Path-46" stroke="#949494" stroke-width="4"></path>
            <path d="M254.986526,707.82089 C260.800542,706.303476 264.505044,704.061147 266.100032,701.093903 C267.695019,698.126658 268.569177,695.644079 268.722504,693.646164" id="Path-47" stroke="#949494" stroke-width="4"></path>
            <path d="M258.232616,706.938492 C265.223377,705.913508 269.706552,704.600677 271.682141,703 C273.657729,701.399323 274.991062,697.999455 275.682141,692.800396" id="Path-48" stroke="#949494" stroke-width="4"></path>
            <path d="M294.971584,804.920765 C310.805531,786.614547 328.222504,775.477663 347.222504,771.510112 C366.222504,767.542561 417.38917,764.553431 500.722504,762.542723" id="Path-164" stroke="#949494" stroke-width="4"></path>
            <path d="M347.222504,771.510112 C328.14649,772.935789 315.479823,771.847155 309.222504,768.24421 C302.965184,764.641266 298.214878,755.226529 294.971584,740" id="Path-165" stroke="#949494" stroke-width="4"></path>
            <path d="M285.787582,778.640587 C291.89145,775.765429 295.718329,773.198706 297.268219,770.94042 C298.818109,768.682134 299.41191,764.807651 299.049622,759.316971" id="Path-49" stroke="#949494" stroke-width="4"></path>
            <path d="M292.470082,792.027793 C296.407541,790.648247 298.968374,787.882897 300.152582,783.731744 C301.33679,779.58059 301.003457,771.442333 299.152582,759.316971" id="Path-50" stroke="#949494" stroke-width="4"></path>
            <path d="M472.454376,763 C436.989227,764.867071 412.120117,760.484754 397.847044,749.853046 C376.437435,733.905486 374.152367,718.84494 376.437435,693.646164 C378.722504,668.447388 396.222504,641.465693 397.847044,607.657318 C399.471584,573.848943 392.722504,423 396.222504,373 C399.722504,323 407.769003,271.809655 419.722504,181 C427.691504,120.46023 435.513933,60.1268968 443.189789,2.27373675e-13" id="Path-166" stroke="#949494" stroke-width="4"></path>
            <path d="M324.183792,326.968994 C324.183792,315.430664 314.378233,264 317.91095,242 C321.443667,220 329.842957,196 333.356049,175 C335.69811,161 338.887222,109.903004 342.923386,21.7090115" id="Path-51" stroke="#949494" stroke-width="4"></path>
            <path d="M414.406631,140 C408.144621,147.303031 403.916579,153.026198 401.722504,157.169501 C399.528429,161.312804 397.695095,165.589637 396.222504,170" id="Path-52" stroke="#949494" stroke-width="4"></path>
            <line x1="303.222504" y1="464.5" x2="302.722504" y2="499.654785" id="Path-53" stroke="#949494" stroke-width="4"></line>
            <path d="M296.722504,614.722473 C297.191146,608.358745 297.191146,604.076331 296.722504,601.875231 C294.335447,590.66381 290.222504,582.236313 290.222504,573.5 C290.222504,566.778541 290.596832,534.629205 291.345487,477.051994 C291.374198,474.843048 289.606777,473.02906 287.397831,473.000338 C287.380497,473.000113 287.363161,473 287.345825,473 L285.722504,473 L285.722504,473" id="Path-167" stroke="#949494" stroke-width="4"></path>
            <path d="M292.398245,586.702911 C289.826557,577.876321 287.432741,572.419795 285.216797,570.333333 C283.000853,568.246872 279.363442,566.599907 274.304565,565.392441" id="Path-168" stroke="#949494" stroke-width="4"></path>
            <path d="M281.222504,495 C283.992584,496.303975 286.268438,498.463303 288.050064,501.477982 C289.83169,504.492661 290.722504,511 290.722504,521" id="Path-170" stroke="#949494" stroke-width="4"></path>
            <path d="M299.152582,601.875231 C302.509476,585.795245 313.389979,579.956543 314.188446,570.333333 C314.986913,560.710123 314.188446,543.614639 314.188446,531.614639 C314.188446,519.614639 303.222504,519.144775 302.722504,497.144775" id="Path-54" stroke="#949494" stroke-width="4"></path>
            <g id="Group-17" transform="translate(0.522504, 0.000000)" stroke="#F5F4F4" stroke-dasharray="6,6" stroke-linecap="round" stroke-width="2">
                <path d="M56.505992,900 C99.7472722,875.405672 128.177031,859.405672 141.795268,852 C162.222624,840.891492 164.594432,833.092377 187.759502,830 C210.924571,826.907623 213.228496,832.607727 230.728496,830 C251.985339,826.832455 293.749921,812.287813 300.205791,797.335236 C306.205363,783.439498 300.205791,768.24421 295.477576,744.880371 C290.749362,721.516532 290.67898,719.29238 285.228496,668.447388 C283.560522,652.887647 297.590183,619.319474 301.228496,583.731804 C304.791819,548.877633 298.673074,507 303.728496,494 C309.464347,479.250278 319.195506,476 321.976298,463 C324.262463,452.312347 320.000797,330.506878 328.228496,269 C330.008615,255.692562 340.028094,232.946855 342.429378,228.144287 C350.607375,211.788293 387.006129,170.451981 403.424251,151.269943 C419.842372,132.087906 423.600459,135 429.728496,99.3095703" id="Path-162"></path>
                <path d="M292.733012,731 C289.063335,714.958995 279.561829,706.938492 264.228496,706.938492 C241.228496,706.938492 234.616069,720 221.228496,729.68576 C212.303447,736.142934 140.5212,765.629999 5.881755,818.146954" id="Path-163"></path>
                <path d="M38.967082,804.920765 C25.8620608,813.738224 16.2545677,822.097969 10.1446027,830 C0.979655223,841.853046 -5.06936935,861.478061 5.88175483,881.759552 C16.832879,902.041043 50.2827558,901.299072 62.7556257,895.829224 C71.0708723,892.182658 78.3220624,883.209401 84.5091962,868.909454" id="Path-43"></path>
                <path d="M161.502742,756.423859 C178.131129,744.019908 185.427125,730.878621 183.390727,717 C181.35433,703.121379 174.832683,694.627502 163.825786,691.518372" id="Path-44"></path>
                <path d="M167.275538,753.900116 C178.771886,749.482727 186.186727,743.92276 189.52006,737.220215 C192.853393,730.51767 193.756205,722.007512 192.228495,711.689743" id="Path-45"></path>
                <path d="M190.368434,744.177887 C198.941808,740.987966 204.228496,737.193647 206.228496,732.79493 C208.228496,728.396212 208.561829,723.131236 207.228496,717" id="Path-46"></path>
                <path d="M254.492518,707.82089 C260.306534,706.303476 264.011035,704.061147 265.606023,701.093903 C267.201011,698.126658 268.075168,695.644079 268.228495,693.646164" id="Path-47"></path>
                <path d="M257.738608,706.938492 C264.72937,705.913508 269.212545,704.600677 271.188133,703 C273.163721,701.399323 274.497055,697.999455 275.188133,692.800396" id="Path-48"></path>
                <path d="M294.477576,804.920765 C310.311522,786.614547 327.728495,775.477663 346.728495,771.510112 C365.728495,767.542561 416.895162,764.553431 500.228495,762.542723" id="Path-164"></path>
                <path d="M346.728495,771.510112 C327.652481,772.935789 314.985815,771.847155 308.728495,768.24421 C302.471176,764.641266 297.720869,755.226529 294.477576,740" id="Path-165"></path>
                <path d="M285.293574,778.640587 C291.397442,775.765429 295.224321,773.198706 296.774211,770.94042 C298.324101,768.682134 298.917901,764.807651 298.555613,759.316971" id="Path-49"></path>
                <path d="M291.976074,792.027793 C295.913533,790.648247 298.474366,787.882897 299.658574,783.731744 C300.842782,779.58059 300.509448,771.442333 298.658574,759.316971" id="Path-50"></path>
                <path d="M471.960368,763 C436.495219,764.867071 411.626108,760.484754 397.353035,749.853046 C375.943427,733.905486 373.658358,718.84494 375.943427,693.646164 C378.228495,668.447388 395.728495,641.465693 397.353035,607.657318 C398.977576,573.848943 392.228495,423 395.728495,373 C399.228495,323 407.274994,271.809655 419.228495,181 C427.197496,120.46023 435.019924,60.1268968 442.69578,0" id="Path-166"></path>
                <path d="M323.689784,326.968994 C323.689784,315.430664 313.884224,264 317.416941,242 C320.949658,220 329.348948,196 332.86204,175 C335.204101,161 338.393214,109.903004 342.429377,21.7090115" id="Path-51"></path>
                <path d="M413.912624,140 C407.650614,147.303031 403.422571,153.026198 401.228496,157.169501 C399.034421,161.312804 397.201088,165.589637 395.728496,170" id="Path-52"></path>
                <line x1="302.728496" y1="464.5" x2="302.228496" y2="499.654785" id="Path-53"></line>
                <path d="M296.228496,614.722473 C296.697139,608.358745 296.697139,604.076331 296.228496,601.875231 C293.841439,590.66381 289.728496,582.236313 289.728496,573.5 C289.728496,566.778541 290.102824,534.629205 290.85148,477.051994 C290.88019,474.843048 289.11277,473.02906 286.903824,473.000338 C286.886489,473.000113 286.869154,473 286.851818,473 L285.228496,473 L285.228496,473" id="Path-167"></path>
                <path d="M291.904236,586.702911 C289.332548,577.876321 286.938733,572.419795 284.722788,570.333333 C282.506844,568.246872 278.869434,566.599907 273.810557,565.392441" id="Path-168"></path>
                <path d="M280.728496,495 C283.498577,496.303975 285.77443,498.463303 287.556056,501.477982 C289.337683,504.492661 290.228496,511 290.228496,521" id="Path-170"></path>
                <path d="M298.658574,601.875231 C302.015468,585.795245 312.895971,579.956543 313.694438,570.333333 C314.492905,560.710123 313.694438,543.614639 313.694438,531.614639 C313.694438,519.614639 302.728495,519.144775 302.228495,497.144775" id="Path-54"></path>
            </g>
        </g>
        <text id="Морской-торговый-пор" font-family="AvenirNext-DemiBold, Avenir Next" font-size="24" font-weight="500" fill="#7D7D7D">
            <tspan x="12.432" y="29">Морской торговый порт Усть-Луга</tspan>
        </text>
    </g>
</svg>