<?xml version="1.0" encoding="UTF-8"?>
<svg width="2560px" height="712px" viewBox="0 0 2560 712" version="1.1" xmlns="http://www.w3.org/2000/svg" xmlns:xlink="http://www.w3.org/1999/xlink">
    <title>Vyborg</title>
    <g id="Vyborg" stroke="none" stroke-width="1" fill="none" fill-rule="evenodd">
        <rect id="Rectangle" fill="#D8E8F7" x="0" y="0" width="2560" height="712" rx="20"></rect>
        <line x1="0.611140738" y1="58.3905249" x2="56.7688565" y2="50.98948" id="Path-55" stroke="#FFFFFF" stroke-width="14"></line>
        <path d="M5.68434189e-14,454.049957 L5.68434189e-14,691.972098 C6.174884e-14,703.017793 8.954305,711.972098 20,711.972098 C20.0092941,711.972098 20.0185882,711.972092 20.0278823,711.972079 L717.299988,711 L717.299988,711 C718.940204,702.671654 716.506875,697.904991 710,696.700012 C700.239688,694.892544 667.350006,700.940002 659.52002,700.299988 C651.690033,699.659973 595.564868,679.549729 566.640015,674.200012 C547.356779,670.633534 521.07677,668.746856 487.799988,668.539978 C434.701147,665.457976 398.434485,660.594654 379,653.950012 C359.565515,647.30537 345.895517,635.095369 337.990005,617.320007 C327.347134,593.799117 315.303794,577.165775 301.859985,567.419983 C288.416177,557.674191 265.826183,549.200863 234.090004,542 C181.743751,528.084638 142.59375,516.251304 116.639999,506.5 C90.6862492,496.748696 51.8062494,479.265348 5.68434189e-14,454.049957 Z" id="Path-431" fill="#DFF1E1"></path>
        <path d="M46.2599983,0.2800293 L74.9700012,137.97998 L115.740005,232 L124.830002,240.939972 L624.329987,429.5 L633.870026,435.789978 L1580.13,431.970001 L1612.08002,540 C1639.57247,553.482017 1664.26248,563.625358 1686.15002,570.430023 C1708.03757,577.234688 1744.24757,586.024677 1794.78003,596.799988 L2155.67993,712 L2540.03562,711.315551 C2551.06739,711.295906 2560,702.347371 2560,691.315582 L2560,20.2800293 C2560,9.2343343 2551.04569,0.2800293 2540,0.2800293 L46.2599983,0.2800293 L46.2599983,0.2800293 Z" id="Path-432" fill="#DFF1E1"></path>
        <path d="M109.85403,53.8392729 L60.4513869,62.1690757 C59.3621915,62.3527255 58.6281018,63.3845703 58.8117515,64.4737657 C58.8177238,64.5091867 58.8246494,64.5444403 58.8325205,64.5794882 L75.5582717,139.054193 C75.5860268,139.177778 75.6254593,139.298447 75.676038,139.414574 L115.619261,231.1228 C115.699303,231.306572 115.806515,231.477267 115.937306,231.629164 L122.968155,239.794594 C123.185922,240.047502 123.463516,240.241894 123.775642,240.360055 L626.106364,430.526988 C626.182052,430.555641 626.255932,430.588862 626.327595,430.626468 L634.869537,435.108893 C635.158772,435.26067 635.480779,435.339297 635.807414,435.337901 L1578.8779,431.306495 C1579.77723,431.30265 1580.56853,431.899555 1580.81186,432.765351 L1610.92307,539.905636 C1611.08569,540.48425 1611.4999,540.959056 1612.0511,541.198682 L1666.69183,564.952978 C1666.76387,564.984299 1666.8377,565.011348 1666.91293,565.033984 L1700.03366,575.000047 C1700.0779,575.013358 1700.12258,575.025132 1700.16764,575.035349 L1796.85771,596.96132 C1796.91255,596.973755 1796.96683,596.988496 1797.02043,597.005505 L2069.72775,683.556596 C2070.70163,683.865684 2071.7519,683.391001 2072.1634,682.455772 L2076.45289,672.706834 C2076.89774,671.695804 2076.43876,670.51558 2075.42773,670.070731 C2075.34222,670.03311 2075.25419,670.001526 2075.16427,669.97621 L2069.78826,668.462615 C2068.72503,668.163266 2068.10578,667.058676 2068.40513,665.995443 C2068.41185,665.971543 2068.41903,665.94777 2068.42664,665.924137 L2085.41461,613.196934 C2085.74223,612.180064 2086.8112,611.600222 2087.84223,611.880118 L2225.21278,649.172354 C2226.27876,649.46174 2227.37751,648.832179 2227.6669,647.766192 C2227.67461,647.737776 2227.6817,647.709193 2227.68815,647.680464 L2231.81826,629.290379 C2232.02824,628.355418 2231.54556,627.402902 2230.66742,627.019338 L2007.8498,529.693931 C2007.52889,529.553757 2007.25041,529.331778 2007.04221,529.050197 L1989.05911,504.728788 C1988.40241,503.840632 1988.59004,502.58828 1989.4782,501.931583 C1989.99294,501.550991 1990.65875,501.439797 1991.26923,501.632475 L2304.61722,600.53179 C2304.71892,600.56389 2304.82303,600.587804 2304.92855,600.603302 L2535.27114,634.436067 C2536.26136,634.581511 2537.20663,633.972601 2537.48365,633.010857 L2542.53195,615.483979 C2542.81932,614.486255 2542.29543,613.434548 2541.32593,613.062919 L2465.70535,584.076044 C2464.74791,583.70904 2463.66802,584.125563 2463.20501,585.040442 L2459.40212,592.554766 C2458.95324,593.441747 2457.92102,593.864397 2456.97897,593.546948 L2359.95989,560.853851 C2359.85352,560.818006 2359.75035,560.773269 2359.65149,560.720115 L2261.02301,507.694022 C2260.08952,507.192147 2258.92661,507.505619 2258.37183,508.408667 L2244.00572,531.793236 C2243.51231,532.596402 2242.52506,532.946015 2241.63615,532.632374 L2048.86703,464.616375 C2047.8254,464.248849 2047.27893,463.1065 2047.64645,462.064868 C2047.66888,462.00131 2047.6945,461.938927 2047.72323,461.877957 L2051.6686,453.503415 C2051.88176,453.05096 2051.91766,452.535059 2051.76922,452.057444 L2048.09939,440.249861 C2047.94587,439.755918 2047.60695,439.340661 2047.1538,439.091272 L2021.29954,424.862781 C2021.12748,424.768091 2020.9703,424.648573 2020.83307,424.508077 L2013.98158,417.493461 C2013.65735,417.161506 2013.22777,416.952624 2012.76645,416.902597 L1987.17625,414.127554 C1986.4508,414.048885 1985.74008,414.371555 1985.32181,414.969481 L1970.95238,435.510791 C1970.86442,435.636521 1970.79123,435.771955 1970.73424,435.91442 L1967.97896,442.802558 C1967.56873,443.828124 1966.40479,444.326952 1965.37922,443.916721 C1965.36587,443.911379 1965.35257,443.905893 1965.33933,443.900264 L1854.3361,396.695753 C1853.40306,396.298972 1852.91454,395.266766 1853.19925,394.293651 L1865.38486,352.644235 C1865.4149,352.541571 1865.43665,352.436662 1865.44991,352.330518 L1872.14367,298.741294 C1872.1678,298.548121 1872.16359,298.35246 1872.13119,298.160501 L1870.83861,290.5033 C1870.69598,289.658381 1870.03097,288.998194 1869.18503,288.861729 L1860.37641,287.440728 C1860.12771,287.400607 1859.87367,287.407833 1859.62765,287.462026 L1843.11445,291.09954 C1842.93236,291.139652 1842.74554,291.154102 1842.55945,291.14247 L1837.5502,290.829376 C1837.24098,290.810048 1836.93149,290.862827 1836.64615,290.983549 L1832.88489,292.574867 C1832.56702,292.70935 1832.28937,292.923806 1832.07893,293.197378 L1827.26256,299.458664 C1827.08947,299.683651 1826.96627,299.942912 1826.90115,300.219203 C1822.23637,320.008031 1819.10265,334.268297 1817.5,343 C1815.92666,351.572014 1814.76254,360.625617 1814.00764,370.160809 C1813.96984,370.638337 1813.76189,371.086435 1813.42164,371.423608 L1810.39877,374.41905 C1809.87077,374.942263 1809.09615,375.129483 1808.38747,374.905166 L1782.16109,366.603745 C1781.1584,366.286363 1780.0812,366.799793 1779.6963,367.778555 L1768.57253,396.064793 C1768.16829,397.092733 1767.00727,397.598337 1765.97933,397.194093 C1765.93006,397.174718 1765.88159,397.153395 1765.83401,397.130174 L1754.46368,391.580362 C1753.47104,391.095859 1752.27358,391.507785 1751.78908,392.500423 C1751.78805,392.502523 1751.78703,392.504625 1751.78601,392.506728 L1747.79382,400.759107 C1747.344,401.688925 1746.26013,402.123261 1745.2927,401.761372 L1730.97506,396.405551 C1730.91173,396.381862 1730.84964,396.354978 1730.78904,396.325001 L1680.54931,371.474298 C1680.50311,371.451443 1680.4578,371.42681 1680.4135,371.400455 L1614.83979,332.390244 C1614.62842,332.264502 1614.44206,332.100853 1614.29006,331.90751 L1610.00761,326.460401 C1609.83124,326.236062 1609.6089,326.052065 1609.35553,325.920768 L1513.76891,276.387168 C1513.66981,276.335811 1513.56658,276.292841 1513.4603,276.258708 L1439.17066,252.398475 C1438.41652,252.156262 1437.87638,251.491814 1437.79328,250.704106 L1431.1471,187.704383 C1431.0588,186.867391 1431.50395,186.064679 1432.26069,185.696304 L1453.12271,175.540802 C1454.08772,175.071041 1454.50991,173.923329 1454.07934,172.940205 L1444.70608,151.538114 C1444.32437,150.666546 1443.38147,150.184563 1442.45147,150.385618 L1279.21969,185.674183 C1278.14007,185.907584 1277.07564,185.221582 1276.84224,184.141953 C1276.81705,184.0254 1276.80232,183.906826 1276.79825,183.78765 L1276.27948,168.607062 C1276.24175,167.503137 1275.31626,166.638811 1274.21234,166.676536 C1274.11136,166.679986 1274.0108,166.691083 1273.9115,166.70973 L1223.1202,176.248148 C1222.12963,176.434174 1221.1758,175.781957 1220.98977,174.791379 C1220.98812,174.782592 1220.98654,174.773794 1220.98502,174.764984 C1220.82038,173.811226 1219.91373,173.171519 1218.95998,173.336159 C1218.9282,173.341644 1218.89658,173.348005 1218.86516,173.355235 L1135.96415,192.428116 C1134.8877,192.675773 1133.8143,192.003904 1133.56665,190.927457 C1133.5655,190.922453 1133.56436,190.917444 1133.56325,190.912432 L1133.43382,190.329354 C1133.19824,189.268037 1132.15802,188.589273 1131.0917,188.801073 L942.084875,226.343127 C942.028318,226.354361 941.972274,226.368035 941.916898,226.384112 L880.114815,244.326652 C880.03834,244.348854 879.963259,244.375604 879.889974,244.406759 L845.377021,259.078749 C845.312384,259.106227 845.246345,259.130282 845.179178,259.150812 L678.992195,309.947369 C678.877635,309.982386 678.760161,310.007039 678.641189,310.021031 L662.821009,311.88166 C662.660935,311.900487 662.499171,311.899894 662.339239,311.879896 L553.264458,298.24064 C552.192184,298.106558 551.207316,298.848477 551.040325,299.916121 L549.55778,309.394647 C549.387089,310.485948 548.364041,311.232249 547.27274,311.061558 C547.141264,311.040994 547.012168,311.007359 546.887373,310.961153 L354.260684,239.640947 C354.009459,239.547931 353.779481,239.405391 353.584401,239.22179 L322.958938,210.398382 C322.729559,210.1825 322.452432,210.02385 322.150127,209.935352 L238.731313,185.515022 C238.697111,185.505009 238.663182,185.494084 238.629563,185.482258 L202.94532,172.930036 C202.88847,172.910039 202.832552,172.887482 202.777738,172.862434 L175.78178,160.526493 C175.713975,160.495509 175.647955,160.460758 175.58403,160.422403 L169.802253,156.953359 C169.524896,156.786946 169.292038,156.555746 169.123647,156.279586 L137.938471,105.135923 C137.899524,105.072051 137.857025,105.010414 137.811172,104.951303 L123.137103,86.0341228 C123.006541,85.865808 122.903707,85.677716 122.832488,85.4769572 L112.071466,55.1427661 C111.746795,54.2275529 110.811609,53.677815 109.85403,53.8392729 Z" id="Path-433" stroke="#D7B7B7" stroke-width="2" fill="#FFFFFF"></path>
        <text id="Единая-производствен" font-family="AvenirNext-Regular, Avenir Next" font-size="12" font-weight="normal" fill="#B1B1B1">
            <tspan x="537.576" y="330">Единая производственная зона</tspan>
        </text>
        <path d="M626.069955,346.544984 L634.756425,431.974562 C634.860567,432.998777 635.72521,433.776619 636.754697,433.772227 L1580.50792,429.746422 C1581.40724,429.742586 1582.19853,430.339489 1582.44185,431.205279 L1612.55756,538.361521 C1612.71761,538.931 1613.12154,539.400414 1613.66079,539.643589 L1666.31007,563.385863 C1666.38993,563.421876 1666.47207,563.452604 1666.55596,563.477846 L1699.66366,573.439988 C1699.7079,573.453299 1699.75258,573.465074 1699.79764,573.47529 L1796.48669,595.401028 C1796.54221,595.413618 1796.59716,595.428573 1796.65141,595.445852 L2068.39952,682.007855 C2069.3555,682.31237 2070.38915,681.861469 2070.81626,680.95362 L2074.20881,673.742662 C2074.65891,672.785963 2074.28662,671.644208 2073.35909,671.136707 L2067.8866,668.142401 C2067.03765,667.677894 2066.64305,666.672207 2066.9496,665.754324 L2085.03064,611.614595 C2085.3669,610.607747 2086.43117,610.038992 2087.4551,610.318943 L2223.90655,647.625827 C2224.97202,647.917133 2226.0719,647.289554 2226.3632,646.22409 C2226.36541,646.216022 2226.36757,646.207941 2226.36967,646.199846 L2230.38032,630.772477 C2230.62777,629.820632 2230.14647,628.830139 2229.24521,628.436474 L2006.51792,531.150518 C2006.17298,530.99985 2005.87756,530.754899 2005.66562,530.443824 L1986.28598,501.998966 C1985.66406,501.086123 1985.89989,499.841947 1986.81274,499.220022 C1987.31994,498.874463 1987.95771,498.780909 1988.54279,498.966243 L2304.24687,598.971444 C2304.34881,599.003735 2304.45317,599.027799 2304.55895,599.043404 L2533.97526,632.885844 C2534.93302,633.027129 2535.85446,632.462135 2536.16291,631.54446 L2541.0669,616.954344 C2541.40523,615.947762 2540.89791,614.85226 2539.91142,614.459194 L2467.12743,585.458634 C2466.26255,585.114023 2465.27426,585.411773 2464.74369,586.176806 L2459.10713,594.304183 C2458.59953,595.036095 2457.66909,595.344125 2456.82502,595.059694 L2359.59389,562.295138 C2359.48487,562.258401 2359.37922,562.212325 2359.27812,562.157424 L2261.65622,509.144698 C2260.72201,508.637379 2259.55415,508.949563 2258.99768,509.855365 L2244.63687,533.23132 C2244.14293,534.035328 2243.15423,534.384721 2242.2648,534.069578 L2047.4933,465.058089 C2046.45215,464.68919 2045.90718,463.546121 2046.27608,462.504974 C2046.2983,462.442276 2046.32363,462.380725 2046.35198,462.32055 L2050.29861,453.943356 C2050.51176,453.490902 2050.54766,452.975001 2050.39922,452.497385 L2046.73405,440.704791 C2046.57776,440.201947 2046.22948,439.781026 2045.76477,439.533377 L2020.94236,426.305039 C2020.76188,426.208857 2020.59722,426.085562 2020.45412,425.939454 L2012.63539,417.956319 C2012.2967,417.610503 2011.84408,417.399255 2011.36149,417.361754 L1987.7396,415.526165 C1987.04968,415.472554 1986.38107,415.779395 1985.97185,416.337428 L1971.62102,435.906757 C1971.5076,436.061417 1971.41702,436.231587 1971.35206,436.412039 L1968.56762,444.14652 C1968.19347,445.185794 1967.04767,445.72499 1966.0084,445.350847 C1965.97226,445.337837 1965.9365,445.323788 1965.90117,445.308718 L1852.96356,397.136709 C1852.03171,396.739239 1851.54423,395.707777 1851.8287,394.735457 L1864.01487,353.084177 C1864.0449,352.981512 1864.06665,352.876603 1864.07991,352.770459 L1870.78599,299.082567 C1870.802,298.954439 1870.80555,298.825062 1870.79662,298.696248 L1870.33989,292.113223 C1870.27555,291.185943 1869.58085,290.425211 1868.6632,290.277177 L1860.00641,288.880669 C1859.75771,288.840548 1859.50367,288.847775 1859.25765,288.901968 L1842.74445,292.539481 C1842.56236,292.579593 1842.37555,292.594043 1842.18945,292.582412 L1837.35982,292.280544 C1836.93752,292.254149 1836.51774,292.362363 1836.16083,292.589624 L1832.37938,294.997476 C1832.14888,295.144248 1831.95091,295.336699 1831.79767,295.562952 L1828.81814,299.962146 C1828.69355,300.146127 1828.60047,300.34958 1828.54275,300.564153 C1823.20613,320.402344 1819.73522,334.694273 1818.13,343.439941 C1816.56752,351.952798 1815.72104,360.94062 1815.59057,370.403406 C1815.58237,370.997955 1815.31005,371.558029 1814.8475,371.931661 L1810.97463,375.060016 C1810.46998,375.467651 1809.79897,375.6052 1809.17464,375.428992 L1782.75205,367.971588 C1781.76313,367.692478 1780.72361,368.208176 1780.34755,369.164445 L1769.20253,397.504734 C1768.79829,398.532674 1767.63727,399.038279 1766.60933,398.634034 C1766.56007,398.61466 1766.51159,398.593337 1766.46401,398.570116 L1755.09368,393.020303 C1754.10104,392.535801 1752.90358,392.947726 1752.41908,393.940365 C1752.41805,393.942465 1752.41703,393.944566 1752.41601,393.94667 L1748.40856,402.230584 C1747.96518,403.147104 1746.90404,403.584266 1745.94373,403.246026 L1730.62399,397.850084 C1730.54807,397.823343 1730.47383,397.792044 1730.40169,397.756357 L1680.17931,372.914239 C1680.13311,372.891384 1680.08781,372.866751 1680.0435,372.840396 L1614.45346,333.820473 C1614.25272,333.70105 1614.07445,333.547385 1613.92673,333.366445 L1608.63432,326.883711 C1608.45998,326.670168 1608.24339,326.49497 1607.99812,326.369116 L1513.39564,277.824674 C1513.29871,277.774934 1513.19787,277.733197 1513.09414,277.699881 L1439.35425,254.016218 C1438.34652,253.692557 1437.2611,254.210075 1436.87816,255.196798 L1420.8803,296.417744 C1420.55982,297.243505 1419.73436,297.760104 1418.85158,297.687375 L1308.60185,288.604352 C1307.59992,288.521807 1306.81498,287.708348 1306.76823,286.704116 L1305.41594,257.657924 C1305.1591,252.141052 1300.47858,247.876958 1294.96171,248.133803 C1294.68125,248.14686 1294.40147,248.171722 1294.1231,248.208323 L1200.87,260.470001 C1145.63305,269.631753 1096.34306,276.801746 1053,281.97998 C1009.65694,287.158215 944.25694,294.328218 856.799988,303.48999 L856.799988,303.48999 L707.205996,339.220364 C707.095538,339.246747 706.983035,339.263673 706.869704,339.270961 L627.931358,344.346789 C626.829065,344.417668 625.992938,345.368711 626.063817,346.471004 C626.065405,346.4957 626.067451,346.520364 626.069955,346.544984 Z" id="Path-433" stroke="#DF87E0" fill="#FDF4FF" stroke-dasharray="1,1"></path>
        <text id="Единая-операционая-з" font-family="AvenirNext-Regular, Avenir Next" font-size="12" font-weight="normal" fill="#A85FB8">
            <tspan x="1318.292" y="343">Единая операционая зона причалов № 6-13</tspan>
        </text>
        <path d="M116.820007,231.539978 L136.979996,212.859985 L119,163.540039 L117.630005,155.26001 L133.740005,138.339966 L151.740005,129 L136.800003,105.040039 L122.400002,86.1400146 L110.790001,54.5499878 L59.4000015,62.8300171 L76.2299995,138.429993 L116.820007,231.539978 Z" id="Path-447" stroke="#43F5D5" fill="#D3FFF6" stroke-dasharray="1"></path>
        <text id="Пассажирский-кластер" transform="translate(103.217224, 105.114929) rotate(34.000000) translate(-103.217224, -105.114929) " font-family="AvenirNext-Regular, Avenir Next" font-size="10" font-weight="normal" fill="#12A587">
            <tspan x="67.9322241" y="101.114929">Пассажирский </tspan>
            <tspan x="84.6572241" y="115.114929">кластер</tspan>
        </text>
        <text id="Выборгский-залив" opacity="0.965244112" font-family="AvenirNext-MediumItalic, Avenir Next" font-size="21" font-style="italic" font-weight="400" fill="#FFFFFF">
            <tspan x="1283.0985" y="662">Выборгский залив</tspan>
        </text>
        <text id="Южная-гавань" opacity="0.965244112" font-family="AvenirNext-MediumItalic, Avenir Next" font-size="21" font-style="italic" font-weight="400" fill="#FFFFFF">
            <tspan x="232.7755" y="460">Южная гавань</tspan>
        </text>
        <g id="prich" transform="translate(54.000000, 162.000000)" fill="#B1CBE4" font-family="AvenirNext-Bold, Avenir Next" font-size="18" font-weight="bold">
            <text id="2">
                <tspan x="122" y="123">2</tspan>
            </text>
            <text id="3">
                <tspan x="242" y="169">3</tspan>
            </text>
            <text id="4">
                <tspan x="373" y="218">4</tspan>
            </text>
            <text id="1">
                <tspan x="0" y="18">1</tspan>
            </text>
            <text id="5">
                <tspan x="487" y="261">5</tspan>
            </text>
            <text id="6">
                <tspan x="653" y="323">6</tspan>
            </text>
            <text id="7">
                <tspan x="846" y="322">7</tspan>
            </text>
            <text id="8">
                <tspan x="998" y="323">8</tspan>
            </text>
            <text id="9">
                <tspan x="1256" y="323">9</tspan>
            </text>
            <text id="10">
                <tspan x="1405" y="323">10</tspan>
            </text>
            <text id="11">
                <tspan x="1511" y="346">11</tspan>
            </text>
            <text id="12">
                <tspan x="1648" y="436">12</tspan>
            </text>
            <text id="13">
                <tspan x="1855" y="535">13</tspan>
            </text>
        </g>
        <g id="rails" transform="translate(380.500000, 259.940002)">
            <g id="Group" transform="translate(0.500000, 0.059998)" stroke="#8C8C8C" stroke-width="3">
                <path d="M2178.75999,438.84318 C2139.21644,432.75788 2083.52308,427.207882 2011.67992,422.193186 C1903.91517,414.671141 1708.91991,406.803202 1688.21996,404.603189 C1667.52,402.403177 1629.47997,394.573191 1594.37999,385.853159 C1570.98001,380.039804 1456.94001,343.879811 1252.25999,277.373178" id="Path-434"></path>
                <path d="M1255.75999,270.293161 C1490.4134,345.399851 1613.80007,385.053191 1625.92003,389.253183 C1638.03998,393.453175 1659.85663,398.673166 1691.36998,404.913157" id="Path-2"></path>
                <path d="M1274.94005,206.013193 C1572.41995,300.273183 1731.89997,350.103179 1753.38011,355.503183 C1774.86025,360.903187 1916.1002,383.879852 2177.09996,424.433176" id="Path-3"></path>
                <path d="M1278.17998,198.273172 C1545.98666,284.133178 1690.18,330.753183 1710.75999,338.133188 C1731.33999,345.513193 1769.48664,355.653187 1825.19994,368.553171" id="Path-4"></path>
                <path d="M2177.10008,418.59318 C2018.48664,394.233174 1933.47997,380.846506 1922.08006,378.433176 C1904.98021,374.813181 1881.18437,371.945633 1854.35997,362.793161 C1836.47703,356.691514 1810.25702,345.711513 1775.69994,329.853159 L1548.41002,231.033182 C1505.04137,212.032567 1472.5947,196.942561 1451.06999,185.763163 C1429.54529,174.583765 1402.0353,158.533767 1368.54002,137.613169" id="Path-5"></path>
                <path d="M2177.10008,411.713205 L1930.71996,374.133188 C1903.39113,369.309669 1881.69118,364.826332 1865.6201,360.683176 C1849.54902,356.54002 1827.02896,349.623354 1798.05992,339.933176" id="Path-6"></path>
                <path d="M1829.34007,353.253183 C1851.12513,362.87032 1869.18511,369.930318 1883.52,374.433176 C1897.8549,378.936034 1915.70487,383.156025 1937.06993,387.093149" id="Path-7"></path>
                <path d="M2177.09996,405.633158 L1950.6599,369.813181 C1932.72927,367.690614 1915.1793,364.360607 1898.00999,359.82316 C1872.25604,353.01699 1841.04002,341.273203 1815.1201,332.993174 C1797.84015,327.473154 1759.86009,315.626495 1701.17992,297.453196" id="Path-8"></path>
                <path d="M2177.09996,399.513193 L1950.1201,363.783182 C1934.35567,361.664148 1918.57564,358.514154 1902.78001,354.3332 C1886.98439,350.152246 1862.61769,342.185572 1829.67992,330.433176 L1642.41997,271.933176" id="Path-9"></path>
                <path d="M2177.82005,385.293161 L1955.52,350.933176 C1931.93854,347.42051 1913.84853,344.053852 1901.24998,340.8332 C1888.65144,337.612549 1869.63146,331.492534 1844.19005,322.473154 L1537.75999,222.033152 C1521.79548,217.037573 1502.28881,209.777583 1479.23998,200.253183 C1456.19114,190.728784 1419.65114,174.828779 1369.61998,152.553171 C1356.86287,147.427324 1343.03621,140.860654 1328.14,132.853159 C1313.24378,124.845664 1290.41045,111.70567 1259.64,93.433176 C1187.67332,53.1664931 1141.23332,28.4131565 1120.31999,19.1731663 C1099.40666,9.93317604 1077.44668,3.54212061 1054.44005,8.52651283e-14" id="Path-10"></path>
                <path d="M2177.10008,392.133188 L1945.6201,355.953196 C1931.3596,354.150741 1918.18956,351.664067 1906.10997,348.493174 C1894.03038,345.322281 1876.0004,339.618942 1852.02,331.383158 L1707.75999,284.673166 C1699.67665,282.408032 1689.44334,278.734693 1677.06004,273.653147 C1664.67675,268.571601 1647.09675,260.831611 1624.32005,250.433176" id="Path-11"></path>
                <path d="M357.759995,75.433176 C384.258034,69.6785495 405.074705,65.6118788 420.210007,63.2331638 C435.345309,60.8544489 460.125297,58.167783 494.549973,55.1731663 C611.009974,44.4931532 673.079981,38.9131565 680.759995,38.433176 C688.440008,37.9531956 785.279994,37.7865289 971.279953,37.933176 C994.762338,37.4893286 1027.79235,39.5926612 1070.36998,44.2431736 C1112.94761,48.893686 1143.5176,53.737019 1162.07994,58.7731724 C1188.10172,65.5771771 1207.48173,71.463845 1220.21996,76.433176 C1232.95818,81.4025071 1251.73819,90.4025071 1276.55998,103.433176" id="Path-12"></path>
                <path d="M358.019974,75.5131931 L465.750015,51.393198 C597.836746,38.7398777 667.360092,32.173207 674.320053,31.6931858 C684.759995,30.9731541 845.460068,29.5331516 898.290024,31.5531712 C933.509995,32.8998508 969.389979,35.3131809 1005.92998,38.7931614" id="Path-13"></path>
                <path d="M1070.14,29.9731541 C1099.15751,34.5268262 1123.02417,39.7301648 1141.73998,45.5831699 C1160.45578,51.4361751 1188.14579,62.3561783 1224.80998,78.3431797" id="Path-14"></path>
                <path d="M1576.61998,243.453196 C1511.069,220.305635 1463.83569,204.765636 1434.92003,196.8332 C1391.54654,184.934547 1359.96729,179.770716 1329.37999,174.433176 C1298.79269,169.095636 1294.08376,166.771223 1250.27995,164.613169 C1221.07742,163.174466 1174.81743,162.667792 1111.49998,163.093149 L296.819992,165.433176 C285.33271,165.052576 275.132718,163.502578 266.220016,160.783182 C252.850964,156.704089 249.633519,154.690803 217.439987,141.213175 C185.246455,127.735547 179.119569,123.306857 154.979965,114.213205 C130.840361,105.119554 111.599991,100.433176 104.939987,98.8332004 C100.499985,97.7665501 65.519989,84.4565423 0,58.9031773" id="Path-15"></path>
                <path d="M1431.35997,195.84318 C1386.83995,181.143167 1349.03996,170.493174 1317.96001,163.893198 C1271.34007,153.993235 1248.83,156.513163 1211.92998,155.523172 C1175.02995,154.533182 1141.02,156.103128 1131.66002,155.973154 C1122.30003,155.84318 1114.02,162.733164 1104.53001,163.093149" id="Path-16"></path>
                <path d="M295.559982,159.973154 C746.093308,157.993194 973.883306,157.123209 978.929977,157.363199 C986.499985,157.723185 999.630112,163.173166 1007.82005,163.533182" id="Path-17"></path>
                <path d="M1053.71996,98.5931797 L356.849991,100.713205 C337.661816,101.004667 320.298484,101.664661 304.759995,102.693186 C289.221505,103.721711 264.888172,105.821707 231.759995,108.993174 C210.620644,110.382511 193.847308,110.862511 181.439987,110.433176 C169.032667,110.003841 151.512667,108.337174 128.87999,105.433176" id="Path-18"></path>
                <path d="M1484.46001,212.223185 C1447.63868,197.26183 1420.09866,185.561828 1401.83995,177.123178 C1383.58124,168.684529 1356.40127,155.094522 1320.30003,136.353159 C1300.12868,126.364712 1282.78868,119.824713 1268.28001,116.733164 C1246.51702,112.09584 1231.42998,109.0832 1190.21001,108.633188 C1148.99004,108.183176 1029.25999,110.613199 1000.18999,108.813181 C980.809982,107.613169 940.573308,104.386504 879.479965,99.1331882" id="Path-19"></path>
                <path d="M1209.69994,109.08317 C1191.60997,108.273172 1147.09348,99.9594465 1122.30003,96.6131687 C1105.77107,94.3823168 1084.33774,92.5689827 1058.00005,91.1731663 C885.106695,91.2931817 792.300013,91.6531874 779.580002,92.2531834 C760.499985,93.1531773 728.820053,100.353159 701.459946,99.9931736" id="Path-20"></path>
                <path d="M2179,438.410004 C2139.45645,432.324704 2083.76309,426.774706 2011.91992,421.76001 C1904.15517,414.237965 1709.15991,406.370026 1688.45996,404.170013 C1667.76001,401.970001 1629.71997,394.140015 1594.62,385.419983 C1571.22001,379.606628 1457.18001,343.446635 1252.5,276.940002" id="Path-434"></path>
            </g>
            <g id="Group-2" transform="translate(0.740005, 0.059998)" stroke="#D9D9D9" stroke-dasharray="5,4" stroke-width="1.5">
                <path d="M2179.25999,438.870001 C2139.71644,432.784702 2084.02308,427.234704 2012.17992,422.220007 C1904.41517,414.697963 1709.41991,406.830023 1688.71996,404.630011 C1668.02,402.429999 1629.97997,394.600012 1594.87999,385.87998 C1571.48001,380.066626 1457.44001,343.906632 1252.75999,277.4" id="Path-434"></path>
                <path d="M1255.75999,270.293161 C1490.4134,345.399851 1613.80007,385.053191 1625.92003,389.253183 C1638.03998,393.453175 1659.85663,398.673166 1691.36998,404.913157" id="Path-2"></path>
                <path d="M1274.94005,206.013193 C1572.41995,300.273183 1731.89997,350.103179 1753.38011,355.503183 C1774.86025,360.903187 1916.1002,383.879852 2177.09996,424.433176" id="Path-3"></path>
                <path d="M1278.17998,198.273172 C1545.98666,284.133178 1690.18,330.753183 1710.75999,338.133188 C1731.33999,345.513193 1769.48664,355.653187 1825.19994,368.553171" id="Path-4"></path>
                <path d="M2177.10008,418.59318 C2018.48664,394.233174 1933.47997,380.846506 1922.08006,378.433176 C1904.98021,374.813181 1881.18437,371.945633 1854.35997,362.793161 C1836.47703,356.691514 1810.25702,345.711513 1775.69994,329.853159 L1548.41002,231.033182 C1505.04137,212.032567 1472.5947,196.942561 1451.06999,185.763163 C1429.54529,174.583765 1402.0353,158.533767 1368.54002,137.613169" id="Path-5"></path>
                <path d="M2177.10008,411.713205 L1930.71996,374.133188 C1903.39113,369.309669 1881.69118,364.826332 1865.6201,360.683176 C1849.54902,356.54002 1827.02896,349.623354 1798.05992,339.933176" id="Path-6"></path>
                <path d="M1829.34007,353.253183 C1851.12513,362.87032 1869.18511,369.930318 1883.52,374.433176 C1897.8549,378.936034 1915.70487,383.156025 1937.06993,387.093149" id="Path-7"></path>
                <path d="M2177.09996,405.633158 L1950.6599,369.813181 C1932.72927,367.690614 1915.1793,364.360607 1898.00999,359.82316 C1872.25604,353.01699 1841.04002,341.273203 1815.1201,332.993174 C1797.84015,327.473154 1759.86009,315.626495 1701.17992,297.453196" id="Path-8"></path>
                <path d="M2177.09996,399.513193 L1950.1201,363.783182 C1934.35567,361.664148 1918.57564,358.514154 1902.78001,354.3332 C1886.98439,350.152246 1862.61769,342.185572 1829.67992,330.433176 L1642.41997,271.933176" id="Path-9"></path>
                <path d="M2177.82005,385.293161 L1955.52,350.933176 C1931.93854,347.42051 1913.84853,344.053852 1901.24998,340.8332 C1888.65144,337.612549 1869.63146,331.492534 1844.19005,322.473154 L1537.75999,222.033152 C1521.79548,217.037573 1502.28881,209.777583 1479.23998,200.253183 C1456.19114,190.728784 1419.65114,174.828779 1369.61998,152.553171 C1356.86287,147.427324 1343.03621,140.860654 1328.14,132.853159 C1313.24378,124.845664 1290.41045,111.70567 1259.64,93.433176 C1187.67332,53.1664931 1141.23332,28.4131565 1120.31999,19.1731663 C1099.40666,9.93317604 1077.44668,3.54212061 1054.44005,0" id="Path-10"></path>
                <path d="M2177.10008,392.133188 L1945.6201,355.953196 C1931.3596,354.150741 1918.18956,351.664067 1906.10997,348.493174 C1894.03038,345.322281 1876.0004,339.618942 1852.02,331.383158 L1707.75999,284.673166 C1699.67665,282.408032 1689.44334,278.734693 1677.06004,273.653147 C1664.67675,268.571601 1647.09675,260.831611 1624.32005,250.433176" id="Path-11"></path>
                <path d="M357.759995,75.433176 C384.258034,69.6785495 405.074705,65.6118788 420.210007,63.2331638 C435.345309,60.8544489 460.125297,58.167783 494.549973,55.1731663 C611.009974,44.4931532 673.079981,38.9131565 680.759995,38.433176 C688.440008,37.9531956 785.279994,37.7865289 971.279953,37.933176 C994.762338,37.4893286 1027.79235,39.5926612 1070.36998,44.2431736 C1112.94761,48.893686 1143.5176,53.737019 1162.07994,58.7731724 C1188.10172,65.5771771 1207.48173,71.463845 1220.21996,76.433176 C1232.95818,81.4025071 1251.73819,90.4025071 1276.55998,103.433176" id="Path-12"></path>
                <path d="M358.019974,75.5131931 L465.750015,51.393198 C597.836746,38.7398777 667.360092,32.173207 674.320053,31.6931858 C684.759995,30.9731541 845.460068,29.5331516 898.290024,31.5531712 C933.509995,32.8998508 969.389979,35.3131809 1005.92998,38.7931614" id="Path-13"></path>
                <path d="M1070.14,29.9731541 C1099.15751,34.5268262 1123.02417,39.7301648 1141.73998,45.5831699 C1160.45578,51.4361751 1188.14579,62.3561783 1224.80998,78.3431797" id="Path-14"></path>
                <path d="M1576.61998,243.453196 C1511.069,220.305635 1463.83569,204.765636 1434.92003,196.8332 C1391.54654,184.934547 1359.96729,179.770716 1329.37999,174.433176 C1298.79269,169.095636 1294.08376,166.771223 1250.27995,164.613169 C1221.07742,163.174466 1174.81743,162.667792 1111.49998,163.093149 L296.819992,165.433176 C285.33271,165.052576 275.132718,163.502578 266.220016,160.783182 C252.850964,156.704089 249.633519,154.690803 217.439987,141.213175 C185.246455,127.735547 179.119569,123.306857 154.979965,114.213205 C130.840361,105.119554 111.599991,100.433176 104.939987,98.8332004 C100.499985,97.7665501 65.519989,84.4565423 -2.27373675e-13,58.9031773" id="Path-15"></path>
                <path d="M1431.35997,195.84318 C1386.83995,181.143167 1349.03996,170.493174 1317.96001,163.893198 C1271.34007,153.993235 1248.83,156.513163 1211.92998,155.523172 C1175.02995,154.533182 1141.02,156.103128 1131.66002,155.973154 C1122.30003,155.84318 1114.02,162.733164 1104.53001,163.093149" id="Path-16"></path>
                <path d="M295.559982,159.973154 C746.093308,157.993194 973.883306,157.123209 978.929977,157.363199 C986.499985,157.723185 999.630112,163.173166 1007.82005,163.533182" id="Path-17"></path>
                <path d="M1053.71996,98.5931797 L356.849991,100.713205 C337.661816,101.004667 320.298484,101.664661 304.759995,102.693186 C289.221505,103.721711 264.888172,105.821707 231.759995,108.993174 C210.620644,110.382511 193.847308,110.862511 181.439987,110.433176 C169.032667,110.003841 151.512667,108.337174 128.87999,105.433176" id="Path-18"></path>
                <path d="M1484.46001,212.223185 C1447.63868,197.26183 1420.09866,185.561828 1401.83995,177.123178 C1383.58124,168.684529 1356.40127,155.094522 1320.30003,136.353159 C1300.12868,126.364712 1282.78868,119.824713 1268.28001,116.733164 C1246.51702,112.09584 1231.42998,109.0832 1190.21001,108.633188 C1148.99004,108.183176 1029.25999,110.613199 1000.18999,108.813181 C980.809982,107.613169 940.573308,104.386504 879.479965,99.1331882" id="Path-19"></path>
                <path d="M1209.69994,109.08317 C1191.60997,108.273172 1147.09348,99.9594465 1122.30003,96.6131687 C1105.77107,94.3823168 1084.33774,92.5689827 1058.00005,91.1731663 C885.106695,91.2931817 792.300013,91.6531874 779.580002,92.2531834 C760.499985,93.1531773 728.820053,100.353159 701.459946,99.9931736" id="Path-20"></path>
            </g>
        </g>
        <g id="areas" transform="translate(635.440002, 191.280029)">
            <path d="M1898.56932,436.325915 L1901.15141,428.359641 C1901.63969,426.853206 1900.87298,425.226686 1899.40024,424.644629 L1832.72237,398.292211 C1831.23225,397.703287 1829.54236,398.389278 1828.88435,399.850207 L1826.62411,404.868475 C1825.99572,406.263634 1824.41803,406.962303 1822.96263,406.489935 L1723.17987,374.104267 C1723.00705,374.048177 1722.83969,373.976504 1722.67984,373.89013 L1626.8281,322.096849 C1625.40655,321.328714 1623.632,321.824454 1622.81437,323.218131 L1609.69809,345.57531 C1608.96832,346.819224 1607.45672,347.367853 1606.09899,346.881585 L1413.73197,277.985642 C1412.20065,277.437203 1410.51122,278.208991 1409.92328,279.725581 L1396.1536,315.244275 C1395.55471,316.789104 1396.32154,318.526932 1397.86637,319.125822 C1397.92403,319.148174 1397.98237,319.168739 1398.04129,319.187485 L1671.38332,406.14466 C1671.54088,406.194781 1671.7023,406.231793 1671.86595,406.255316 L1895.28865,438.370388 C1896.73404,438.57815 1898.11907,437.715015 1898.56932,436.325915 Z" id="Path-435" stroke="#A6B493" fill="#D1E1BA"></path>
            <path d="M1094.88746,284.1413 L1417.57028,387.819371 C1419.14771,388.3262 1420.83734,387.458305 1421.34417,385.880874 C1421.35814,385.837388 1421.37112,385.793588 1421.38309,385.749509 L1421.60668,384.926272 C1422.01138,383.436265 1421.21905,381.882413 1419.7754,381.334899 L1154.75985,280.82609 C1154.57377,280.755519 1154.38114,280.703639 1154.18478,280.671216 L1098.52318,271.47994 C1097.06061,271.238429 1095.6409,272.101364 1095.18187,273.510883 L1092.95261,280.356132 C1092.43955,281.931549 1093.30076,283.624592 1094.87618,284.137651 C1094.87994,284.138875 1094.8837,284.140091 1094.88746,284.1413 Z" id="Path-436" stroke="#A6B493" fill="#D1E1BA"></path>
            <path d="M1022.07534,278.919764 L1412.56166,403.094702 C1414.1406,403.596807 1415.01355,405.283828 1414.51144,406.86277 C1414.50941,406.86918 1414.50735,406.875584 1414.50526,406.88198 L1398.94192,454.706852 C1398.43171,456.274697 1396.75187,457.136968 1395.18054,456.637586 L1006.58635,333.139146 C1005.04401,332.648977 1004.16845,331.02382 1004.60751,329.466158 L1018.27872,280.964789 C1018.72823,279.370075 1020.38539,278.441702 1021.98011,278.891208 C1022.01201,278.9002 1022.04376,278.90972 1022.07534,278.919764 Z" id="Path-437" stroke="#A6B493" fill="#D1E1BA"></path>
            <path d="M1217.17496,235.699903 L1285.67944,263.303708 C1287.19179,263.913109 1287.94052,265.618857 1287.36535,267.144556 L1281.87439,281.709998 C1281.28993,283.260344 1279.55933,284.043351 1278.00898,283.458892 C1277.99481,283.453552 1277.98069,283.448105 1277.96661,283.442551 L1219.84467,260.520676 C1219.70838,260.466925 1219.5762,260.403262 1219.44921,260.330198 L1208.82721,254.218888 C1207.50229,253.456608 1206.96236,251.820058 1207.57355,250.419017 L1213.30397,237.282955 C1213.95324,235.794617 1215.66884,235.093015 1217.17496,235.699903 Z" id="Path-438" stroke="#A6B493" fill="#D1E1BA"></path>
            <path d="M1175.86257,230.902398 L1188.08979,194.608893 C1188.7951,192.51537 1187.66972,190.246471 1185.5762,189.541167 C1185.54387,189.530274 1185.51139,189.519795 1185.47879,189.509732 L1150.74276,178.788732 C1148.77753,178.182182 1146.67263,179.164783 1145.87564,181.060779 L1134.58711,207.915438 C1133.81455,209.753293 1134.51329,211.879469 1136.22545,212.900762 L1170.0228,233.060608 C1171.92005,234.192303 1174.3755,233.571698 1175.50719,231.674447 C1175.65273,231.430448 1175.77187,231.171638 1175.86257,230.902398 Z" id="Path-439" stroke="#A6B493" fill="#D1E1BA"></path>
            <path d="M843.151135,182.763233 L941.191187,182.207262 C942.848015,182.197866 944.198755,183.533373 944.208151,185.190201 C944.208243,185.206373 944.208204,185.222546 944.208034,185.238717 L943.911172,213.506344 C943.893881,215.15284 942.552733,216.477684 940.906148,216.474836 L842.867172,216.305225 C841.21032,216.302358 839.8695,214.956891 839.872366,213.300039 C839.872382,213.29103 839.872438,213.282021 839.872535,213.273013 L840.16832,185.730968 C840.185907,184.093401 841.5135,182.77252 843.151135,182.763233 Z" id="Path-440" stroke="#A6B493" fill="#D1E1BA"></path>
            <path d="M715.973335,112.063673 L753.322107,112.47867 C753.400674,112.479543 753.479176,112.483503 753.557431,112.490539 L792.75835,116.015232 C794.300818,116.153921 795.484215,117.443921 795.489675,118.992603 L795.549315,135.910614 C795.555156,137.567458 794.216753,138.91533 792.559909,138.921171 C792.549836,138.921206 792.539763,138.921191 792.52969,138.921125 L715.920358,138.419479 C714.271206,138.40868 712.940002,137.068731 712.940002,135.419543 L712.940002,115.063488 C712.940002,113.406633 714.283148,112.063488 715.940002,112.063488 C715.951113,112.063488 715.962224,112.063549 715.973335,112.063673 Z" id="Path-21" stroke="#A6B493" fill="#D1E1BA"></path>
            <path d="M596.862922,14.303692 L600.415283,41.9824606 C600.626197,43.6258355 602.129396,44.7870738 603.772771,44.5761591 C603.780043,44.5752258 603.787311,44.5742659 603.794576,44.5732793 L644.353574,39.0652921 C644.477721,39.0484326 644.600691,39.0238126 644.72176,38.9915768 L682.807274,28.8509378 C684.300494,28.4533534 685.247447,26.9865665 684.99512,25.4620629 L681.371042,3.56613188 C681.107945,1.97654985 679.636212,0.878650382 678.037557,1.07938137 L599.464763,10.9451699 C597.820817,11.1515877 596.65547,12.6516037 596.861888,14.2955495 C596.862229,14.2982641 596.862573,14.3009783 596.862922,14.303692 Z" id="Path-22" stroke="#A6B493" fill="#D1E1BA"></path>
            <path d="M441.872092,176.143088 L442.027945,215.000024 C442.032739,216.656872 443.381261,217.99462 445.038102,217.987975 C445.03872,217.987972 445.039337,217.98797 445.039946,217.986115 L758.831575,216.533744 C760.479974,216.526114 761.813428,215.189925 761.81768,213.541514 L761.892149,184.669571 C761.896423,183.012723 760.556746,181.666117 758.899897,181.661843 C758.89008,181.661818 758.880262,181.661841 758.870445,181.661912 L742.686605,181.779052 C742.602238,181.779663 742.517882,181.776714 742.433763,181.770214 L623.879788,172.609236 C623.799927,172.603065 623.719851,172.600095 623.639753,172.600332 L444.863161,173.131069 C443.206315,173.135987 441.867162,174.483115 441.872081,176.139962 C441.872084,176.141004 441.872087,176.142046 441.872092,176.143088 Z" id="Path-23" stroke="#A6B493" fill="#D1E1BA"></path>
            <path d="M3.74700715,219.388212 L423.367608,217.731861 C425.024449,217.725321 426.362283,216.376884 426.355743,214.720043 C426.355727,214.715932 426.355702,214.71182 426.355669,214.707709 L426.044005,176.033843 C426.030704,174.383311 424.686566,173.053565 423.035986,173.05803 L226.399994,173.589996 C165.344819,173.514674 119.398153,173.964655 88.5599976,174.939941 C58.7231906,175.883559 30.2201802,177.724031 3.05096634,180.461359 C1.5050207,180.617129 0.333830213,181.927497 0.351915319,183.481166 L0.735368683,216.423154 C0.754548778,218.070892 2.09917089,219.394717 3.74700715,219.388212 Z" id="Path-24" stroke="#A6B493" fill="#D1E1BA"></path>
            <path d="M112.621432,108.043629 L115.75625,119.248024 C116.047889,120.290394 117.11587,120.911594 118.166119,120.649743 L217.670748,95.8410087 C218.706172,95.5828543 219.356544,94.5572677 219.14856,93.5106113 L215.635047,75.8292219 C215.419765,74.745835 214.366985,74.0420973 213.283598,74.2573798 C213.211938,74.2716195 213.141113,74.2897752 213.07144,74.3117651 L113.945505,105.597493 C112.916586,105.922237 112.330722,107.00458 112.621432,108.043629 Z" id="Path-25" stroke="#A6B493" fill="#D1E1BA"></path>
            <path d="M103.307458,149.421113 L260.357309,148.728799 C261.461867,148.72393 262.361237,149.615404 262.366106,150.719963 C262.36611,150.720861 262.366113,150.721759 262.366116,150.722657 L262.39388,159.792744 C262.397261,160.897308 261.504576,161.795476 260.400012,161.798857 C260.397598,161.798864 260.395185,161.798867 260.392771,161.798866 L103.382689,161.7111 C102.284913,161.710486 101.392816,160.825132 101.383874,159.727392 L101.316341,151.437385 C101.307343,150.332852 102.19545,149.430158 103.299982,149.42116 C103.302474,149.421139 103.304966,149.421124 103.307458,149.421113 Z" id="Path-26" stroke="#A6B493" fill="#D1E1BA"></path>
            <path d="M280.222146,148.836357 L424.556357,148.573594 C425.660924,148.571583 426.557983,149.465382 426.559994,150.56995 C426.559996,150.571163 426.559998,150.572377 426.559998,150.573591 L426.559998,160.327801 C426.559998,161.43237 425.664567,162.327801 424.559998,162.327801 C424.555955,162.327801 424.551912,162.327788 424.547869,162.327764 L280.15214,161.452113 C279.047591,161.445415 278.157607,160.544571 278.164305,159.440022 C278.16431,159.439305 278.164315,159.438587 278.16432,159.43787 L278.225838,150.822074 C278.233674,149.724525 279.12457,148.838355 280.222146,148.836357 Z" id="Path-27" stroke="#A6B493" fill="#D1E1BA"></path>
            <path d="M423.239704,143.085355 L281.155495,143.344464 C279.498644,143.347486 278.153051,142.006792 278.150029,140.34994 C278.150026,140.348116 278.150024,140.346293 278.150024,140.344469 L278.150024,127.822761 C278.150024,126.26983 279.335134,124.973591 280.881848,124.834771 L423.253869,112.056678 C424.90409,111.908569 426.361925,113.126271 426.510035,114.776492 C426.519066,114.877114 426.523008,114.978127 426.521847,115.079147 L426.234035,140.119839 C426.215172,141.761004 424.880975,143.082361 423.239704,143.085355 Z" id="Path-28" stroke="#A6B493" fill="#D1E1BA"></path>
            <path d="M259.946981,143.839225 L153.204445,143.800725 C152.147197,143.800344 151.290437,142.942966 151.290819,141.885718 C151.290834,141.843771 151.292228,141.801835 151.294998,141.759979 L151.324625,141.312372 C151.386314,140.380624 152.08454,139.615557 153.006786,139.469197 C172.595158,136.360545 188.539562,134.08414 200.839996,132.639984 C213.146442,131.195122 232.680398,129.306516 259.441865,126.974166 C260.542259,126.878273 261.512048,127.692573 261.607951,128.792966 C261.61149,128.83357 261.613787,128.874273 261.614838,128.915018 L261.947036,141.78763 C261.975532,142.891831 261.1035,143.810064 259.999298,143.83856 C259.981862,143.83901 259.964422,143.839232 259.946981,143.839225 Z" id="Path-29" stroke="#A6B493" fill="#D1E1BA"></path>
            <path d="M341.433569,75.4996567 L335.414129,38.8655024 C335.150337,37.26007 336.214293,35.7369694 337.812452,35.4321955 L483.081726,7.72889267 C484.682213,7.4236749 486.233727,8.45170923 486.576549,10.0445645 L488.735094,20.0738092 C489.083707,21.6935729 488.053237,23.2892581 486.433473,23.6378717 C486.41259,23.6423662 486.39166,23.6466375 486.370686,23.6506849 L369.861394,46.1339344 C368.259859,46.4429887 367.198687,47.9749849 367.472357,49.5829436 L371.053583,70.624524 C371.331578,72.2578901 370.232832,73.8073543 368.599466,74.0853493 C368.593491,74.0863663 368.587513,74.0873651 368.581531,74.0883459 L344.88045,77.9745418 C343.245655,78.2415724 341.703139,77.1340355 341.433569,75.4996567 Z" id="Path-30" stroke="#A6B493" fill="#D1E1BA"></path>
            <path d="M493.824682,93.5860356 L665.663787,93.9337274 C667.320638,93.9370798 668.666498,92.5966545 668.669851,90.9398036 C668.669908,90.9114724 668.669564,90.8831419 668.668819,90.8548204 L668.120056,70 C668.163392,66.4533488 667.211712,63.8133443 665.265017,62.0799866 C663.318321,60.3466288 659.949973,59.6699626 655.159973,60.0499878 L655.159973,60.0499878 L493.445891,82.0679031 C491.963208,82.2697754 490.855997,83.5333775 490.850637,85.0297305 L490.830771,90.575295 C490.824836,92.2321386 492.163161,93.5800872 493.820005,93.5860225 C493.821564,93.5860281 493.823123,93.5860324 493.824682,93.5860356 Z" id="Path-31" stroke="#A6B493" fill="#D1E1BA"></path>
            <path d="M370.07494,50.6485373 L374.413719,72.3847082 C374.629937,73.4679087 375.683325,74.1707363 376.766525,73.9545175 C376.774459,73.9529338 376.782384,73.9513019 376.790299,73.9496219 L418.018695,65.1983993 C419.099192,64.9690509 419.789184,63.9072116 419.559836,62.8267149 C419.558787,62.8217729 419.557719,62.8168348 419.556632,62.8119009 L414.978004,42.0183454 C414.745244,40.9612817 413.713776,40.2812062 412.650512,40.4837655 L371.661965,48.2923727 C370.57691,48.4990833 369.864871,49.5462663 370.071582,50.6313214 C370.072676,50.6370649 370.073795,50.6428036 370.07494,50.6485373 Z" id="Path-51" stroke="#74A3A9" fill="#AADBE2"></path>
            <path d="M444.954945,36.2485129 L449.293723,57.9846838 C449.509942,59.0678843 450.56333,59.7707118 451.64653,59.5544931 C451.654464,59.5529094 451.662389,59.5512775 451.670303,59.5495975 L492.8987,50.7983749 C493.979197,50.5690265 494.669189,49.5071872 494.43984,48.4266905 C494.438791,48.4217485 494.437724,48.4168104 494.436637,48.4118765 L489.858009,27.618321 C489.625249,26.5612572 488.593781,25.8811818 487.530517,26.0837411 L446.54197,33.8923482 C445.456915,34.0990589 444.744876,35.1462419 444.951587,36.231297 C444.952681,36.2370405 444.9538,36.2427792 444.954945,36.2485129 Z" id="Path-51" stroke="#74A3A9" fill="#AADBE2"></path>
            <path d="M452.143381,119.131109 L488.901205,118.96883 C490.005763,118.963953 490.905138,119.855422 490.910015,120.959981 C490.910028,120.962924 490.910034,120.965867 490.910034,120.96881 L490.910034,146.22325 C490.910034,147.322628 490.022691,148.215894 488.923337,148.223206 L452.319963,148.466678 C451.215425,148.475054 450.314058,147.585599 450.306711,146.481054 C450.306709,146.480711 450.306707,146.480368 450.307734,146.480018 L450.152248,121.143363 C450.14547,120.038814 451.035388,119.137905 452.139937,119.131127 C452.141085,119.13112 452.142233,119.131114 452.143381,119.131109 Z" id="Path-442" stroke="#74A3A9" fill="#AADBE2"></path>
            <line x1="1101.92004" y1="363.219971" x2="1118.52002" y2="310.799988" id="Path-445" stroke="#A6B493" fill="#D1E1BA"></line>
            <line x1="1299.56" y1="425.139954" x2="1316.15997" y2="372.719971" id="Path-445" stroke="#A6B493"></line>
            <line x1="1199.56" y1="396.139954" x2="1216.15997" y2="343.719971" id="Path-445" stroke="#A6B493"></line>
            <line x1="155.120026" y1="174.759949" x2="155.120026" y2="218.899963" id="Path-446" stroke="#A6B493" fill="#D1E1BA"></line>
            <line x1="250.559998" y1="174.719971" x2="250.559998" y2="218.859985" id="Path-446" stroke="#A6B493" fill="#D1E1BA"></line>
            <line x1="352.559998" y1="174.719971" x2="352.559998" y2="218.859985" id="Path-446" stroke="#A6B493" fill="#D1E1BA"></line>
            <line x1="523.559998" y1="173.719971" x2="523.559998" y2="217.859985" id="Path-446" stroke="#A6B493" fill="#D1E1BA"></line>
            <line x1="632.559998" y1="173.719971" x2="632.559998" y2="217.859985" id="Path-446" stroke="#A6B493" fill="#D1E1BA"></line>
            <line x1="1608.53009" y1="347.839966" x2="1596.56" y2="382.389954" id="Path-52" stroke="#A6B493" fill="#D1E1BA"></line>
            <path d="M667.7845,120.225342 L668.095163,145.346989 C668.108821,146.451474 667.224532,147.357909 666.120046,147.371567 C666.115678,147.371621 666.111309,147.371661 666.10694,147.371686 L492.927851,148.378256 C491.8233,148.384676 490.922681,147.494465 490.916261,146.389914 C490.916226,146.38399 490.916218,146.378066 490.916236,146.372142 L490.993842,121.12368 C490.997217,120.025488 491.885466,119.135445 492.983649,119.129854 L665.77447,118.250099 C666.873348,118.244504 667.770912,119.126534 667.7845,120.225342 Z" id="Path-443" stroke="#74A3A9" fill="#AADBE2"></path>
            <rect id="Rectangle" stroke="#C5AAE6" fill="#D9BDFA" x="596.559998" y="95.7199707" width="20" height="8" rx="1"></rect>
            <rect id="Rectangle" stroke="#C5AAE6" fill="#D9BDFA" transform="translate(848.537743, 127.403351) rotate(6.000000) translate(-848.537743, -127.403351) " x="826.037743" y="123.403351" width="45" height="8" rx="1"></rect>
        </g>
        <g id="lifts" transform="translate(757.000000, 312.000000)">
            <g id="Group-50" transform="translate(0.000000, 76.000000)">
                <polygon id="Path-451" stroke="#605E5E" stroke-width="0.5" fill="#EAE65D" points="6.61801147 23.8777466 8.74215698 -1.52766688e-13 11.3638306 -1.52766688e-13 13.6372223 23.8777466"></polygon>
                <rect id="Rectangle" stroke="#605E5E" stroke-width="0.5" fill="#4DA0FF" x="0.25" y="23.25" width="19.5" height="20.5" rx="3"></rect>
                <text id="32" font-family="AvenirNext-Regular, Avenir Next" font-size="10" font-weight="normal" fill="#2D67AA">
                    <tspan x="4.2" y="37">32</tspan>
                </text>
            </g>
            <g id="Group-50" transform="translate(130.000000, 76.000000)">
                <polygon id="Path-451" stroke="#605E5E" stroke-width="0.5" fill="#EAE65D" points="6.61801147 23.8777466 8.74215698 -1.52766688e-13 11.3638306 -1.52766688e-13 13.6372223 23.8777466"></polygon>
                <rect id="Rectangle" stroke="#605E5E" stroke-width="0.5" fill="#4DA0FF" x="0.25" y="23.25" width="19.5" height="20.5" rx="3"></rect>
                <text id="30" font-family="AvenirNext-Regular, Avenir Next" font-size="10" font-weight="normal" fill="#2D67AA">
                    <tspan x="4.7" y="37">30</tspan>
                </text>
            </g>
            <g id="Group-50" transform="translate(233.000000, 76.000000)">
                <polygon id="Path-451" stroke="#605E5E" stroke-width="0.5" fill="#EAE65D" points="6.61801147 23.8777466 8.74215698 -1.52766688e-13 11.3638306 -1.52766688e-13 13.6372223 23.8777466"></polygon>
                <rect id="Rectangle" stroke="#605E5E" stroke-width="0.5" fill="#4DA0FF" x="0.25" y="23.25" width="19.5" height="20.5" rx="3"></rect>
                <text id="18" font-family="AvenirNext-Regular, Avenir Next" font-size="10" font-weight="normal" fill="#2D67AA">
                    <tspan x="3.7" y="37">18</tspan>
                </text>
            </g>
            <g id="Group-50" transform="translate(216.000000, 0.000000)">
                <polygon id="Path-451" stroke="#605E5E" stroke-width="0.5" fill="#EAE65D" points="6.61801147 23.8777466 8.74215698 -1.54543045e-13 11.3638306 -1.54543045e-13 13.6372223 23.8777466"></polygon>
                <rect id="Rectangle" stroke="#605E5E" stroke-width="0.5" fill="#4DA0FF" x="0.25" y="23.25" width="19.5" height="20.5" rx="3"></rect>
                <text id="19" font-family="AvenirNext-Regular, Avenir Next" font-size="10" font-weight="normal" fill="#2D67AA">
                    <tspan x="4.2" y="37">19</tspan>
                </text>
            </g>
            <g id="Group-50" transform="translate(353.000000, 75.000000)">
                <polygon id="Path-451" stroke="#605E5E" stroke-width="0.5" fill="#EAE65D" points="6.61801147 23.8777466 8.74215698 -1.52766688e-13 11.3638306 -1.52766688e-13 13.6372223 23.8777466"></polygon>
                <rect id="Rectangle" stroke="#605E5E" stroke-width="0.5" fill="#4DA0FF" x="0.25" y="23.25" width="19.5" height="20.5" rx="3"></rect>
                <text id="27" font-family="AvenirNext-Regular, Avenir Next" font-size="10" font-weight="normal" fill="#2D67AA">
                    <tspan x="4.2" y="37">27</tspan>
                </text>
            </g>
            <g id="Group-50" transform="translate(453.000000, 74.000000)">
                <polygon id="Path-451" stroke="#605E5E" stroke-width="0.5" fill="#EAE65D" points="6.61801147 23.8777466 8.74215698 -1.54543045e-13 11.3638306 -1.54543045e-13 13.6372223 23.8777466"></polygon>
                <rect id="Rectangle" stroke="#605E5E" stroke-width="0.5" fill="#4DA0FF" x="0.25" y="23.25" width="19.5" height="20.5" rx="3"></rect>
                <text id="31" font-family="AvenirNext-Regular, Avenir Next" font-size="10" font-weight="normal" fill="#2D67AA">
                    <tspan x="4.2" y="37">31</tspan>
                </text>
            </g>
            <g id="Group-50" transform="translate(544.000000, 74.000000)">
                <polygon id="Path-451" stroke="#605E5E" stroke-width="0.5" fill="#EAE65D" points="6.61801147 23.8777466 8.74215698 -1.52766688e-13 11.3638306 -1.52766688e-13 13.6372223 23.8777466"></polygon>
                <rect id="Rectangle" stroke="#605E5E" stroke-width="0.5" fill="#4DA0FF" x="0.25" y="23.25" width="19.5" height="20.5" rx="3"></rect>
                <text id="25" font-family="AvenirNext-Regular, Avenir Next" font-size="10" font-weight="normal" fill="#2D67AA">
                    <tspan x="4.2" y="37">25</tspan>
                </text>
            </g>
            <g id="Group-50" transform="translate(682.427658, 118.988987) rotate(180.000000) translate(-682.427658, -118.988987) translate(672.427658, 96.988987)">
                <polygon id="Path-451" stroke="#605E5E" stroke-width="0.5" fill="#EAE65D" points="6.61801147 23.8777466 8.74215698 -1.52766688e-13 11.3638306 -1.52766688e-13 13.6372223 23.8777466"></polygon>
                <rect id="Rectangle" stroke="#605E5E" stroke-width="0.5" fill="#4DA0FF" x="0.25" y="23.25" width="19.5" height="20.5" rx="3"></rect>
                <text id="17" transform="translate(10.427658, 32.988987) rotate(180.000000) translate(-10.427658, -32.988987) " font-family="AvenirNext-Regular, Avenir Next" font-size="10" font-weight="normal" fill="#2D67AA">
                    <tspan x="4.62765808" y="35.988987">17</tspan>
                </text>
            </g>
            <g id="Group-50" transform="translate(758.000000, 73.000000)">
                <polygon id="Path-451" stroke="#605E5E" stroke-width="0.5" fill="#EAE65D" points="6.61801147 23.8777466 8.74215698 -1.52766688e-13 11.3638306 -1.52766688e-13 13.6372223 23.8777466"></polygon>
                <rect id="Rectangle" stroke="#605E5E" stroke-width="0.5" fill="#4DA0FF" x="0.25" y="23.25" width="19.5" height="20.5" rx="3"></rect>
                <text id="29" font-family="AvenirNext-Regular, Avenir Next" font-size="10" font-weight="normal" fill="#2D67AA">
                    <tspan x="4.2" y="37">29</tspan>
                </text>
            </g>
        </g>
        <g id="buildings" transform="translate(79.199997, 125.559998)" fill="#E9E9E9" stroke="#979797">
            <path d="M1.83055285,6.55970243 L14.6466869,0.816997951 C15.6539721,0.365649563 16.8364715,0.815660847 17.2888329,1.82249156 L27.0593804,23.5690135 C27.5120637,24.5765608 27.0622576,25.7603116 26.0547104,26.212995 C26.039353,26.219895 26.0239091,26.2266007 26.0083824,26.2331107 L13.0949381,31.6473923 C12.0958217,32.0662966 10.9448128,31.6135152 10.4988866,30.626163 L0.825649324,9.2080639 C0.371001816,8.20140139 0.818498398,7.01677555 1.82516091,6.56212804 C1.82695703,6.56131685 1.82875435,6.56050831 1.83055285,6.55970243 Z" id="Path-441"></path>
            <path d="M50.1739655,32.478962 L70.234201,21.4874818 C71.2028904,20.9567139 72.4184408,21.3117193 72.9492087,22.2804087 C72.9513624,22.2843393 72.9535029,22.2882772 72.9556301,22.2922222 L90.8389388,55.4577096 C91.3631823,56.4299454 91.0000128,57.6430816 90.027777,58.1673252 C90.0205048,58.1712465 90.0132083,58.1751227 90.005888,58.1789536 L69.9585369,68.6702007 C68.9930526,69.1754612 67.8007746,68.8148224 67.2771914,67.8591505 L49.380965,35.1940101 C48.850327,34.2252868 49.2053451,33.0097878 50.1739655,32.478962 Z" id="Path-32"></path>
            <path d="M98.065001,62.3159779 L87.8235804,89.5678408 C87.4362915,90.6017908 87.9588747,91.7545483 88.9917516,92.1446901 L235.650576,147.359943 C236.679491,147.747317 237.828162,147.23156 238.222315,146.205222 L248.579274,119.236694 C248.975274,118.20555 248.460387,117.048622 247.429243,116.652622 C247.426032,116.651389 247.422818,116.650164 247.419601,116.648948 L100.644541,61.148822 C99.6113677,60.7581476 98.457111,61.278996 98.0664366,62.3121694 C98.0659568,62.3134384 98.0654782,62.3147079 98.065001,62.3159779 Z" id="Path-33"></path>
            <path d="M265.33709,141.382715 L273.598763,120.11651 C273.997573,119.089943 275.151263,118.578964 276.179485,118.973487 L326.180539,138.158619 C327.07418,138.501504 328.076583,138.055028 328.419468,137.161387 C328.419645,137.160926 328.419822,137.160465 328.419998,137.160004 C328.762148,136.265994 329.764254,135.818623 330.658264,136.160773 C330.65868,136.160932 330.659095,136.161092 330.65951,136.161251 L361.530648,148.003336 C362.3962,148.33536 362.864687,149.273616 362.610001,150.164993 C362.355607,151.055346 362.825901,151.99211 363.691894,152.319983 L413.341551,171.117763 C414.358019,171.502606 414.881085,172.628776 414.519412,173.653717 L406.947171,195.112614 C406.579613,196.154235 405.437247,196.70067 404.395626,196.333112 C404.3755,196.32601 404.35549,196.318587 404.335602,196.310845 L360.191635,179.125891 C359.842135,178.989833 359.448347,179.161405 359.310013,179.51001 C359.171371,179.85939 358.777835,180.032652 358.426522,179.898985 L349.626436,176.550742 C349.312801,176.43141 349.155286,176.080421 349.274618,175.766785 C349.279344,175.754362 349.284477,175.742097 349.290009,175.730011 C349.427938,175.428616 349.295423,175.072474 348.994028,174.934544 C348.979851,174.928056 348.965427,174.922123 348.950788,174.916759 L321.195193,164.745462 C320.879362,164.629723 320.529505,164.791929 320.413765,165.10776 C320.408668,165.121671 320.404079,165.135764 320.400009,165.150009 C320.309532,165.466686 319.97947,165.650057 319.662793,165.55958 C319.644825,165.554446 319.627108,165.548471 319.609701,165.541673 L311.325344,162.30667 C310.89894,162.140161 310.688253,161.65951 310.854762,161.233106 C310.856473,161.228723 310.858222,161.224355 310.860008,161.220001 C311.03043,160.8046 310.831834,160.329696 310.416432,160.159275 C310.407319,160.155536 310.398139,160.151964 310.388896,160.148558 L266.50998,143.983659 C265.473507,143.601825 264.942817,142.45206 265.324652,141.415587 C265.328702,141.404593 265.332848,141.393636 265.33709,141.382715 Z" id="Path-34"></path>
            <path d="M418.593364,173.136274 L442.841466,182.053328 C443.822433,182.414071 444.341328,183.487065 444.014999,184.480011 L443.737296,185.325 C443.565905,185.846504 443.012081,186.138388 442.485001,185.985001 C441.964378,185.833493 441.419508,186.13272 441.268,186.653343 C441.267774,186.65412 441.267548,186.654898 441.267324,186.655677 L440.484533,189.37059 C440.363725,189.789581 440.537904,190.237632 440.909988,190.465012 C441.276026,190.688697 441.432616,191.140126 441.283718,191.542429 L436.82567,203.587493 C436.445632,204.614305 435.310602,205.144675 434.279151,204.777416 L410.307331,196.241983 C409.266756,195.871474 408.723559,194.727565 409.094067,193.686989 C409.094447,193.685922 409.094828,193.684855 409.09521,193.683789 L416.020089,174.339307 C416.392366,173.299363 417.537197,172.758111 418.577141,173.130387 C418.582557,173.132326 418.587965,173.134288 418.593364,173.136274 Z" id="Path-35"></path>
            <path d="M778.485325,146.106939 L786.981132,145.272431 C788.068018,145.16567 789.039585,145.950538 789.163688,147.035581 L790.115556,155.357839 C790.239957,156.44549 789.466794,157.43104 788.380796,157.569134 L779.667576,158.677092 C778.571829,158.816425 777.5706,158.041099 777.431266,156.945353 C777.427798,156.918077 777.424892,156.890732 777.422552,156.863336 L776.688097,148.267628 C776.594903,147.17692 777.395885,146.213951 778.485325,146.106939 Z" id="Path-36"></path>
            <path d="M814.149408,140.377396 L815.115822,150.363406 C815.222221,151.462839 816.199742,152.267852 817.299175,152.161452 C817.30445,152.160942 817.309724,152.16041 817.314995,152.159858 L846.828471,149.066617 C847.920137,148.952202 848.715598,147.979335 848.610874,146.886698 L846.722043,127.179432 C846.620145,126.11627 847.371575,125.160643 848.428775,125.008905 L876.470284,120.984157 C877.563341,120.82855 878.576592,121.586948 878.735393,122.679545 L881.760652,143.663044 C881.918271,144.756309 882.932314,145.5148 884.02558,145.35718 C884.034663,145.355871 884.043736,145.354499 884.0528,145.353065 L890.4362,144.342872 C891.502826,144.174075 892.242832,143.189022 892.107913,142.117583 L887.82523,108.10721 C887.689069,107.025901 886.712231,106.25267 885.628543,106.368389 L875.780612,107.419976 C874.682287,107.537258 873.886994,108.522702 874.004276,109.621028 C874.006791,109.644577 874.009724,109.66808 874.013073,109.691526 L874.148586,110.640072 C874.304803,111.733539 873.545012,112.746608 872.451545,112.902825 C872.431837,112.905641 872.412089,112.908162 872.392305,112.910388 L837.585285,116.826646 C836.488487,116.950051 835.69899,117.938623 835.821198,119.035555 L837.459087,133.737066 C837.581183,134.832992 836.793207,135.820973 835.697575,135.945684 L815.913917,138.197574 C814.829497,138.321009 814.044275,139.291049 814.149408,140.377396 Z" id="Path-37"></path>
            <path d="M1921.05708,321.715504 L1928.59395,308.680011 C1929.14683,307.723769 1930.37022,307.39678 1931.32646,307.949661 C1931.32931,307.95131 1931.33216,307.952967 1931.335,307.95463 L1951.82069,319.934561 C1952.77139,320.490525 1953.09371,321.710469 1952.5417,322.663467 L1945.00563,335.67379 C1944.452,336.629593 1943.22835,336.955613 1942.27255,336.401976 C1942.27069,336.400901 1942.26884,336.399822 1942.26699,336.398741 L1921.7805,324.443981 C1920.82919,323.888849 1920.50577,322.669035 1921.05708,321.715504 Z" id="Path-38"></path>
            <path d="M1791.01243,305.272014 L1832.71241,321.654161 C1833.73505,322.055911 1834.89028,321.557491 1835.29969,320.537897 L1839.01678,311.280719 C1839.42836,310.255695 1838.93107,309.091095 1837.90605,308.679511 C1837.89131,308.673594 1837.8765,308.667852 1837.86163,308.662288 L1795.59281,292.848164 C1794.55827,292.461111 1793.40585,292.986 1793.01879,294.020535 C1793.01636,294.02703 1793.01397,294.033538 1793.0116,294.040058 L1789.86336,302.729213 C1789.49418,303.748146 1790.00373,304.875737 1791.01243,305.272014 Z" id="Path-39"></path>
            <path d="M1587.9107,287.670014 L1611.85596,292.507272 C1612.93225,292.724696 1613.98256,292.03374 1614.209,290.959309 L1617.38802,275.874827 C1617.61563,274.794846 1616.92534,273.734638 1615.84562,273.505837 L1591.58568,268.365012 C1590.50511,268.136032 1589.4435,268.826385 1589.21452,269.90696 C1589.2111,269.923123 1589.20788,269.939327 1589.20485,269.955569 L1586.3405,285.343619 C1586.14055,286.417809 1586.83969,287.453656 1587.9107,287.670014 Z" id="Path-40"></path>
            <path d="M1093.23891,65.4512699 L1094.3824,77.0204671 C1094.49104,78.1196805 1095.47021,78.9226949 1096.56942,78.8140499 C1096.5725,78.8137458 1096.57557,78.8134346 1096.57865,78.8131163 L1129.46169,75.4089538 C1130.56039,75.2952129 1131.35885,74.3123372 1131.24511,73.2136395 C1131.24412,73.204064 1131.24306,73.1944958 1131.24193,73.1849357 L1129.73968,60.469194 C1129.61009,59.3722531 1128.61579,58.5880631 1127.51885,58.7176566 C1127.50467,58.7193319 1127.4905,58.7211591 1127.47636,58.7231378 L1094.95208,63.2738448 C1093.88936,63.4225375 1093.13337,64.383402 1093.23891,65.4512699 Z" id="Path-41"></path>
            <path d="M1245.97034,69.1024912 L1248.81148,84.1607226 C1249.01628,85.2461411 1250.0622,85.9600285 1251.14762,85.7552348 C1251.17821,85.7494627 1251.20866,85.742977 1251.23895,85.7357832 L1264.91301,82.4881721 C1265.96442,82.238462 1266.62731,81.198719 1266.41001,80.1401415 L1263.4563,65.7508463 C1263.23648,64.6799573 1262.19752,63.9839954 1261.12355,64.1882085 L1247.56206,66.7668834 C1246.47802,66.97301 1245.76575,68.0181615 1245.97034,69.1024912 Z" id="Path-42"></path>
            <path d="M1265.45348,65.1898806 L1268.58884,80.0513254 C1268.81617,81.1288776 1269.87185,81.8198983 1270.95035,81.5971178 L1339.80977,67.3732012 C1340.8915,67.1497536 1341.58728,66.0916962 1341.36383,65.0099638 C1341.361,64.9962455 1341.35802,64.9825574 1341.3549,64.9689017 L1337.92757,49.9743426 C1337.68462,48.911457 1336.63513,48.238997 1335.56797,48.4624437 L1267.00052,62.8194747 C1265.9194,63.0458464 1265.22648,64.1057814 1265.45285,65.1869056 C1265.45306,65.1878974 1265.45327,65.1888891 1265.45348,65.1898806 Z" id="Path-43"></path>
            <path d="M1274.11532,148.942887 L1269.91569,103.529873 C1269.90637,103.428992 1269.88939,103.328967 1269.86491,103.23066 C1269.56828,102.039742 1269.96999,100.749517 1271.07002,99.3599854 C1272.16794,97.9731237 1273.93375,97.393244 1276.36745,97.6203463 C1276.54739,97.637129 1276.72422,97.678231 1276.89312,97.7425216 L1289.42379,102.512282 C1290.14271,102.785937 1290.64097,103.447661 1290.70529,104.21421 L1292.59237,126.702802 C1292.68474,127.803504 1293.6519,128.620923 1294.75261,128.52856 C1294.75401,128.528443 1294.75541,128.528323 1294.75682,128.528203 L1325.94237,125.844991 C1327.01317,125.75286 1327.8197,124.830926 1327.76867,123.757388 L1327.72802,122.90224 C1327.67835,121.857416 1328.44217,120.950798 1329.48026,120.8224 L1338.08069,119.758644 C1339.15495,119.625773 1339.92854,118.662349 1339.82624,117.584749 L1338.84647,107.264281 C1338.74307,106.17516 1337.78377,105.371226 1336.69335,105.459878 L1318.44172,106.943765 C1317.36918,107.030964 1316.4199,106.253896 1316.2935,105.185261 L1314.77897,92.3804213 C1314.64922,91.283498 1315.43328,90.2890892 1316.5302,90.159347 C1316.54153,90.158007 1316.55287,90.156764 1316.56422,90.1556181 L1349.99962,86.7799634 C1351.0949,86.6693826 1352.07363,87.464735 1352.18942,88.5594845 L1355.73161,122.04958 C1355.84702,123.140772 1355.06171,124.121193 1353.97164,124.246797 L1336.0137,126.316016 C1334.9334,126.440495 1334.15052,127.405332 1334.25124,128.488108 L1334.67206,133.012177 C1334.74119,133.755243 1335.21827,134.398018 1335.90948,134.679359 C1338.52106,135.742344 1339.91792,137.349225 1340.10005,139.5 C1340.29962,141.856634 1338.96314,143.672228 1336.09061,144.946782 C1335.89361,145.034194 1335.68378,145.089187 1335.46923,145.109637 L1276.29659,150.749697 C1275.197,150.854504 1274.22065,150.048077 1274.11584,148.948491 C1274.11567,148.946624 1274.11549,148.944756 1274.11532,148.942887 Z" id="Path-44"></path>
            <path d="M1356.41542,158.93847 L1366.1836,161.48047 C1367.25257,161.75865 1368.34465,161.117591 1368.62283,160.048624 C1368.62803,160.028649 1368.63291,160.008595 1368.63749,159.988469 L1370.37321,152.356614 C1370.61153,151.308723 1369.97915,150.259812 1368.9412,149.981376 L1359.34659,147.407566 C1358.27974,147.121377 1357.18289,147.754229 1356.8967,148.821079 C1356.8936,148.832618 1356.89061,148.844185 1356.88772,148.855778 L1354.97843,156.519443 C1354.71337,157.583361 1355.35433,158.662338 1356.41542,158.93847 Z" id="Path-45"></path>
            <path d="M1372.13112,152.430805 L1371.26516,156.112406 C1371.01225,157.187633 1371.67887,158.264298 1372.7541,158.517206 C1372.76426,158.519595 1372.77444,158.521905 1372.78463,158.524136 L1394.13899,163.195421 C1395.21305,163.430372 1396.27536,162.754303 1396.51734,161.681807 L1397.26472,158.369358 C1397.50591,157.300347 1396.8419,156.23632 1395.77564,155.983237 L1374.53987,150.942798 C1373.46516,150.687709 1372.38714,151.352144 1372.13205,152.426855 C1372.13174,152.428171 1372.13143,152.429488 1372.13112,152.430805 Z" id="Path-46"></path>
            <path d="M1345.77998,237.059998 L1367.62136,237.059998 C1368.17364,237.059998 1368.62136,237.507713 1368.62136,238.059998 C1368.62136,238.062872 1368.62135,238.065746 1368.62132,238.068621 L1368.54412,247.021942 C1368.54151,247.324261 1368.40227,247.609172 1368.16535,247.796977 L1361.43291,253.133664 C1361.25617,253.273765 1361.03726,253.350006 1360.81172,253.350006 L1352.86173,253.350006 C1352.64018,253.350006 1352.42491,253.276435 1352.2497,253.140842 L1345.16795,247.660267 C1344.92324,247.470881 1344.77998,247.178872 1344.77998,246.869432 L1344.77998,238.059998 C1344.77998,237.507713 1345.2277,237.059998 1345.77998,237.059998 Z" id="Path-47"></path>
            <path d="M1336.68867,262.509653 L1339.30838,264.460456 C1339.74726,264.787279 1340.36733,264.70065 1340.69984,264.266055 L1349.74225,252.447507 C1350.07784,252.00888 1349.99432,251.381248 1349.55569,251.045653 C1349.5513,251.042292 1349.54688,251.038968 1349.54243,251.035681 L1347.0051,249.160269 C1346.5685,248.83757 1345.95418,248.922173 1345.62107,249.350874 L1336.49629,261.094031 C1336.15742,261.530136 1336.23625,262.158375 1336.67236,262.497242 C1336.67775,262.501434 1336.68319,262.505572 1336.68867,262.509653 Z" id="Path-48"></path>
            <path d="M1373.74328,264.621198 L1376.03935,262.859124 C1376.47252,262.526698 1376.55895,261.908265 1376.23352,261.469815 L1367.42024,249.59566 C1367.09108,249.152183 1366.46474,249.05951 1366.02126,249.388669 C1366.01059,249.396589 1366.00008,249.40472 1365.98973,249.413058 L1363.54088,251.386748 C1363.11785,251.727696 1363.04445,252.344035 1363.37557,252.774796 L1372.34052,264.437186 C1372.67755,264.874314 1373.30491,264.956609 1373.74328,264.621198 Z" id="Path-49"></path>
            <path d="M1351.3484,253.357094 L1361.9224,253.43292 C1362.46981,253.436846 1362.91232,253.880184 1362.91522,254.427599 L1362.95471,261.884688 C1362.95764,262.436965 1362.5123,262.887045 1361.96002,262.88997 C1361.95826,262.889979 1361.95649,262.889984 1361.95473,262.889984 L1351.19906,262.889984 C1350.64677,262.889984 1350.19906,262.442269 1350.19906,261.889984 C1350.19906,261.883694 1350.19912,261.877403 1350.19924,261.871114 L1350.34141,254.338198 C1350.35175,253.790574 1350.8007,253.353166 1351.3484,253.357094 Z" id="Path-50"></path>
        </g>
        <g id="ships" transform="translate(58.913632, 134.838902)" fill="#FFFFFF" fill-opacity="0.25" stroke="#979797" stroke-dasharray="1,1" stroke-width="0.5">
            <path d="M6.67451431,28.017502 L41.9696232,28.017502 C45.0143717,28.2438316 47.2422223,28.5588297 48.6531752,28.9624962 C50.064128,29.3661627 51.9039815,30.2149143 54.1727356,31.508751 L54.1727356,35 L54,35 L54,37.813445 C51.873043,39.0264169 50.1230495,39.8482008 48.7500194,40.2787965 L48.4804396,40.3596999 C47.0694867,40.7633664 44.8416361,41.0783644 41.7968876,41.304694 L41.7968876,41.304694 L6.50177869,41.304694 C2.24956019,41.3746984 -0.754276337,41.2347004 -2.50973089,40.8847002 C-5.14291273,40.3596999 -11.7630851,37.9971983 -12.9303742,36.6846975 C-13.708567,35.809697 -14.0621365,35.0221965 -13.9910827,34.322196 L-13.9910827,34.322196 L-13.7617741,34.3228554 C-13.6289878,33.8026796 -13.2942759,33.2408939 -12.7576386,32.6374985 C-11.5903495,31.3249977 -4.97017711,28.9624962 -2.33699527,28.4374958 C-0.581540719,28.0874956 2.42229581,27.9474977 6.67451431,28.017502 Z" id="Combined-Shape" transform="translate(20.086368, 34.661098) rotate(247.000000) translate(-20.086368, -34.661098) "></path>
            <path d="M1227.08637,331.138595 C1219.41264,334.465604 1213.18961,336.648108 1208.41727,337.686108 C1203.64493,338.724107 1196.10955,339.534102 1185.81113,340.116093 L1185.81113,340.116093 L1066.43062,340.116093 C1052.04812,340.296104 1041.88808,339.936109 1035.95051,339.036109 C1027.04416,337.686108 1004.6524,331.611104 1000.70422,328.236102 C998.549065,326.393824 997.35678,324.70239 997.127364,323.1618 L997.116529,323.161098 C997.09457,322.996631 997.084602,322.830285 997.086624,322.662061 C997.084562,322.492571 997.094527,322.325891 997.116529,322.161098 L997.116529,322.161098 L997.127216,322.161389 C997.356268,320.620533 998.548602,318.928768 1000.70422,317.086094 C1004.6524,313.711092 1027.04416,307.636088 1035.95051,306.286087 C1041.88808,305.386087 1052.04812,305.026092 1066.43062,305.206103 L1185.81113,305.206103 C1196.10955,305.788094 1203.64493,306.598089 1208.41727,307.636088 C1213.18961,308.674088 1219.41264,310.856592 1227.08637,314.183601 Z" id="Combined-Shape"></path>
            <path d="M761.027839,313.773595 C764.237884,311.336094 782.443358,306.948591 789.684608,305.97359 C794.512108,305.32359 802.772658,305.063594 814.466259,305.193602 L911.527809,305.193602 C919.900867,305.613928 926.027456,306.198925 929.907577,306.948591 C933.787697,307.698257 938.847294,309.27451 945.086368,311.67735 L945.086368,324.644846 C938.847294,327.047686 933.787697,328.623939 929.907577,329.373605 C926.027456,330.123272 919.900867,330.708268 911.527809,331.128594 L911.527809,331.128594 L814.466259,331.128594 C802.772658,331.258602 794.512108,330.998606 789.684608,330.348606 C782.443358,329.373605 764.237884,324.986102 761.027839,322.548601 C758.887809,320.9236 757.915492,319.461099 758.11089,318.161098 L758.11089,318.161098 C757.915492,316.861097 758.887809,315.398596 761.027839,313.773595 Z" id="Combined-Shape" transform="translate(851.586368, 318.161098) rotate(180.000000) translate(-851.586368, -318.161098) "></path>
            <path d="M1327.02784,311.773595 C1330.23788,309.336094 1348.44336,304.948591 1355.68461,303.97359 C1360.51211,303.32359 1368.77266,303.063594 1380.46626,303.193602 L1477.52781,303.193602 C1485.90087,303.613928 1492.02746,304.198925 1495.90758,304.948591 C1499.7877,305.698257 1504.84729,307.27451 1511.08637,309.67735 L1511.08637,322.644846 C1504.84729,325.047686 1499.7877,326.623939 1495.90758,327.373605 C1492.02746,328.123272 1485.90087,328.708268 1477.52781,329.128594 L1477.52781,329.128594 L1380.46626,329.128594 C1368.77266,329.258602 1360.51211,328.998606 1355.68461,328.348606 C1348.44336,327.373605 1330.23788,322.986102 1327.02784,320.548601 C1324.88781,318.9236 1323.91549,317.461099 1324.11089,316.161098 L1324.11089,316.161098 C1323.91549,314.861097 1324.88781,313.398596 1327.02784,311.773595 Z" id="Combined-Shape" transform="translate(1417.586368, 316.161098) rotate(180.000000) translate(-1417.586368, -316.161098) "></path>
            <path d="M1833.2032,509.825108 L1941.16471,509.825108 C1950.47805,510.407099 1957.29266,511.217094 1961.60851,512.255094 C1965.92437,513.293093 1971.55215,515.475597 1978.49187,518.802606 L1978.49187,526.541103 L1978.68086,526.542093 L1978.68086,535.51959 C1971.74114,538.846599 1966.11336,541.029103 1961.7975,542.067102 C1957.48165,543.105102 1950.66704,543.915097 1941.3537,544.497088 L1941.3537,544.497088 L1833.39219,544.497088 C1820.3854,544.677099 1811.19719,544.317104 1805.82757,543.417103 C1797.77313,542.067102 1777.52319,535.992099 1773.95266,532.617096 C1772.10335,530.869061 1771.038,529.256831 1770.75661,527.780406 L1770.51915,527.780103 C1770.30181,525.980102 1771.38332,523.955101 1773.76367,521.7051 C1777.3342,518.330097 1797.58414,512.255094 1805.63858,510.905093 C1811.0082,510.005092 1820.19641,509.645097 1833.2032,509.825108 Z" id="Combined-Shape" transform="translate(1874.586368, 527.161098) rotate(18.000000) translate(-1874.586368, -527.161098) "></path>
            <path d="M550.122217,313.773595 C553.435259,311.336094 572.224866,306.948591 579.698455,305.97359 C584.680848,305.32359 593.206443,305.063594 605.27524,305.193602 L705.451063,305.193602 C714.092776,305.613928 720.41594,306.198925 724.420557,306.948591 C728.425173,307.698257 733.64711,309.27451 740.086368,311.67735 L740.086368,324.644846 C733.64711,327.047686 728.425173,328.623939 724.420557,329.373605 C720.41594,330.123272 714.092776,330.708268 705.451063,331.128594 L705.451063,331.128594 L605.27524,331.128594 C593.206443,331.258602 584.680848,330.998606 579.698455,330.348606 C572.224866,329.373605 553.435259,324.986102 550.122217,322.548601 C547.913523,320.9236 546.91001,319.461099 547.111677,318.161098 L547.111677,318.161098 C546.91001,316.861097 547.913523,315.398596 550.122217,313.773595 Z" id="Combined-Shape"></path>
        </g>
        <g id="compass" transform="translate(2476.000000, 125.500000) rotate(-122.000000) translate(-2476.000000, -125.500000) translate(2427.000000, 77.000000)" fill="#FFFFFF">
            <path id="Path-258" d="M76.7615318,31.8943621 L76.3517129,32.6831409 L72.1198712,40.828171 L71.2324951,40.3671248 L74.584,33.915 L69.5226838,37.2265511 L25.5142819,66.0112506 L20.452,69.322 L27.7064436,68.8363321 L27.7732374,69.8340989 L18.6149555,70.4471845 L17.7280517,70.5065568 L18.1378706,69.717778 L22.3697122,61.5727479 L23.2570884,62.0337941 L19.905,68.484 L24.9668997,65.1743678 L68.9753016,36.3896683 L74.036,33.078 L66.7831399,33.5645868 L66.7163461,32.56682 L75.8746279,31.9537344 L76.7615318,31.8943621 Z" fill-rule="nonzero"></path>
            <path id="Path-259" d="M28.171378,21.7258833 L28.9590838,22.1377608 L37.0930338,26.3908603 L36.6296717,27.2770293 L30.187,23.908 L33.4854578,28.9798853 L62.1534933,73.0608085 L65.451,78.131 L64.9851051,70.8772853 L65.9830429,70.8130976 L66.5722079,79.9729494 L66.6292636,80.8600052 L65.8415579,80.4481277 L57.7076078,76.1950281 L58.17097,75.3088592 L64.613,78.677 L61.3151838,73.6060032 L32.6471484,29.52508 L29.348,24.454 L29.8155365,31.7086032 L28.8175987,31.7727909 L28.2284337,22.6129391 L28.171378,21.7258833 Z" fill-rule="nonzero"></path>
            <text id="N" transform="translate(84.559839, 29.303904) rotate(121.000000) translate(-84.559839, -29.303904) " font-family="AvenirNext-Regular, Avenir Next" font-size="16" font-weight="normal">
                <tspan x="78.0598385" y="34.3039038">N</tspan>
            </text>
            <text id="S" transform="translate(12.000000, 75.000000) rotate(121.000000) translate(-12.000000, -75.000000) " font-family="AvenirNext-Regular, Avenir Next" font-size="16" font-weight="normal">
                <tspan x="7" y="80">S</tspan>
            </text>
            <text id="E" transform="translate(72.000000, 87.000000) rotate(121.000000) translate(-72.000000, -87.000000) " font-family="AvenirNext-Regular, Avenir Next" font-size="16" font-weight="normal">
                <tspan x="67" y="92">E</tspan>
            </text>
            <text id="W" transform="translate(20.003825, 12.986661) rotate(122.000000) translate(-20.003825, -12.986661) " font-family="AvenirNext-Regular, Avenir Next" font-size="16" font-weight="normal">
                <tspan x="12.0038248" y="17.9866613">W</tspan>
            </text>
        </g>
        <g id="info_button" transform="translate(2017.000000, 14.000000)">
            <circle id="Oval" stroke="#56A7E8" stroke-width="3" fill="#FFFFFF" cx="16" cy="16" r="14.5"></circle>
            <rect id="Rectangle" fill="#56A7E8" x="13" y="14" width="6" height="12" rx="3"></rect>
            <circle id="Oval" fill="#56A7E8" cx="16" cy="9" r="3"></circle>
        </g>
        <g id="close_button" opacity="0.750255766" transform="translate(2511.000000, 14.000000)" stroke="#B6B6B6" stroke-width="3">
            <line x1="24" y1="8" x2="8" y2="24" id="Path-14"></line>
            <line x1="8.05599869" y1="8.12187357" x2="23.7483064" y2="23.8141813" id="Path-14"></line>
            <rect id="Rectangle" fill-opacity="0.35" fill="#D8D8D8" x="1.5" y="1.5" width="29" height="29" rx="5"></rect>
        </g>
        <g id="streets" transform="translate(-0.020020, 32.000000)">
            <line x1="1433" y1="167.269989" x2="1836.38" y2="167.179993" id="Path-448" stroke="#FFFFFF" stroke-width="10"></line>
            <text id="Морская-набережная" font-family="AvenirNext-Italic, Avenir Next" font-size="8" font-style="italic" font-weight="normal" fill="#A79F9F">
                <tspan x="1578.02002" y="170">Морская набережная</tspan>
            </text>
            <line x1="1850.06006" y1="231.799988" x2="1849.97003" y2="257.089996" id="Path-57" stroke="#FFFFFF" stroke-width="10"></line>
            <path d="M1756.02002,166.099976 L1755.38,199.670013 C1756.00785,203.836845 1757.38785,207.046837 1759.52002,209.299988 C1761.65219,211.553139 1765.26551,213.61981 1770.35999,215.5 L1938.44006,251.5 L2086.02002,314.190002 C2101.6333,319.956706 2121.19995,322.733378 2144.71997,322.52002 C2168.23999,322.306661 2188.39998,318.376648 2205.19995,310.72998" id="Path-449" stroke="#FFFFFF" stroke-width="10"></path>
            <text id="ул.-Данилова" transform="translate(1843.020020, 229.500000) rotate(12.000000) translate(-1843.020020, -229.500000) " font-family="AvenirNext-Italic, Avenir Next" font-size="8" font-style="italic" font-weight="normal" fill="#A79F9F">
                <tspan x="1818.16002" y="232">ул. Данилова</tspan>
            </text>
            <line x1="0.880019207" y1="26.3800049" x2="196.760017" y2="0.7699585" id="Path-53" stroke="#FFFFFF" stroke-width="10"></line>
            <text id="ул.-Крепостная" transform="translate(90.020020, 14.500000) rotate(-8.000000) translate(-90.020020, -14.500000) " font-family="AvenirNext-Italic, Avenir Next" font-size="8" font-style="italic" font-weight="normal" fill="#A79F9F">
                <tspan x="61.0480196" y="17">ул. Крепостная</tspan>
            </text>
            <path d="M123.500015,11.0299682 L133.760025,43 L179.120026,111.73999 L209.180023,126.320007 L327.850021,162.77002 L360.920013,193.280029 L525.080017,246 L658.820007,262.5 L678.350006,260.420013 L840.530029,211.099976 L873.290009,196.659973 L938,178.52002 L1138.16003,139.419983 C1150.35519,136.362503 1159.1152,133.555842 1164.44006,131 C1169.76492,128.444158 1176.5749,123.777492 1184.87,117 L1218.62,79.0799561" id="Path-54" stroke="#FFFFFF" stroke-width="10"></path>
            <text id="ул.-Южный-Вал" transform="translate(280.520020, 147.500000) rotate(17.000000) translate(-280.520020, -147.500000) " font-family="AvenirNext-Italic, Avenir Next" font-size="8" font-style="italic" font-weight="normal" fill="#A79F9F">
                <tspan x="251.48402" y="150">ул. Южный Вал</tspan>
            </text>
            <path d="M527.780029,246.470001 C529.759989,254.303335 532.069977,260.363332 534.709991,264.649994 C537.350006,268.936656 542.120015,271.593323 549.02002,272.619995" id="Path-450" stroke="#FFFFFF" stroke-width="10"></path>
        </g>
        <g id="legend" transform="translate(2343.000000, 213.000000)">
            <rect id="Rectangle" stroke="#B7B7B7" fill="#FFFFFF" opacity="0.654665" x="0.5" y="0.5" width="199" height="142" rx="10"></rect>
            <rect id="Rectangle" stroke="#C5AAE6" fill="#D9BDFA" x="20" y="91" width="24" height="8" rx="1"></rect>
            <g id="Group-50" transform="translate(37.359344, 118.386383) rotate(90.000000) translate(-37.359344, -118.386383) translate(27.359344, 96.386383)" stroke="#605E5E" stroke-width="0.5">
                <polygon id="Path-451" fill="#EAE65D" points="6.61801147 23.8777466 8.74215698 -1.52766688e-13 11.3638306 -1.52766688e-13 13.6372223 23.8777466"></polygon>
                <rect id="Rectangle" fill="#4DA0FF" x="0.25" y="23.25" width="19.5" height="20.5" rx="3"></rect>
            </g>
            <text id="весы" font-family="AvenirNext-Regular, Avenir Next" font-size="10" font-weight="normal" fill="#727273">
                <tspan x="58" y="96">весы </tspan>
            </text>
            <text id="портальный-кран" font-family="AvenirNext-Regular, Avenir Next" font-size="10" font-weight="normal" fill="#727273">
                <tspan x="68" y="121">портальный кран</tspan>
            </text>
            <rect id="Rectangle" stroke="#A6B493" fill="#D1E1BA" x="14" y="11" width="36" height="16" rx="3"></rect>
            <text id="открытый-склад" font-family="AvenirNext-Regular, Avenir Next" font-size="10" font-weight="normal" fill="#727273">
                <tspan x="58" y="22">открытый склад</tspan>
            </text>
            <rect id="Rectangle" stroke="#74A3A9" fill="#AADBE2" x="14" y="37" width="36" height="16" rx="3"></rect>
            <text id="закрытый-склад" font-family="AvenirNext-Regular, Avenir Next" font-size="10" font-weight="normal" fill="#727273">
                <tspan x="58" y="49">закрытый склад</tspan>
            </text>
            <rect id="Rectangle" stroke="#979797" fill="#E9E9E9" x="14" y="63" width="36" height="16" rx="3"></rect>
            <text id="здания" font-family="AvenirNext-Regular, Avenir Next" font-size="10" font-weight="normal" fill="#727273">
                <tspan x="58" y="73">здания</tspan>
            </text>
        </g>
        <text id="Морской-порт-Выборг" font-family="AvenirNext-DemiBold, Avenir Next" font-size="24" font-weight="500" fill="#7D7D7D">
            <tspan x="2077.032" y="37">Морской порт Выборг</tspan>
        </text>
    </g>
</svg>