<?xml version="1.0" encoding="UTF-8"?>
<svg width="633px" height="846px" viewBox="0 0 633 846" version="1.1" xmlns="http://www.w3.org/2000/svg" xmlns:xlink="http://www.w3.org/1999/xlink">
    <title>vysotsk</title>
    <g id="vysotsk" stroke="none" stroke-width="1" fill="none" fill-rule="evenodd">
        <path d="M23.8810898,0 L613,0 C624.045695,-2.02906125e-15 633,8.954305 633,20 L633,826 C633.012668,837.045695 624.058363,846 613.012668,846 C613.008444,846 613.00422,845.999999 613.000004,845.987328 L20.0815025,845.611654 C9.03580976,845.604656 0.0871800053,836.644679 0.0941785651,825.598986 C0.0941957443,825.571873 0.0942680594,825.544759 0.09439551,825.517646 L3.88131076,19.9059876 C3.93305987,8.89711066 12.8720912,-8.6358208e-15 23.8810898,0 Z" id="Rectangle" fill="#DFF1E1"></path>
        <path d="M20,0 L42.6598894,0 L42.6598894,0 L56.164632,31.1516352 L68.7847909,36 L273.318538,518.33149 L348.436531,575.707489 L418.185303,731.258667 L459.377099,741.909637 L523.620932,779.028442 L551,846 L20,846 C8.954305,846 1.3527075e-15,837.045695 0,826 L0,20 C-1.3527075e-15,8.954305 8.954305,2.02906125e-15 20,0 Z" id="Path-64" fill="#D8E8F7"></path>
        <text id="Выборгский-залив" opacity="0.965244112" font-family="AvenirNext-MediumItalic, Avenir Next" font-size="21" font-style="italic" font-weight="400" fill="#FFFFFF">
            <tspan x="35.0985" y="691">Выборгский залив</tspan>
        </text>
        <path d="M279.64627,7.79579552 L151.858853,28.0242389 C151.270004,28.1174522 150.671661,28.1350578 150.07835,28.0766282 L59.7919262,19.1851537 C55.9445448,18.8062607 52.5184724,21.6180262 52.1395794,25.4654076 C52.0238055,26.6410074 52.2074234,27.8267865 52.6733328,28.9123126 L270.376209,536.140033 C271.688011,539.196411 275.22912,540.610669 278.285498,539.298868 C278.475371,539.217374 278.660925,539.126162 278.841422,539.025594 L280.59551,538.04827 C283.064792,536.672461 286.11922,536.916804 288.33838,538.667671 L329.149604,570.866804 C329.965333,571.510396 330.627555,572.327514 331.088217,573.258866 L413.441242,739.757595 C414.621566,742.143937 417.053394,743.654151 419.715685,743.654151 L436.650053,743.654151 C437.845726,743.654151 439.02147,743.960421 440.065188,744.543762 L507.015351,781.962634 C508.336871,782.70124 509.38332,783.848373 509.99776,785.231997 L534.190131,839.709403 C535.740516,843.200626 539.803596,844.804216 543.320457,843.312902 L617.500224,811.857191 C620.668325,810.513767 622.390115,807.066907 621.56145,803.727002 L607.914411,748.723086 L607.914411,748.723086 L582.037367,694.823414 C581.101877,692.874867 581.119029,690.603433 582.083839,688.669236 L588.55569,675.694838 C589.486853,673.828098 589.536914,671.643324 588.692232,669.735893 C546.836649,575.219098 512.310637,497.328749 485.114197,436.064847 C457.629439,374.151468 416.578597,281.796519 361.96167,159 L286.980421,11.5369782 C285.605035,8.83205448 282.643468,7.32134621 279.64627,7.79579552 Z" id="Path-44" stroke="#D7B7B7" fill="#F3F3F3"></path>
        <g id="areas" transform="translate(79.000000, 30.000000)" fill="#B3B3B3" stroke="#656565">
            <rect id="Rectangle" transform="translate(54.000000, 106.810491) rotate(-23.500000) translate(-54.000000, -106.810491) " x="41" y="1.81049125" width="26" height="210" rx="3"></rect>
            <rect id="Rectangle" transform="translate(127.136378, 90.000000) rotate(-23.000000) translate(-127.136378, -90.000000) " x="115.636378" y="-2" width="23" height="184" rx="3"></rect>
            <rect id="Rectangle" transform="translate(201.645625, 258.417113) rotate(-23.000000) translate(-201.645625, -258.417113) " x="188.645625" y="176.917113" width="26" height="163" rx="3"></rect>
            <rect id="Rectangle" transform="translate(169.695351, 270.406996) rotate(-23.000000) translate(-169.695351, -270.406996) " x="156.695351" y="191.906996" width="26" height="157" rx="2"></rect>
            <rect id="Rectangle" transform="translate(133.453641, 288.549268) rotate(-23.500000) translate(-133.453641, -288.549268) " x="120.453641" y="205.549268" width="26" height="166" rx="3"></rect>
            <path d="M183.81216,365.132206 L202.148672,364.854693 C203.800963,364.829687 205.162358,366.145562 205.193536,367.797748 L207.38614,483.989691 C207.4174,485.646251 206.099835,487.014499 204.443275,487.045759 C204.403193,487.046515 204.363099,487.046468 204.323018,487.045617 L188.133614,486.702022 C186.545539,486.668317 185.258987,485.402582 185.199383,483.815269 L180.85967,368.244434 C180.797499,366.588746 182.089299,365.196147 183.744986,365.133975 C183.76737,365.133135 183.789763,365.132545 183.81216,365.132206 Z" id="Rectangle" transform="translate(194.094803, 425.960671) rotate(-23.000000) translate(-194.094803, -425.960671) "></path>
            <rect id="Rectangle" transform="translate(95.701958, 97.684938) rotate(-23.000000) translate(-95.701958, -97.684938) " x="82.7019576" y="0.684937867" width="26" height="194" rx="3"></rect>
            <path d="M203.533678,389.45829 L224.979667,440.802823 C225.446082,441.919482 226.53774,442.646568 227.747893,442.646568 L228.323195,442.646568 C229.511127,442.646568 230.587169,443.347524 231.067272,444.434117 L240.136417,464.959841 C240.806035,466.475353 242.577433,467.161086 244.092945,466.491467 C244.104135,466.486523 244.115294,466.481511 244.126422,466.476431 L256.233708,460.94892 C257.700913,460.279076 258.375917,458.56904 257.761821,457.077643 L234.092845,399.595046 C233.791926,398.864233 233.214776,398.281689 232.486794,397.973986 L206.157822,386.845257 C205.140405,386.415215 203.967007,386.891377 203.536965,387.908794 C203.327707,388.403868 203.326522,388.962332 203.533678,389.45829 Z" id="Path-45"></path>
        </g>
        <g id="rails" transform="translate(69.000000, 36.000000)">
            <path d="M564.239166,750.772214 C551.774697,714.983328 540.731627,688.398041 531.109955,671.016355 C521.488283,653.634668 511.246278,640.610071 500.383942,631.942563 C486.619037,619.17242 477.276569,609.262437 472.356537,602.212613 C467.436505,595.162789 461.612164,584.199319 454.883514,569.322202 L279.559692,175.624829" id="Path-46" stroke="#A2A2A2" stroke-width="3"></path>
            <path d="M408.376801,463.198522 C400.840078,443.508475 397.071716,429.323704 397.071716,420.644209 C397.071716,411.964714 393.303355,400.758903 385.766632,387.026776 L289.715881,173" id="Path-47" stroke="#A2A2A2" stroke-width="3"></path>
            <line x1="397.363892" y1="424.349759" x2="284.060211" y2="173" id="Path-48" stroke="#A2A2A2" stroke-width="3"></line>
            <path d="M274.37796,178.723554 C331.69009,308.572946 364.837439,382.931177 373.820007,401.798245 C382.802576,420.665314 392.777622,437.903748 403.745148,453.513547" id="Path-49" stroke="#A2A2A2" stroke-width="3"></path>
            <path d="M231,175.624829 L311.159607,359.137866 C318.608965,373.396215 325.290544,384.035689 331.204346,391.056287 C337.118147,398.076885 347.706526,407.939525 362.969482,420.644209 C373.564367,427.544388 381.661463,433.952077 387.260773,439.867276 C392.860082,445.782475 401.130926,456.901667 412.073303,473.224851" id="Path-50" stroke="#A2A2A2" stroke-width="3"></path>
            <path d="M253.278305,189.895322 L339.061554,383.015027 C344.87861,393.853892 349.770028,401.905705 353.735809,407.170468 C357.70159,412.435231 365.466824,420.247436 377.031509,430.607083" id="Path-51" stroke="#A2A2A2" stroke-width="3"></path>
            <path d="M264.123932,186.751398 C312.852356,302.326412 342.38385,367.941831 352.718414,383.597653 C363.052979,399.253476 375.634755,419.518694 390.463745,444.393308" id="Path-52" stroke="#A2A2A2" stroke-width="3"></path>
            <path d="M87.6990967,6.82027908 L227.158844,333.2013 C235.189555,350.649682 243.896042,363.19812 253.278305,370.846616 C262.660568,378.495111 281.294159,388.234522 309.179077,400.064847 C341.50014,415.845225 365.051694,430.621378 379.83374,444.393308 C394.615786,458.165237 411.145907,480.731816 429.424103,512.093045" id="Path-53" stroke="#A2A2A2" stroke-width="3"></path>
            <path d="M500.383942,631.942563 L364.66037,573.305112 C320.296153,556.588284 286.784007,539.671709 264.123932,522.555387 C230.13382,496.880902 226.171594,502.389458 201.640762,473.557915 C191.008614,461.061754 163.389151,389.12938 109.257614,264.090533 C89.8368557,219.230376 53.4176509,135.835433 0,13.9057054" id="Path-54" stroke="#A2A2A2" stroke-width="3"></path>
            <path d="M6.71139526,13.9057054 C59.0031645,133.964937 94.6399539,215.979363 113.621764,259.948981 C168.725309,387.591281 197.24481,455.082031 201.180267,462.421231 C207.149226,473.552691 222.002192,489.309974 245.739166,509.693082" id="Path-55" stroke="#A2A2A2" stroke-width="3"></path>
            <path d="M482.056488,623.388272 C429.613027,598.44652 392.008484,575.153928 369.242859,553.510495 C346.477234,531.867063 320.858988,481.834037 292.388123,403.41142" id="Path-56" stroke="#A2A2A2" stroke-width="3"></path>
            <path d="M255.828397,397.283627 C270.916857,433.244138 282.006897,458.058455 289.098517,471.726579 C301.344735,495.329484 312.991085,513.217305 324.037567,525.390042 C344.679352,548.13638 372.79243,567.913042 408.376801,584.720029" id="Path-57" stroke="#A2A2A2" stroke-width="3"></path>
            <path d="M41.3240967,0.0189831368 C158.887436,274.137363 222.112737,420.887163 231,440.268384 C244.330894,469.340215 255.749185,483.293171 269.632131,497.91 C278.291622,507.02725 287.842661,515.735492 298.285248,524.034726 C325.469452,545.63934 379.417704,576.063677 460.130005,615.307736" id="Path-58" stroke="#A2A2A2" stroke-width="3"></path>
            <path d="M48.1127014,0.0189831368 C92.2456117,101.975306 122.017383,171.268304 137.428016,207.897977 C154.66588,248.870812 169.108526,281.089511 179.301583,305.273246 C191.69164,334.669512 198.757852,352.193842 209.072174,359.137866 C221.605316,367.575692 254.974284,381.218018 309.179077,400.064847" id="Path-59" stroke="#A2A2A2" stroke-width="3"></path>
            <path d="M188.843217,343.524362 C194.130186,355.581395 203.048053,364.780513 215.596817,371.121716 C228.145581,377.46292 259.339668,387.11063 309.179077,400.064847" id="Path-60" stroke="#A2A2A2" stroke-width="3"></path>
            <path d="M295.213692,395.899709 C316.53634,406.558638 331.152295,414.932537 339.061554,421.021405 C346.970813,427.110273 354.183704,434.900907 360.700226,444.393308" id="Path-61" stroke="#A2A2A2" stroke-width="3"></path>
            <g id="Group-28" transform="translate(0.239166, 0.352048)" stroke="#FDFDFD" stroke-dasharray="4,5" stroke-linecap="round">
                <path d="M564.239166,750.753231 C551.774697,714.964344 540.731627,688.379058 531.109955,670.997371 C521.488283,653.615685 511.246278,640.591088 500.383942,631.92358 C486.619037,619.153437 477.276569,609.243454 472.356537,602.19363 C467.436505,595.143806 461.612164,584.180335 454.883514,569.303219 L279.559692,175.605846" id="Path-46"></path>
                <path d="M500.383942,632.036858 L364.66037,573.399406 C320.296153,556.682579 286.784007,539.766004 264.123932,522.649681 C230.13382,496.975197 226.171594,502.483753 201.640762,473.65221 C191.008614,461.156049 163.389151,389.223675 109.257614,264.184828 C89.8368557,219.324671 53.4176509,135.929728 0,14" id="Path-54"></path>
                <path d="M6.71139526,14 C59.0031645,134.059232 94.6399539,216.073657 113.621764,260.043275 C168.725309,387.685576 197.24481,455.176326 201.180267,462.515526 C207.149226,473.646985 222.002192,489.404269 245.739166,509.787376" id="Path-55"></path>
                <path d="M408.376801,463.179538 C400.840078,443.489491 397.071716,429.304721 397.071716,420.625226 C397.071716,411.945731 393.303355,400.73992 385.766632,387.007793 L289.715881,172.981017" id="Path-47"></path>
                <line x1="397.363892" y1="424.330776" x2="284.060211" y2="172.981017" id="Path-48"></line>
                <path d="M274.37796,178.70457 C331.69009,308.553963 364.837439,382.912194 373.820007,401.779262 C382.802576,420.646331 392.777622,437.884765 403.745148,453.494564" id="Path-49"></path>
                <path d="M231,175.605846 L311.159607,359.118883 C318.608965,373.377232 325.290544,384.016706 331.204346,391.037304 C337.118147,398.057902 347.706526,407.920542 362.969482,420.625226 C373.564367,427.525405 381.661463,433.933094 387.260773,439.848293 C392.860082,445.763492 401.130926,456.882683 412.073303,473.205867" id="Path-50"></path>
                <path d="M253.278305,189.876339 L339.061554,382.996044 C344.87861,393.834908 349.770028,401.886722 353.735809,407.151485 C357.70159,412.416248 365.466824,420.228453 377.031509,430.5881" id="Path-51"></path>
                <path d="M264.123932,186.732415 C312.852356,302.307429 342.38385,367.922847 352.718414,383.57867 C363.052979,399.234493 375.634755,419.499711 390.463745,444.374325" id="Path-52"></path>
                <path d="M87.6990967,6.80129595 L227.158844,333.182317 C235.189555,350.630699 243.896042,363.179137 253.278305,370.827633 C262.660568,378.476128 281.294159,388.215539 309.179077,400.045864 C341.50014,415.826242 365.051694,430.602395 379.83374,444.374325 C394.615786,458.146254 411.145907,480.712833 429.424103,512.074062" id="Path-53"></path>
                <path d="M482.056488,623.369289 C429.613027,598.427537 392.008484,575.134945 369.242859,553.491512 C346.477234,531.848079 320.858988,481.815054 292.388123,403.392437" id="Path-56"></path>
                <path d="M255.828397,397.264644 C270.916857,433.225155 282.006897,458.039472 289.098517,471.707595 C301.344735,495.310501 312.991085,513.198322 324.037567,525.371059 C344.679352,548.117397 372.79243,567.894059 408.376801,584.701046" id="Path-57"></path>
                <path d="M41.3240967,0 C158.887436,274.11838 222.112737,420.86818 231,440.249401 C244.330894,469.321232 255.749185,483.274188 269.632131,497.891017 C278.291622,507.008267 287.842661,515.716509 298.285248,524.015743 C325.469452,545.620357 379.417704,576.044694 460.130005,615.288753" id="Path-58"></path>
                <path d="M48.1127014,0 C92.2456117,101.956323 122.017383,171.24932 137.428016,207.878994 C154.66588,248.851829 169.108526,281.070528 179.301583,305.254263 C191.69164,334.650529 198.757852,352.174859 209.072174,359.118883 C221.605316,367.556708 254.974284,381.199035 309.179077,400.045864" id="Path-59"></path>
                <path d="M188.843217,343.505378 C194.130186,355.562412 203.048053,364.76153 215.596817,371.102733 C228.145581,377.443936 259.339668,387.091647 309.179077,400.045864" id="Path-60"></path>
                <path d="M295.213692,395.880726 C316.53634,406.539655 331.152295,414.913554 339.061554,421.002422 C346.970813,427.09129 354.183704,434.881924 360.700226,444.374325" id="Path-61"></path>
            </g>
        </g>
        <g id="Group-29" transform="translate(129.000000, 112.000000)" fill="#4C4C4C">
            <g id="coal" transform="translate(0.000000, 27.000000)">
                <path d="M3,3.21533203 C3,3.21533203 3.62792969,2.14355469 4.88378906,0 L6.4309082,4.3125 L4.88378906,5 C3.62792969,3.81022135 3,3.21533203 3,3.21533203 Z" id="Path-180"></path>
                <path d="M0,7.20263672 C0,7.20263672 0.582356771,6.13509115 1.74707031,4 L4.296875,6 L2.1484375,8.21777344 C0.716145833,7.54101563 0,7.20263672 0,7.20263672 Z" id="Path-180"></path>
                <path d="M3.7800293,8.63671875 C3.7800293,8.63671875 4.93277995,7.45825195 7.23828125,5.10131836 L9.00146484,7.63671875 L6.74707031,8.63671875 C4.76904297,8.63671875 3.7800293,8.63671875 3.7800293,8.63671875 Z" id="Path-180"></path>
                <path d="M9.39111328,5.20263672 C9.39111328,5.20263672 10.1368001,4.80175781 11.6281738,4 L13.9404297,5.20263672 L13.2617188,7.25048828 L11.390625,8.20263672 C10.0576172,6.20263672 9.39111328,5.20263672 9.39111328,5.20263672 Z" id="Path-180"></path>
                <path d="M7,3 C7,3 7.18969727,2 7.5690918,0 L10.8850098,2.5 L8.72192383,4 C7.57397461,3.33333333 7,3 7,3 Z" id="Path-180"></path>
            </g>
            <g id="coal" transform="translate(76.000000, 199.000000)">
                <path d="M3,3.21533203 C3,3.21533203 3.62792969,2.14355469 4.88378906,0 L6.4309082,4.3125 L4.88378906,5 C3.62792969,3.81022135 3,3.21533203 3,3.21533203 Z" id="Path-180"></path>
                <path d="M0,7.20263672 C0,7.20263672 0.582356771,6.13509115 1.74707031,4 L4.296875,6 L2.1484375,8.21777344 C0.716145833,7.54101563 0,7.20263672 0,7.20263672 Z" id="Path-180"></path>
                <path d="M3.7800293,8.63671875 C3.7800293,8.63671875 4.93277995,7.45825195 7.23828125,5.10131836 L9.00146484,7.63671875 L6.74707031,8.63671875 C4.76904297,8.63671875 3.7800293,8.63671875 3.7800293,8.63671875 Z" id="Path-180"></path>
                <path d="M9.39111328,5.20263672 C9.39111328,5.20263672 10.1368001,4.80175781 11.6281738,4 L13.9404297,5.20263672 L13.2617188,7.25048828 L11.390625,8.20263672 C10.0576172,6.20263672 9.39111328,5.20263672 9.39111328,5.20263672 Z" id="Path-180"></path>
                <path d="M7,3 C7,3 7.18969727,2 7.5690918,0 L10.8850098,2.5 L8.72192383,4 C7.57397461,3.33333333 7,3 7,3 Z" id="Path-180"></path>
            </g>
            <g id="coal" transform="translate(115.000000, 190.000000)">
                <path d="M3,3.21533203 C3,3.21533203 3.62792969,2.14355469 4.88378906,0 L6.4309082,4.3125 L4.88378906,5 C3.62792969,3.81022135 3,3.21533203 3,3.21533203 Z" id="Path-180"></path>
                <path d="M0,7.20263672 C0,7.20263672 0.582356771,6.13509115 1.74707031,4 L4.296875,6 L2.1484375,8.21777344 C0.716145833,7.54101563 0,7.20263672 0,7.20263672 Z" id="Path-180"></path>
                <path d="M3.7800293,8.63671875 C3.7800293,8.63671875 4.93277995,7.45825195 7.23828125,5.10131836 L9.00146484,7.63671875 L6.74707031,8.63671875 C4.76904297,8.63671875 3.7800293,8.63671875 3.7800293,8.63671875 Z" id="Path-180"></path>
                <path d="M9.39111328,5.20263672 C9.39111328,5.20263672 10.1368001,4.80175781 11.6281738,4 L13.9404297,5.20263672 L13.2617188,7.25048828 L11.390625,8.20263672 C10.0576172,6.20263672 9.39111328,5.20263672 9.39111328,5.20263672 Z" id="Path-180"></path>
                <path d="M7,3 C7,3 7.18969727,2 7.5690918,0 L10.8850098,2.5 L8.72192383,4 C7.57397461,3.33333333 7,3 7,3 Z" id="Path-180"></path>
            </g>
            <g id="coal" transform="translate(137.000000, 335.000000)">
                <path d="M3,3.21533203 C3,3.21533203 3.62792969,2.14355469 4.88378906,0 L6.4309082,4.3125 L4.88378906,5 C3.62792969,3.81022135 3,3.21533203 3,3.21533203 Z" id="Path-180"></path>
                <path d="M0,7.20263672 C0,7.20263672 0.582356771,6.13509115 1.74707031,4 L4.296875,6 L2.1484375,8.21777344 C0.716145833,7.54101563 0,7.20263672 0,7.20263672 Z" id="Path-180"></path>
                <path d="M3.7800293,8.63671875 C3.7800293,8.63671875 4.93277995,7.45825195 7.23828125,5.10131836 L9.00146484,7.63671875 L6.74707031,8.63671875 C4.76904297,8.63671875 3.7800293,8.63671875 3.7800293,8.63671875 Z" id="Path-180"></path>
                <path d="M9.39111328,5.20263672 C9.39111328,5.20263672 10.1368001,4.80175781 11.6281738,4 L13.9404297,5.20263672 L13.2617188,7.25048828 L11.390625,8.20263672 C10.0576172,6.20263672 9.39111328,5.20263672 9.39111328,5.20263672 Z" id="Path-180"></path>
                <path d="M7,3 C7,3 7.18969727,2 7.5690918,0 L10.8850098,2.5 L8.72192383,4 C7.57397461,3.33333333 7,3 7,3 Z" id="Path-180"></path>
            </g>
            <g id="coal" transform="translate(146.000000, 175.000000)">
                <path d="M3,3.21533203 C3,3.21533203 3.62792969,2.14355469 4.88378906,0 L6.4309082,4.3125 L4.88378906,5 C3.62792969,3.81022135 3,3.21533203 3,3.21533203 Z" id="Path-180"></path>
                <path d="M0,7.20263672 C0,7.20263672 0.582356771,6.13509115 1.74707031,4 L4.296875,6 L2.1484375,8.21777344 C0.716145833,7.54101563 0,7.20263672 0,7.20263672 Z" id="Path-180"></path>
                <path d="M3.7800293,8.63671875 C3.7800293,8.63671875 4.93277995,7.45825195 7.23828125,5.10131836 L9.00146484,7.63671875 L6.74707031,8.63671875 C4.76904297,8.63671875 3.7800293,8.63671875 3.7800293,8.63671875 Z" id="Path-180"></path>
                <path d="M9.39111328,5.20263672 C9.39111328,5.20263672 10.1368001,4.80175781 11.6281738,4 L13.9404297,5.20263672 L13.2617188,7.25048828 L11.390625,8.20263672 C10.0576172,6.20263672 9.39111328,5.20263672 9.39111328,5.20263672 Z" id="Path-180"></path>
                <path d="M7,3 C7,3 7.18969727,2 7.5690918,0 L10.8850098,2.5 L8.72192383,4 C7.57397461,3.33333333 7,3 7,3 Z" id="Path-180"></path>
            </g>
            <g id="coal" transform="translate(39.000000, 12.000000)">
                <path d="M3,3.21533203 C3,3.21533203 3.62792969,2.14355469 4.88378906,0 L6.4309082,4.3125 L4.88378906,5 C3.62792969,3.81022135 3,3.21533203 3,3.21533203 Z" id="Path-180"></path>
                <path d="M0,7.20263672 C0,7.20263672 0.582356771,6.13509115 1.74707031,4 L4.296875,6 L2.1484375,8.21777344 C0.716145833,7.54101563 0,7.20263672 0,7.20263672 Z" id="Path-180"></path>
                <path d="M3.7800293,8.63671875 C3.7800293,8.63671875 4.93277995,7.45825195 7.23828125,5.10131836 L9.00146484,7.63671875 L6.74707031,8.63671875 C4.76904297,8.63671875 3.7800293,8.63671875 3.7800293,8.63671875 Z" id="Path-180"></path>
                <path d="M9.39111328,5.20263672 C9.39111328,5.20263672 10.1368001,4.80175781 11.6281738,4 L13.9404297,5.20263672 L13.2617188,7.25048828 L11.390625,8.20263672 C10.0576172,6.20263672 9.39111328,5.20263672 9.39111328,5.20263672 Z" id="Path-180"></path>
                <path d="M7,3 C7,3 7.18969727,2 7.5690918,0 L10.8850098,2.5 L8.72192383,4 C7.57397461,3.33333333 7,3 7,3 Z" id="Path-180"></path>
            </g>
            <g id="coal" transform="translate(69.000000, 0.000000)">
                <path d="M3,3.21533203 C3,3.21533203 3.62792969,2.14355469 4.88378906,0 L6.4309082,4.3125 L4.88378906,5 C3.62792969,3.81022135 3,3.21533203 3,3.21533203 Z" id="Path-180"></path>
                <path d="M0,7.20263672 C0,7.20263672 0.582356771,6.13509115 1.74707031,4 L4.296875,6 L2.1484375,8.21777344 C0.716145833,7.54101563 0,7.20263672 0,7.20263672 Z" id="Path-180"></path>
                <path d="M3.7800293,8.63671875 C3.7800293,8.63671875 4.93277995,7.45825195 7.23828125,5.10131836 L9.00146484,7.63671875 L6.74707031,8.63671875 C4.76904297,8.63671875 3.7800293,8.63671875 3.7800293,8.63671875 Z" id="Path-180"></path>
                <path d="M9.39111328,5.20263672 C9.39111328,5.20263672 10.1368001,4.80175781 11.6281738,4 L13.9404297,5.20263672 L13.2617188,7.25048828 L11.390625,8.20263672 C10.0576172,6.20263672 9.39111328,5.20263672 9.39111328,5.20263672 Z" id="Path-180"></path>
                <path d="M7,3 C7,3 7.18969727,2 7.5690918,0 L10.8850098,2.5 L8.72192383,4 C7.57397461,3.33333333 7,3 7,3 Z" id="Path-180"></path>
            </g>
        </g>
        <g id="Group" transform="translate(224.569440, 88.107542)">
            <path d="M187.415623,400.909571 L211.678303,466.982554 C212.249428,468.537862 213.973242,469.3357 215.52855,468.764575 C215.559293,468.753286 215.589848,468.741494 215.620205,468.729204 L230.423898,462.736055 C231.945045,462.120232 232.689075,460.396444 232.093823,458.86713 L206.490487,393.087305 C205.889512,391.543286 204.150651,390.778798 202.606632,391.379773 C202.579315,391.390406 202.552155,391.401438 202.525162,391.412866 L189.062125,397.112857 C187.588529,397.73675 186.864018,399.407419 187.415623,400.909571 Z" id="Path-62" fill="#56DAD9"></path>
            <polygon id="Path-65" fill="#56DAD9" points="213.861224 489.94768 218.300647 500.86368 231.652865 495.40568 227.292727 484.215899"></polygon>
            <path d="M239.488452,478.567141 L252.80736,472.523264 L257.950091,483.295168 L255.328372,484.727205 L253.046527,483.295168 C246.899808,486.349601 243.826449,487.876818 243.826449,487.876818 L239.488452,478.567141 Z" id="Path-66" fill="#56DAD9"></path>
            <polygon id="Path-67" fill="#CDCACA" points="164.49071 382.312197 167.578799 388.835627 185.142611 380.947275 182.138613 374.92016"></polygon>
            <polygon id="Path-68" fill="#CDCACA" points="159.824633 337.641863 164.49071 343.792167 176.772325 354.796114 180.366793 351.303878 167.839724 340.366938 164.49071 334.892458"></polygon>
            <polygon id="Path-69" fill="#56DAD9" points="83.0436427 111.617373 90.1697261 128.273691 106.335513 120.892458 103.231326 114.142801 94.6225307 117.900553 90.1697261 108.33626"></polygon>
            <polygon id="Path-70" fill="#56DAD9" points="119.047686 106.387003 113.028426 109.205149 110.843592 103.65764 109.118182 104.455446 107.009166 99.4450245 114.719821 96.0003147"></polygon>
            <polygon id="Path-71" fill="#56DAD9" points="1.15463195e-13 16.560236 8.52644609 35.7356434 17.756396 31.892458 8.87819802 12.3921223"></polygon>
            <polygon id="Path-72" fill="#56DAD9" points="88.00722 82.2691975 99.887335 76.9738483 87.2686488 47.6583004 81.2913768 49.8721867 82.256129 52.2157536 75.9060619 54.475008"></polygon>
            <polygon id="Path-73" fill="#56DAD9" points="90.1697261 3.15305901 97.3507411 20.3805332 104.463214 16.9818916 97.3164699 0"></polygon>
            <polygon id="Path-74" fill="#56DAD9" points="89.4157359 39.9256001 101.063922 34.7332172 107.93056 49.6199665 99.887335 53.1743793 101.699816 57.3356342 97.3164699 59.2883091 95.3967769 54.6189442 93.2212703 55.4387913 91.9305599 52.4969807 94.6225307 51.1831112"></polygon>
            <polygon id="Path-75" stroke="#979797" fill="#CDCACA" points="134.385607 77.2422123 140.75632 92.9123249 146.12424 90.831789 140.254924 75.3251209"></polygon>
            <polygon id="Path-76" fill="#56DAD9" points="3.01238511 48.0320568 17.756396 41.4437122 19.0669963 44.7456226 16.8711269 45.650629 17.756396 48.0320568 15.4577892 49.1035786 14.3087871 46.5579243 9.57285569 49.1035786 10.3482845 50.8873005 8.87819802 51.6633396 7.67296098 49.1035786 4.38331101 50.8873005"></polygon>
            <polygon id="Path-77" fill="#56DAD9" points="7.6860225 54.0945072 18.4037654 49.2785091 21.7443111 56.6199131 11.0396907 61.2074299"></polygon>
            <circle id="Oval" fill="#56DAD9" cx="23.9305599" cy="75.392458" r="4.5"></circle>
            <polygon id="Path-78" fill="#56DAD9" points="27.0494602 83.8717403 47.2001865 75.392458 49.3043697 80.614502 46.8584277 81.5149136 45.9269588 79.2557583 42.6937053 80.614502 43.7649753 83.3780079 40.9646404 84.4018841 39.9049403 82.1122608 37.0670345 83.3780079 38.1769149 85.8103886 34.900397 87.2176838 33.7910411 84.7179413 31.1278064 85.8103886 32.3877475 88.6167126 29.606097 89.9588947"></polygon>
            <polygon id="Path-79" fill="#56DAD9" points="30.3377178 92.4020634 32.1185138 96.5397816 50.4039981 88.0150394 48.100333 83.3780079 45.7163112 84.4217167 46.6769206 86.5436497 44.4013088 87.5619469 43.5000255 85.64641 41.0495288 86.9269772 42.041228 88.8098927 39.1692302 90.2116604 38.1769149 88.3648891 35.727822 89.6909447 36.5469615 91.6244831 33.9801776 92.760973 33.1626079 90.9809551"></polygon>
            <polygon id="Path-80" fill="#56DAD9" points="32.8636634 98.8106785 35.0639217 103.604639 53.366534 95.6965008 50.8772418 90.2954235 48.611098 91.4168091 49.6272952 93.8354816 47.1801097 94.9828434 46.184634 92.8557167 43.7471149 94.0015249 44.7931526 96.3316765 41.9213245 97.6793385 40.8197582 95.3459492 38.1769149 96.5397816 39.1673105 98.8106785 36.5417058 99.8901653 35.5397174 97.6793385"></polygon>
            <path d="M41.7557246,15.2819386 L23.9305599,25.892458 L27.0494602,34.7332172 L21.7443111,41.4437122 L25.7251918,53.701189 L24.1259111,55.2429695 L32.8636634,75.392458 L50.4039981,67.8773975 L62.2193782,49.2785091 L57.6796443,39.5773958 L57.6796443,35.7356434 L53.366534,25.892458 C54.1985613,21.1626244 54.1985613,17.6257846 53.366534,15.2819386 C52.5345067,12.9380925 50.1075149,9.63802335 46.0855586,5.38173103 C42.8335744,6.40048603 40.9286742,7.54758966 40.3708579,8.82304192 C39.8130417,10.0984942 40.2746639,12.2514597 41.7557246,15.2819386 Z" id="Path-81" fill="#A5D891"></path>
            <path d="M137.8498,521.736514 L196.854997,646.071301 C197.351716,647.117978 198.406724,647.785088 199.565284,647.785088 L256.783823,647.785088 L256.783823,647.785088 C264.980416,646.864183 271.1075,648.268583 275.165074,651.998289 C279.222649,655.727994 285.087647,665.346664 292.760068,680.854299 L304.264354,698.519704 C319.542638,692.305747 330.074875,692.305747 335.861064,698.519704 C341.647252,704.733661 338.602303,711.587832 326.726214,719.082216 C321.910114,720.72693 320.652709,724.175335 322.953997,729.427431 C326.40593,737.305575 340.606717,722.515434 353.022592,731.971675 C361.299842,738.275835 367.03515,746.916096 370.228517,757.892458 L392.362487,757.892458 C401.236638,757.892458 408.43056,750.698537 408.43056,741.824385 L408.43056,741.824385 L408.43056,741.824385 L395.02246,711.192883 L353.022592,603.168881 L335.861064,593.26061 C315.030646,578.727673 299.158876,568.567503 288.245755,562.780101 C271.876073,554.098998 276.78033,561.223087 262.904698,555.674443 C249.029066,550.125799 251.990309,547.780259 242.311404,544.411688 C235.858801,542.165973 226.553316,540.295634 214.394948,538.800669 L156.622313,512.400246 C155.909914,512.074701 155.098447,512.04068 154.361299,512.305453 L139.545964,517.626906 C137.986647,518.186991 137.176608,519.905106 137.736692,521.464423 C137.769915,521.556918 137.807663,521.647724 137.8498,521.736514 Z" id="Path-63" fill="#A5D891"></path>
        </g>
        <g id="Group-2" transform="translate(250.000000, 99.000000)" fill="#78B65F">
            <circle id="Oval" cx="257" cy="572" r="4"></circle>
            <circle id="Oval" cx="302" cy="625" r="4"></circle>
            <circle id="Oval" cx="353" cy="681" r="4"></circle>
            <circle id="Oval" cx="295" cy="657" r="4"></circle>
            <circle id="Oval" cx="282" cy="596" r="4"></circle>
            <circle id="Oval" cx="320" cy="597" r="4"></circle>
            <circle id="Oval" cx="375" cy="736" r="4"></circle>
            <circle id="Oval" cx="357" cy="728" r="4"></circle>
            <circle id="Oval" cx="321" cy="615" r="4"></circle>
            <circle id="Oval" cx="349" cy="702" r="4"></circle>
            <circle id="Oval" cx="318" cy="710" r="4"></circle>
            <circle id="Oval" cx="242" cy="585" r="4"></circle>
            <circle id="Oval" cx="228" cy="603" r="4"></circle>
            <circle id="Oval" cx="238" cy="568" r="4"></circle>
            <circle id="Oval" cx="217" cy="589" r="4"></circle>
            <circle id="Oval" cx="220" cy="565" r="4"></circle>
            <circle id="Oval" cx="276" cy="577" r="4"></circle>
            <circle id="Oval" cx="302" cy="602" r="4"></circle>
            <circle id="Oval" cx="230" cy="623" r="4"></circle>
            <circle id="Oval" cx="213" cy="551" r="4"></circle>
            <circle id="Oval" cx="208" cy="619" r="4"></circle>
            <circle id="Oval" cx="287" cy="615" r="4"></circle>
            <circle id="Oval" cx="273" cy="633" r="4"></circle>
            <circle id="Oval" cx="269" cy="607" r="4"></circle>
            <circle id="Oval" cx="254" cy="625" r="4"></circle>
            <circle id="Oval" cx="261" cy="590" r="4"></circle>
            <circle id="Oval" cx="247" cy="608" r="4"></circle>
            <circle id="Oval" cx="248" cy="555" r="4"></circle>
            <circle id="Oval" cx="21" cy="4" r="4"></circle>
            <circle id="Oval" cx="25" cy="42" r="4"></circle>
            <circle id="Oval" cx="12" cy="56" r="4"></circle>
            <circle id="Oval" cx="17" cy="23" r="4"></circle>
            <circle id="Oval" cx="4" cy="34" r="4"></circle>
            <circle id="Oval" cx="201" cy="567" r="4"></circle>
            <circle id="Oval" cx="198" cy="598" r="4"></circle>
            <circle id="Oval" cx="184" cy="616" r="4"></circle>
            <circle id="Oval" cx="194" cy="581" r="4"></circle>
            <circle id="Oval" cx="176" cy="594" r="4"></circle>
            <circle id="Oval" cx="194" cy="546" r="4"></circle>
            <circle id="Oval" cx="179" cy="559" r="4"></circle>
            <circle id="Oval" cx="165" cy="577" r="4"></circle>
            <circle id="Oval" cx="139" cy="522" r="4"></circle>
            <circle id="Oval" cx="161" cy="530" r="4"></circle>
            <circle id="Oval" cx="147" cy="538" r="4"></circle>
            <circle id="Oval" cx="175" cy="542" r="4"></circle>
            <circle id="Oval" cx="157" cy="555" r="4"></circle>
            <circle id="Oval" cx="313" cy="645" r="4"></circle>
            <circle id="Oval" cx="292" cy="586" r="4"></circle>
            <circle id="Oval" cx="331" cy="639" r="4"></circle>
            <circle id="Oval" cx="335" cy="676" r="4"></circle>
            <circle id="Oval" cx="321" cy="694" r="4"></circle>
            <circle id="Oval" cx="331" cy="659" r="4"></circle>
            <circle id="Oval" cx="313" cy="672" r="4"></circle>
            <circle id="Oval" cx="284" cy="676" r="4"></circle>
            <circle id="Oval" cx="294" cy="641" r="4"></circle>
            <circle id="Oval" cx="276" cy="654" r="4"></circle>
        </g>
        <text id="Порт-Высоцк" font-family="AvenirNext-DemiBold, Avenir Next" font-size="24" font-weight="500" fill="#7D7D7D">
            <tspan x="333.26" y="30">Порт Высоцк</tspan>
        </text>
        <path d="M254.953056,412.496959 C255.307897,415.869424 255.307897,420.430583 254.953056,426.180433 C254.598214,431.930284 253.73372,437.055577 252.359575,441.556312 C246.36682,461.061364 240.489417,479.623768 234.727366,497.243524 C230.263525,510.893488 227.097851,525.889759 220.448468,539.892002 C216.154103,548.935061 211.696143,555.86594 207.074589,560.684641 C206.804651,560.966027 206.395779,561.064884 206.027121,560.937858 L195.9485,557.465145 C195.572368,557.335563 195.308834,556.995344 195.27738,556.598761 C194.553425,547.470988 195.105632,538.980833 196.934002,531.128297 C198.805949,523.088607 209.239714,490.374975 228.235297,432.987399 C230.402558,426.958871 232.539354,422.316008 234.645686,419.058811 C236.752018,415.801614 239.492871,412.387586 242.868246,408.816728 C245.779604,405.565785 248.422965,404.34796 250.798329,405.163252 C253.173694,405.978544 254.558603,408.423113 254.953056,412.496959 Z" id="Path-150" stroke="#979797" stroke-width="0.5" fill-opacity="0.25" fill="#FFFFFF" stroke-dasharray="1,1" transform="translate(225.094273, 483.031257) rotate(139.000000) translate(-225.094273, -483.031257) "></path>
        <path d="M100.228707,51.3938967 C100.583549,54.7663625 100.583549,59.3275208 100.228707,65.0773714 C99.8738657,70.827222 99.0093721,75.9525149 97.6352264,80.4532499 C93.3936808,94.2160394 88.3918826,109.907312 82.6298316,127.527068 C78.1659904,141.177032 65.7241199,178.788941 65.7241199,178.788941 C61.7154285,188.423763 57.2557808,195.381986 52.3451767,199.663607 C52.0754192,199.898753 51.7005761,199.971865 51.3622388,199.855286 L41.199746,196.353674 C40.8362062,196.22837 40.5766887,195.905734 40.5322516,195.523782 C39.4540832,186.256538 39.825531,178.458551 41.6465949,172.129822 C43.5084944,165.659178 54.1299456,132.244016 73.5109487,71.8843371 C75.6782092,65.8558087 77.8150055,61.212946 79.9213374,57.9557491 C82.0276693,54.6985522 84.7685228,51.2845245 88.1438979,47.7136661 C91.0552554,44.4627235 93.6986165,43.2448982 96.0739811,44.0601902 C98.4493457,44.8754822 99.8342544,47.320051 100.228707,51.3938967 Z" id="Path-150" stroke="#979797" stroke-width="0.5" fill-opacity="0.25" fill="#FFFFFF" stroke-dasharray="1,1" transform="translate(70.212832, 121.928195) rotate(139.000000) translate(-70.212832, -121.928195) "></path>
        <path d="M178.865285,234.529775 C179.220127,237.90224 179.220127,242.463399 178.865285,248.213249 C178.510444,253.9631 177.64595,259.088393 176.271804,263.589128 C172.030259,277.351917 167.028461,293.04319 161.26641,310.662946 C156.802569,324.31291 144.360698,361.924818 144.360698,361.924818 C140.352007,371.559641 135.892359,378.517863 130.981755,382.799485 C130.711997,383.03463 130.337154,383.107742 129.998817,382.991164 L119.874242,379.502617 C119.491521,379.370726 119.226055,379.021116 119.201821,378.617032 C118.606187,368.685526 119.218978,360.555144 121.040193,354.225888 C122.902093,347.755243 133.271204,314.686686 152.147527,255.020215 C154.314787,248.991687 156.451584,244.348824 158.557915,241.091627 C160.664247,237.83443 163.405101,234.420402 166.780476,230.849544 C169.691833,227.598601 172.335195,226.380776 174.710559,227.196068 C177.085924,228.01136 178.470832,230.455929 178.865285,234.529775 Z" id="Path-150" stroke="#979797" stroke-width="0.5" fill-opacity="0.25" fill="#FFFFFF" stroke-dasharray="1,1" transform="translate(149.056523, 305.064073) rotate(139.000000) translate(-149.056523, -305.064073) "></path>
        <g id="info_button" transform="translate(97.000000, 427.000000)">
            <circle id="Oval" stroke="#56A7E8" stroke-width="3" fill="#FFFFFF" cx="16" cy="16" r="14.5"></circle>
            <rect id="Rectangle" fill="#56A7E8" x="13" y="14" width="6" height="12" rx="3"></rect>
            <circle id="Oval" fill="#56A7E8" cx="16" cy="9" r="3"></circle>
        </g>
        <g id="close_button" opacity="0.750255766" transform="translate(591.000000, 14.000000)" stroke="#B6B6B6" stroke-width="3">
            <line x1="24" y1="8" x2="8" y2="24" id="Path-14"></line>
            <line x1="8.05599869" y1="8.12187357" x2="23.7483064" y2="23.8141813" id="Path-14"></line>
            <rect id="Rectangle" fill-opacity="0.35" fill="#D8D8D8" x="1.5" y="1.5" width="29" height="29" rx="5"></rect>
        </g>
    </g>
</svg>