<?xml version="1.0" encoding="UTF-8"?>
<svg width="64px" height="64px" viewBox="0 0 64 64" version="1.1" xmlns="http://www.w3.org/2000/svg" xmlns:xlink="http://www.w3.org/1999/xlink">
    <title>day</title>
    <g id="day" stroke="none" stroke-width="1" fill="none" fill-rule="evenodd">
        <rect id="Rectangle" fill="#3F80FF" x="0" y="0" width="64" height="64" rx="11"></rect>
        <g id="Group-10" transform="translate(3.000000, 3.000000)" fill="#FFC602">
            <circle id="Oval" cx="26.5" cy="25.5862069" r="14.6206897"></circle>
            <path d="M27.4322867,2.40284681 L29.6268351,8.05900797 C29.8266077,8.57389569 29.5711564,9.15324233 29.0562687,9.35301493 C28.9409224,9.39776845 28.8182725,9.42072826 28.6945484,9.42072826 L24.3054516,9.42072826 C23.7531668,9.42072826 23.3054516,8.97301301 23.3054516,8.42072826 C23.3054516,8.29700415 23.3284114,8.17435431 23.3731649,8.05900797 L25.5677133,2.40284681 C25.7674859,1.8879591 26.3468326,1.63250783 26.8617203,1.83228043 C27.1236051,1.9338898 27.3306773,2.14096197 27.4322867,2.40284681 Z" id="Rectangle"></path>
            <path d="M6.41504529,23.4200882 L8.6095937,29.0762494 C8.8093663,29.5911371 8.55391503,30.1704837 8.03902732,30.3702563 C7.92368098,30.4150098 7.80103114,30.4379696 7.67730703,30.4379696 L3.28821021,30.4379696 C2.73592546,30.4379696 2.28821021,29.9902544 2.28821021,29.4379696 C2.28821021,29.3142455 2.31117002,29.1915957 2.35592354,29.0762494 L4.55047195,23.4200882 C4.75024455,22.9052005 5.3295912,22.6497492 5.84447891,22.8495218 C6.10636375,22.9511312 6.31343592,23.1582033 6.41504529,23.4200882 Z" id="Rectangle" transform="translate(5.482759, 25.727606) rotate(-90.000000) translate(-5.482759, -25.727606) "></path>
            <path d="M48.449528,23.4200882 L50.6440765,29.0762494 C50.8438491,29.5911371 50.5883978,30.1704837 50.0735101,30.3702563 C49.9581637,30.4150098 49.8355139,30.4379696 49.7117898,30.4379696 L45.322693,30.4379696 C44.7704082,30.4379696 44.322693,29.9902544 44.322693,29.4379696 C44.322693,29.3142455 44.3456528,29.1915957 44.3904063,29.0762494 L46.5849547,23.4200882 C46.7847273,22.9052005 47.364074,22.6497492 47.8789617,22.8495218 C48.1408465,22.9511312 48.3479187,23.1582033 48.449528,23.4200882 Z" id="Rectangle" transform="translate(47.517241, 25.727606) rotate(90.000000) translate(-47.517241, -25.727606) "></path>
            <path d="M27.4322867,44.4373296 L29.6268351,50.0934907 C29.8266077,50.6083784 29.5711564,51.1877251 29.0562687,51.3874977 C28.9409224,51.4322512 28.8182725,51.455211 28.6945484,51.455211 L24.3054516,51.455211 C23.7531668,51.455211 23.3054516,51.0074958 23.3054516,50.455211 C23.3054516,50.3314869 23.3284114,50.2088371 23.3731649,50.0934907 L25.5677133,44.4373296 C25.7674859,43.9224419 26.3468326,43.6669906 26.8617203,43.8667632 C27.1236051,43.9683726 27.3306773,44.1754447 27.4322867,44.4373296 Z" id="Rectangle" transform="translate(26.500000, 46.744847) rotate(180.000000) translate(-26.500000, -46.744847) "></path>
            <path d="M12.811597,8.79939854 L15.0061454,14.4555597 C15.205918,14.9704474 14.9504668,15.5497941 14.435579,15.7495667 C14.3202327,15.7943202 14.1975829,15.81728 14.0738588,15.81728 L9.68476193,15.81728 C9.13247718,15.81728 8.68476193,15.3695647 8.68476193,14.81728 C8.68476193,14.6935559 8.70772174,14.570906 8.75247526,14.4555597 L10.9470237,8.79939854 C11.1467963,8.28451082 11.7261429,8.02905955 12.2410306,8.22883215 C12.5029155,8.33044152 12.7099876,8.53751369 12.811597,8.79939854 Z" id="Rectangle" transform="translate(11.879310, 11.106916) rotate(-45.000000) translate(-11.879310, -11.106916) "></path>
            <path d="M42.0529763,8.79939854 L44.2475247,14.4555597 C44.4472973,14.9704474 44.1918461,15.5497941 43.6769584,15.7495667 C43.561612,15.7943202 43.4389622,15.81728 43.3152381,15.81728 L38.9261412,15.81728 C38.3738565,15.81728 37.9261412,15.3695647 37.9261412,14.81728 C37.9261412,14.6935559 37.9491011,14.570906 37.9938546,14.4555597 L40.188403,8.79939854 C40.3881756,8.28451082 40.9675222,8.02905955 41.4824099,8.22883215 C41.7442948,8.33044152 41.951367,8.53751369 42.0529763,8.79939854 Z" id="Rectangle" transform="translate(41.120690, 11.106916) rotate(45.000000) translate(-41.120690, -11.106916) "></path>
            <path d="M42.177909,38.0845043 L44.3724574,43.7406654 C44.57223,44.2555531 44.3167787,44.8348998 43.801891,45.0346724 C43.6865447,45.0794259 43.5638948,45.1023857 43.4401707,45.1023857 L39.0510739,45.1023857 C38.4987891,45.1023857 38.0510739,44.6546705 38.0510739,44.1023857 C38.0510739,43.9786616 38.0740337,43.8560118 38.1187872,43.7406654 L40.3133356,38.0845043 C40.5131082,37.5696166 41.0924549,37.3141653 41.6073426,37.5139379 C41.8692274,37.6155473 42.0762996,37.8226194 42.177909,38.0845043 Z" id="Rectangle" transform="translate(41.245622, 40.392022) rotate(135.000000) translate(-41.245622, -40.392022) "></path>
            <path d="M12.811597,38.0407778 L15.0061454,43.696939 C15.205918,44.2118267 14.9504668,44.7911734 14.435579,44.990946 C14.3202327,45.0356995 14.1975829,45.0586593 14.0738588,45.0586593 L9.68476193,45.0586593 C9.13247718,45.0586593 8.68476193,44.610944 8.68476193,44.0586593 C8.68476193,43.9349352 8.70772174,43.8122853 8.75247526,43.696939 L10.9470237,38.0407778 C11.1467963,37.5258901 11.7261429,37.2704389 12.2410306,37.4702115 C12.5029155,37.5718208 12.7099876,37.778893 12.811597,38.0407778 Z" id="Rectangle" transform="translate(11.879310, 40.348295) rotate(-135.000000) translate(-11.879310, -40.348295) "></path>
        </g>
        <path d="M34.4,29 C30.6996922,29 27.3496922,30.4998461 24.9247691,32.9247691 C22.4998461,35.3496922 21,38.6996922 21,42.4 C21,42.575182 21.0032962,42.7496068 21.006519,42.9231504 C21.013616,43.3053112 21.0196682,43.6835876 20.998378,44.0569329 C20.9794827,44.3882814 20.9387486,44.7210404 20.8945235,45.0565731 C20.6016859,45.0192632 20.3030925,45 20,45 C18.0670034,45 16.3170034,45.7835017 15.0502525,47.0502525 C13.7835017,48.3170034 13,50.0670034 13,52 C13,53.90222 13.7595107,55.6272261 15.0201423,56.8878577 C16.2763512,58.1440666 18.0272967,58.937258 20.0152495,58.9999981 L49.0760584,58.9963436 C51.8304863,58.923285 54.3126378,57.7580333 56.1056356,55.9181324 C57.8966766,54.0802395 59,51.5689621 59,48.8 C59,45.9833478 57.8583261,43.4333478 56.0124892,41.5875108 C54.1666522,39.7416739 51.6166522,38.6 48.8,38.6 C48.5524638,38.6 48.3069892,38.6087964 48.0645829,38.6266895 L47.3009866,38.6830538 L47.0474043,37.9605911 C46.1188965,35.3152481 44.3836528,33.0496558 42.1373513,31.4581179 C39.9518983,29.9096921 37.2821492,29 34.4,29 Z" id="Combined-Shape" stroke="#3F80FF" stroke-width="2" fill="#FFFFFF"></path>
    </g>
</svg>