  <svg display="none" xmlns="http://www.w3.org/2000/svg">
    <symbol id="icon-15" viewBox="0 0 24 24">
        <g id="Group" transform="translate(3.363636, 3.000000)" stroke="#979797" stroke-width="3">
            <polyline id="Path-59" points="17.6363636 11 17.6363636 18 11.6363636 18"></polyline>
            <path d="M0.636363636,18 L0.636363636,0 L13.3105134,0 C13.8627982,-1.01453063e-16 14.3105134,0.44771525 14.3105134,1 C14.3105134,1.3357178 14.1420547,1.6490344 13.8620055,1.83418011 L5.416041,7.41796551 L5.416041,7.41796551 L16.6363636,15.9548096" id="Path-58"></path>
        </g>
    </symbol>
    <symbol id="icon-11" viewBox="0 0 24 24">
        <g id="Group" fill="#979797">
            <path d="M11.9936935,8.97060204e-14 C10.4424312,2.75728817 9.56705375,4.39906527 9.36756104,4.92533128 C9.06832198,5.7147303 7.95661595,9.66699219 11.9936935,9.66699219 C16.030771,9.66699219 14.955344,5.71532413 14.6056761,4.92533128 C14.3725641,4.39866938 13.5019032,2.75689229 11.9936935,8.97060204e-14 Z" id="Path-181"></path>
            <path d="M20.9936935,7 C19.4424312,9.75728817 18.5670538,11.3990653 18.367561,11.9253313 C18.068322,12.7147303 16.956616,16.6669922 20.9936935,16.6669922 C25.030771,16.6669922 23.955344,12.7153241 23.6056761,11.9253313 C23.3725641,11.3986694 22.5019032,9.75689229 20.9936935,7 Z" id="Path-181"></path>
            <path d="M2.9936935,7 C1.44243124,9.75728817 0.567053753,11.3990653 0.367561043,11.9253313 C0.0683219791,12.7147303 -1.04338405,16.6669922 2.9936935,16.6669922 C7.03077104,16.6669922 5.95534403,12.7153241 5.60567607,11.9253313 C5.3725641,11.3986694 4.50190324,9.75689229 2.9936935,7 Z" id="Path-181"></path>
            <path d="M11.9936935,14 C10.4424312,16.7572882 9.56705375,18.3990653 9.36756104,18.9253313 C9.06832198,19.7147303 7.95661595,23.6669922 11.9936935,23.6669922 C16.030771,23.6669922 14.955344,19.7153241 14.6056761,18.9253313 C14.3725641,18.3986694 13.5019032,16.7568923 11.9936935,14 Z" id="Path-181"></path>
        </g>   
    </symbol>
    <symbol id="icon-27" viewBox="0 0 24 24">
        <g id="Group" transform="translate(3.000000, 0.000000)">
            <path d="M2.9936935,0.166503906 C1.44243124,2.92379208 0.567053753,4.56556917 0.367561043,5.09183519 C0.0683219791,5.88123421 -1.04338405,9.83349609 2.9936935,9.83349609 C7.03077104,9.83349609 5.95534403,5.88182804 5.60567607,5.09183519 C5.3725641,4.56517329 4.50190324,2.92339619 2.9936935,0.166503906 Z" id="Path-181" fill="#979797"></path>
            <g id="Group-4" transform="translate(10.000000, 1.166504)" stroke="#979797" stroke-width="2">
                <polyline id="Path-12" points="3.89090909 8.14545455 3.89090909 4.29098011 3.89090909 4.13406683e-14"></polyline>
                <polyline id="Path-12" transform="translate(3.890909, 4.072727) rotate(-60.000000) translate(-3.890909, -4.072727) " points="3.89090909 8.14545455 3.89090909 4.29098011 3.89090909 1.93312033e-13"></polyline>
                <polyline id="Path-12" transform="translate(3.890909, 4.072727) rotate(-120.000000) translate(-3.890909, -4.072727) " points="3.89090909 8.14545455 3.89090909 4.29098011 3.89090909 4.57896347e-14"></polyline>
            </g>
            <line x1="4.73095703" y1="16.1748047" x2="12.8979492" y2="16.1748047" id="Path-61" stroke="#979797" stroke-width="3"></line>
            <path d="M8.16876216,21.9255413 L2.68703646,13.7418225 C2.37967886,13.2829655 2.50249338,12.6618258 2.96135039,12.3544682 C3.12881222,12.2422967 3.3262623,12.1833481 3.52781103,12.1853517 L14.4135229,12.2935662 C14.9657804,12.2990562 15.409023,12.7511998 15.403533,13.3034573 C15.4015983,13.4980799 15.3429106,13.6879079 15.2346665,13.8496637 L9.83068028,21.925168 C9.52352883,22.384163 8.9024444,22.5072566 8.44344937,22.2001051 C8.33482357,22.1274146 8.24150144,22.0341344 8.16876216,21.9255413 Z" id="Path-60" stroke="#979797" stroke-width="3"></path>
        </g>
    </symbol>
    <symbol id="icon-13" viewBox="0 0 24 24">
        <g id="Group">
            <path d="M20.5311278,1.5 L3.0361577,2.25051572 L12.4327145,16.9862894 L20.5311278,1.5 Z" id="Rectangle" stroke="#979797" stroke-width="3" transform="translate(12.000000, 10.363770) scale(1, -1) translate(-12.000000, -10.363770) "></path>
            <circle id="Oval" fill="#979797" cx="12" cy="14" r="2"></circle>
        </g>
    </symbol>
    <symbol id="icon-7" viewBox="0 0 24 24">
        <g id="Artboard" stroke="none" stroke-width="1" fill="none" fill-rule="evenodd">
          <path d="M9.80731891,15.0066727 C8.77700632,15.6688909 7.6850511,16 6.53145324,16 C4.80105645,16 1.84915044,14.651201 1.52989234,12.4914441 C1.21063425,10.3316872 3.4756652,7.70385469 7.03228098,8.02715379 C9.40335816,8.24268653 11.0704705,9.56729781 12.033618,12.0009876 C12.938108,14.6669959 14.7721629,16 17.5357827,16 C21.6812125,16 22.7847351,13.5592579 22.4412976,11.2977378 C22.09786,9.03621769 19.3953604,8.02715379 17.5357827,8.02715379 C16.2960643,8.02715379 15.2493336,8.33984528 14.3955906,8.96522827" id="Path-62" stroke="#979797" stroke-width="3"></path>
        </g>
    </symbol>
    <symbol id="icon-25" viewBox="0 0 24 24">
        <g id="Group" transform="translate(1.000000, 2.000000)" stroke="#979797" stroke-width="3">
            <polyline id="Path-59" transform="translate(4.799690, 5.348972) rotate(-132.000000) translate(-4.799690, -5.348972) " points="7.37693315 2 8.25330314 8.69794479 1.34607657 8.69794479"></polyline>
            <polyline id="Path-59" transform="translate(15.828762, 15.799690) rotate(-42.000000) translate(-15.828762, -15.799690) " points="18.4060053 12.4507175 19.2823753 19.1486622 12.3751487 19.1486622"></polyline>
            <line x1="4.79616347e-14" y1="16" x2="21.1777344" y2="16" id="Path-58"></line>
            <line x1="5" y1="21.1777344" x2="5" y2="-6.57252031e-14" id="Path-58"></line>
        </g>
    </symbol>
    <symbol id="icon-26" viewBox="0 0 24 24">
        <g id="Group" stroke="#979797" stroke-width="2">
            <g id="Group-4" transform="translate(8.000000, 0.000000)">
                <polyline id="Path-12" points="3.89090909 8.14545455 3.89090909 4.29098011 3.89090909 4.13406683e-14"></polyline>
                <polyline id="Path-12" transform="translate(3.890909, 4.072727) rotate(-60.000000) translate(-3.890909, -4.072727) " points="3.89090909 8.14545455 3.89090909 4.29098011 3.89090909 1.93312033e-13"></polyline>
                <polyline id="Path-12" transform="translate(3.890909, 4.072727) rotate(-120.000000) translate(-3.890909, -4.072727) " points="3.89090909 8.14545455 3.89090909 4.29098011 3.89090909 4.57896347e-14"></polyline>
            </g>
            <g id="Group-4" transform="translate(16.000000, 8.000000)">
                <polyline id="Path-12" points="3.89090909 8.14545455 3.89090909 4.29098011 3.89090909 4.13406683e-14"></polyline>
                <polyline id="Path-12" transform="translate(3.890909, 4.072727) rotate(-60.000000) translate(-3.890909, -4.072727) " points="3.89090909 8.14545455 3.89090909 4.29098011 3.89090909 1.93312033e-13"></polyline>
                <polyline id="Path-12" transform="translate(3.890909, 4.072727) rotate(-120.000000) translate(-3.890909, -4.072727) " points="3.89090909 8.14545455 3.89090909 4.29098011 3.89090909 4.57896347e-14"></polyline>
            </g>
            <g id="Group-4" transform="translate(8.000000, 15.000000)">
                <polyline id="Path-12" points="3.89090909 8.14545455 3.89090909 4.29098011 3.89090909 4.13406683e-14"></polyline>
                <polyline id="Path-12" transform="translate(3.890909, 4.072727) rotate(-60.000000) translate(-3.890909, -4.072727) " points="3.89090909 8.14545455 3.89090909 4.29098011 3.89090909 1.93312033e-13"></polyline>
                <polyline id="Path-12" transform="translate(3.890909, 4.072727) rotate(-120.000000) translate(-3.890909, -4.072727) " points="3.89090909 8.14545455 3.89090909 4.29098011 3.89090909 4.57896347e-14"></polyline>
            </g>
            <g id="Group-4" transform="translate(0.000000, 8.000000)">
                <polyline id="Path-12" points="3.89090909 8.14545455 3.89090909 4.29098011 3.89090909 4.13406683e-14"></polyline>
                <polyline id="Path-12" transform="translate(3.890909, 4.072727) rotate(-60.000000) translate(-3.890909, -4.072727) " points="3.89090909 8.14545455 3.89090909 4.29098011 3.89090909 1.93312033e-13"></polyline>
                <polyline id="Path-12" transform="translate(3.890909, 4.072727) rotate(-120.000000) translate(-3.890909, -4.072727) " points="3.89090909 8.14545455 3.89090909 4.29098011 3.89090909 4.57896347e-14"></polyline>
            </g>
        </g>
    </symbol>
  </svg>