<?xml version="1.0" encoding="utf-8"?><svg xmlns="http://www.w3.org/2000/svg" xmlns:xlink="http://www.w3.org/1999/xlink"><symbol viewBox="0 0 30 20" id="storm_0" xmlns="http://www.w3.org/2000/svg">
    <g fill="none" fill-rule="evenodd">
        <path d="M5 20l-.217-.005A5 5 0 015.055 10a9 9 0 0117.439-3.982A7 7 0 1123 20H5z" fill="var(--fill-icon)"/>
        <path d="M13 5.25C13 3.725 13.667 3 15 3s2 1.034 2 2.25c0 .811-.222 2.79-.667 5.94 0 .54-.444.81-1.333.81s-1.333-.27-1.333-.81C13.222 8.248 13 6.268 13 5.25z" fill="#FFF"/>
        <circle fill="#FFF" cx="15" cy="16" r="2"/>
    </g>
</symbol><symbol viewBox="0 0 30 20" id="storm_1" xmlns="http://www.w3.org/2000/svg">
    <g fill="none" fill-rule="evenodd">
        <path d="M5 20l-.217-.005A5 5 0 015.055 10a9 9 0 0117.439-3.982A7 7 0 1123 20H5z" fill="var(--fill-icon)"/>
        <g stroke="#FFF" stroke-linecap="round">
            <path d="M8 12h15M11 14.5h11c1.01-.007 1.515.475 1.515 1.446 0 .97-.505 1.489-1.515 1.554M8 9.5h9c1.01.007 1.515-.475 1.515-1.446 0-.97-.505-1.488-1.515-1.554"/>
        </g>
    </g>
</symbol><symbol viewBox="0 0 24 24" id="storm_11" xmlns="http://www.w3.org/2000/svg">
    <g fill="none" fill-rule="evenodd">
        <rect fill="var(--fill-icon)" width="24" height="24" rx="3"/>
        <g fill="#FFF">
            <path d="M19.495 8c-1.293 2.298-2.022 3.666-2.189 4.104-.25.658-1.175 3.952 2.189 3.952s2.468-3.293 2.176-3.952c-.194-.438-.92-1.807-2.176-4.104zM4.495 8c-1.293 2.298-2.022 3.666-2.189 4.104-.25.658-1.175 3.952 2.189 3.952s2.468-3.293 2.176-3.952c-.194-.438-.92-1.807-2.176-4.104zM11.995 1c-1.293 2.298-2.022 3.666-2.189 4.104-.25.658-1.175 3.952 2.189 3.952s2.468-3.293 2.176-3.952c-.194-.438-.92-1.807-2.176-4.104zM11.995 15c-1.293 2.298-2.022 3.666-2.189 4.104-.25.658-1.175 3.952 2.189 3.952s2.468-3.293 2.176-3.952c-.194-.438-.92-1.807-2.176-4.104z"/>
        </g>
    </g>
</symbol><symbol viewBox="0 0 24 24" id="storm_13" xmlns="http://www.w3.org/2000/svg">
    <g fill="none" fill-rule="evenodd">
        <rect fill="var(--fill-icon)" width="24" height="24" rx="3"/>
        <path d="M20.531 19.228l-17.495-.751 9.397-14.736 8.098 15.487z" stroke="#FFF" stroke-width="3"/>
        <circle fill="#FFF" cx="12" cy="14" r="2"/>
    </g>
</symbol><symbol viewBox="0 0 24 24" id="storm_15" xmlns="http://www.w3.org/2000/svg">
    <g fill="none" fill-rule="evenodd">
        <rect fill="var(--fill-icon)" width="24" height="24" rx="3"/>
        <g stroke="#FFF" stroke-width="3">
            <path d="M19.677 13.778V20h-5.334"/>
            <path d="M4.566 20V5a1 1 0 011-1h9.896a1 1 0 01.552 1.834L9.989 9.817a1 1 0 00-.054 1.63l8.853 6.735h0"/>
        </g>
    </g>
</symbol><symbol viewBox="0 0 24 24" id="storm_18" xmlns="http://www.w3.org/2000/svg">
    <g fill="none" fill-rule="evenodd">
        <rect fill="var(--fill-icon)" width="24" height="24" rx="3"/>
        <path d="M15.029 8c1.225 0 1.824.521 2.235 1.12.411.6.767 1.288.767 3.004s-.572 2.6-.984 3.042c-.41.443-.997.834-2.018.834-1.022 0-1.735-.478-2.059-.834-.323-.355-.97-1.329-.97-3.09 0-1.76.457-2.618.848-3.075.392-.457.955-1.001 2.18-1.001zm-.012 1.315c-.878 0-1.348.858-1.409 2.573.033 1.881.503 2.822 1.409 2.822s1.376-.94 1.409-2.822c-.061-1.715-.53-2.573-1.409-2.573zM10.47 8v5.236h1.054v1.382H10.47V16H8.922v-1.382H5v-1.444c.367-.707.735-1.362 1.104-1.965.37-.603 1.049-1.673 2.039-3.209h2.327zM8.937 9.197a55.7 55.7 0 00-1.29 1.954c-.276.446-.681 1.161-1.216 2.146h2.506v-4.1z" fill="#FFF"/>
        <circle stroke="#FFF" cx="20" cy="8" r="1.5"/>
        <path fill="#FFF" d="M2 12h2v1.5H2z"/>
    </g>
</symbol><symbol viewBox="0 0 30 20" id="storm_2" xmlns="http://www.w3.org/2000/svg">
    <path d="M5 20l-.217-.005A5 5 0 015.055 10a9 9 0 0117.439-3.982A7 7 0 1123 20H5z" fill="var(--fill-icon)" fill-rule="evenodd"/>
</symbol><symbol viewBox="0 0 24 24" id="storm_20" xmlns="http://www.w3.org/2000/svg">
    <g fill="none" fill-rule="evenodd">
        <rect fill="var(--fill-icon)" width="24" height="24" rx="3"/>
        <circle stroke="#FFF" cx="19" cy="8" r="1.5"/>
        <path d="M5 16h5.333v-1.39H7.108L9.585 12c.435-.484.653-1.096.653-1.835 0-1.109-.537-1.446-1.017-1.785-.48-.34-.967-.363-1.508-.378-.884-.026-1.542.275-2.035.752-.427.413-.654 1.006-.678 1.777h1.352c.072-.473.256-.825.553-1.055.445-.345 1.435-.333 1.781.412.23.496.105 1.008-.377 1.536l-1.404 1.494A68.316 68.316 0 015 14.828V16zM11.142 12.52L11.544 8h4.907v1.38h-3.638l-.214 2.023c.807-.872 1.768-1.066 2.883-.582 1.673.726 1.52 2.706 1.272 3.358-.248.653-1.042 2.09-3.303 1.777-1.507-.208-2.324-1-2.451-2.372h1.535c.161.677.595 1.036 1.302 1.076 1.06.06 1.508-.672 1.508-1.346s-.254-1.303-1.161-1.48c-.605-.117-1.133.111-1.585.686h-1.457z" fill="#FFF"/>
    </g>
</symbol><symbol viewBox="0 0 24 24" id="storm_22" xmlns="http://www.w3.org/2000/svg">
    <g fill="none" fill-rule="evenodd">
        <rect fill="var(--fill-icon)" width="24" height="24" rx="3"/>
        <path d="M15.029 8c1.225 0 1.824.521 2.235 1.12.411.6.767 1.288.767 3.004s-.572 2.6-.984 3.042c-.41.443-.997.834-2.018.834-1.022 0-1.735-.478-2.059-.834-.323-.355-.97-1.329-.97-3.09 0-1.76.457-2.618.848-3.075.392-.457.955-1.001 2.18-1.001zm-.012 1.315c-.878 0-1.348.858-1.409 2.573.033 1.881.503 2.822 1.409 2.822s1.376-.94 1.409-2.822c-.061-1.715-.53-2.573-1.409-2.573zM6.165 10.344H7.61c.165-.78.641-1.134 1.43-1.06 1.18.11 1.039.944 1.039 1.156 0 .212-.105.529-.497.726-.261.13-.796.184-1.603.16v1.17c1.541-.102 2.312.236 2.312 1.012 0 1.165-1.408 1.393-2.08 1.041-.447-.235-.675-.535-.685-.902H6c.138 1.249.819 2 2.04 2.257 1.833.385 3.702-.41 3.85-1.993.1-1.055-.46-1.748-1.677-2.08.515-.164.878-.405 1.09-.723.316-.477.313-.95.313-1.153 0-.203-.001-.785-.752-1.352-.5-.377-1.088-.575-1.762-.593-.835-.058-1.536.14-2.105.593-.568.454-.846 1.035-.832 1.741z" fill="#FFF"/>
        <circle stroke="#FFF" cx="20" cy="8" r="1.5"/>
        <path fill="#FFF" d="M3 12h2v1.5H3z"/>
    </g>
</symbol><symbol viewBox="0 0 24 24" id="storm_25" xmlns="http://www.w3.org/2000/svg">
    <g fill="none" fill-rule="evenodd">
        <rect fill="var(--fill-icon)" width="24" height="24" rx="3"/>
        <g stroke="#FFF" stroke-width="2.5">
            <path d="M2.586 8.675l4.392-5.133 4.621 5.133M15.503 13.086l5.133 4.392-5.133 4.621M7 22.178V3M3 17.5h18.178"/>
        </g>
    </g>
</symbol><symbol viewBox="0 0 24 24" id="storm_28" xmlns="http://www.w3.org/2000/svg">
    <g fill="none" fill-rule="evenodd">
        <rect fill="var(--fill-icon)" width="24" height="24" rx="3"/>
        <g stroke="#FFF" stroke-linecap="round" stroke-width="2">
            <path d="M4 10.5h9c1.01.007 1.515-.475 1.515-1.446 0-.97-.505-1.488-1.515-1.554M7 14h11c1.01-.007 1.515.475 1.515 1.446 0 .97-.505 1.489-1.515 1.554"/>
        </g>
    </g>
</symbol><symbol viewBox="0 0 24 24" id="storm_29" xmlns="http://www.w3.org/2000/svg">
    <g fill="none" fill-rule="evenodd">
        <rect fill="var(--fill-icon)" width="24" height="24" rx="3"/>
        <g stroke="#FFF" stroke-linecap="round" stroke-width="2">
            <path d="M4 13.5h15M4 6.5h9c1.01.007 1.515-.475 1.515-1.446 0-.97-.505-1.488-1.515-1.554M7 17h11c1.01-.007 1.515.475 1.515 1.446 0 .97-.505 1.489-1.515 1.554M4 10h15"/>
        </g>
    </g>
</symbol><symbol viewBox="0 0 24 24" id="storm_5" xmlns="http://www.w3.org/2000/svg">
    <g fill="none" fill-rule="evenodd">
        <rect fill="var(--fill-icon)" width="24" height="24" rx="3"/>
        <g stroke="#FFF" stroke-width="2">
            <path d="M11.905 9.127V2M14.99 7.345L12.07 5.66 8.818 3.782"/>
            <path d="M14.99 3.782l-2.92 1.686-3.252 1.877M18.905 16.127V9M21.99 14.345l-2.92-1.686-3.252-1.877"/>
            <path d="M21.99 10.782l-2.92 1.686-3.252 1.877"/>
            <g>
                <path d="M11.905 22.252v-7.127M14.99 20.47l-2.92-1.686-3.252-1.877"/>
                <path d="M14.99 16.907l-2.92 1.686-3.252 1.877"/>
            </g>
            <g>
                <path d="M4.905 16.127V9M7.99 14.345L5.07 12.66l-3.252-1.877"/>
                <path d="M7.99 10.782l-2.92 1.686-3.252 1.877"/>
            </g>
        </g>
    </g>
</symbol><symbol viewBox="0 0 24 24" id="storm_7" xmlns="http://www.w3.org/2000/svg">
    <g fill="none" fill-rule="evenodd">
        <rect fill="var(--fill-icon)" width="24" height="24" rx="3"/>
        <path d="M10.12 15.006c-.883.567-1.819.851-2.807.851-1.484 0-4.014-1.156-4.287-3.007-.274-1.851 1.667-4.104 4.716-3.827 2.032.185 3.461 1.32 4.287 3.406.775 2.286 2.347 3.428 4.716 3.428 3.553 0 4.5-2.092 4.205-4.03-.295-1.939-2.611-2.804-4.205-2.804-1.063 0-1.96.268-2.692.804" stroke="#FFF" stroke-width="2.5"/>
    </g>
</symbol></svg>